<svg xmlns="http://www.w3.org/2000/svg" width="891.43726mm" height="600mm" viewBox="0 0 891.43726 600"><defs><linearGradient id="a" x1="266.771" x2="266.771" y1="741.54395" y2="575.29346" gradientTransform="matrix(1.45016 0 0 -1.45016 -263.887 1191.713)" gradientUnits="userSpaceOnUse" spreadMethod="pad"><stop offset="0" style="stop-opacity:1;stop-color:#ed1c24"/><stop offset="0.34724862" style="stop-opacity:1;stop-color:#ed1c24"/><stop offset="0.48875" style="stop-opacity:1;stop-color:#ed1c24"/><stop offset="0.74718" style="stop-opacity:1;stop-color:#fab20b"/><stop offset="1" style="stop-opacity:1;stop-color:#fab20b"/></linearGradient></defs><path d="M-123.878 406.832s3.868-1.69 5.257-2.233c1.39-.546 6.526-2.3 7.312-2.54.785-.24 5.797-1.146 6.947-1.389 1.15-.24 4.654-1.207 6.165-1.75 1.51-.546 7.25-3.444 7.854-3.805.604-.364 1.208-.606 1.69-1.213.485-.6 3.264-1.508 4.411-1.63 1.15-.124 4.232-.906 5.379-1.028 1.147-.118 4.593-.482 5.861-1.207 1.268-.725 3.805-.847 4.411-1.086.604-.246 3.623-1.21 5.012-1.575 1.393-.36 3.81-1.022 5.018-1.326 1.208-.303 3.261-.846 4.59-1.15 1.332-.3 5.622-1.389 7.193-1.75 1.572-.364 5.015-.965 7.187-1.45 2.179-.485 5.862-1.329 7.433-1.632 1.572-.304 4.593-.668 6.887-1.086 2.296-.425 7.25-1.454 8.28-1.696 1.028-.24 17.34-3.565 20.42-3.808 3.082-.24 10.515-1.507 12.872-1.868 2.354-.364 11.358-1.511 12.99-1.815 1.633-.303 13.777-1.872 16.738-2.233 2.958-.364 18.306-1.935 21.267-2.117 2.96-.182 15.045-.783 17.462-1.026 2.415-.242 11.541-.546 13.17-.606 1.632-.058 7.676-.058 8.883-.122 1.21-.06 8.097-.364 10.212-.242 2.114.124 9.004-.237 10.573-.122 1.571.122 4.532.122 7.311.304s7.13.182 9.065.364c1.933.182 3.565.06 5.858.303 2.3.24 6.408.24 7.494.422 1.089.179 7.976.543 9.304.725 1.33.182 5.922.485 7.976.725 2.054.24 6.04.604 7.25.786 1.208.182 7.13.846 9.366 1.147 2.236.303 5.076.546 7.794 1.025 2.718.485 5.136.91 6.89 1.153 1.75.24 5.68 1.086 6.525 1.268.844.182 4.048.422 5.437.783 1.39.364 3.868.85 6.465 1.39 2.597.545 6.83 1.27 8.4 1.57 1.57.304 10.452 1.876 12.385 2.355 1.932.485 11.058 2.482 13.05 2.9 1.994.425 11.845 2.907 13.413 3.143 1.572.243 9.065 2.24 10.998 2.782 1.932.543 7.43 2.357 8.64 2.658 1.21.3 14.138 4.469 15.949 5.197 1.814.725 8.643 3.203 10.76 4.047 2.112.846 9.245 3.99 11.238 4.836 1.993.843 7.068 3.264 8.758 4.047 1.693.785 7.554 3.807 9.43 4.714 1.868.904 7.25 3.683 8.937 4.715 1.699 1.022 6.043 4.29 7.25 5.436 1.214 1.147 2.604 2.473 3.508 3.562.907 1.086 2.539 2.96 3.264 4.05.725 1.09 1.147 1.386 1.147 2.6 0 1.207 0 2.718-.182 3.744-.182 1.025-.243 2.293-.486 2.779-.236.485-.418.06-.843.546-.425.482-1.39 1.693-2.236 2.475-.843.786-2.293 1.875-3.322 2.294-1.028.425-2.9.546-3.683.546-.789 0-.91.06-1.45-.364-.546-.419-1.268-1.208-2.718-2.294-1.457-1.086-1.275-1.268-3.025-1.993-1.754-.725-3.868-2.114-5.8-2.54-1.936-.424-5.983-1.57-7.491-1.753-1.514-.179-4.715-.964-6.887-1.146-2.178-.182-5.136-.847-7.014-1.208-1.872-.364-5.194-1.207-7.008-1.39-1.814-.181-5.018-.424-7.25-.606-2.237-.18-5.198-.24-7.19-.482-1.994-.24-5.501-.844-7.673-1.572-2.176-.725-3.083-1.39-4.533-2.054-1.45-.664-1.872-1.207-3.926-1.089-2.056.121-4.05.361-7.25-.24-3.2-.603-7.193-1.871-10.394-3.385-3.204-1.508-4.654-2.718-7.008-3.683-2.357-.965-5.2-2.178-6.708-2.84-1.51-.664-2.418-1.996-4.65-1.996 0 0-1.03.485-2.6-.3-1.57-.786-5.015-2.843-8.58-4.348-3.565-1.517-9.183-4.532-11.905-5.622-2.718-1.086-7.55-3.443-8.397-3.807-.847-.364-2.358-.904-1.69.786.664 1.69.543 1.571.843 2.357.303.783.607 1.329-3.443-.422-4.047-1.753-5.194-2.175-9.001-3.507-3.808-1.328-7.612-2.718-10.876-3.625-3.262-.904-6.344-1.808-9.305-2.476-2.961-.664-8.219-1.935-9.426-2.114-1.208-.182-14.562-3.143-16.738-3.322-2.175-.182-7.187-1.15-9.787-1.335-2.596-.179-11.783-1.447-14.019-1.508-2.236-.06-6.404-.36-9.608-.422-3.2-.063-15.888-.546-19.091-.242-3.204.303-6.708.364-8.459.789-1.753.418-2.72 1.025-3.325 1.629-.603.603-.967 1.814.604 2.475 1.572.665 2.297.543 4.108.665 1.814.121 4.593.303 7.254.546 2.657.24 5.497.421 7.493.725 1.993.3 4.65.725 6.101.846 1.45.119 6.83.783 9.73 1.268 2.897.48 9.058 1.45 10.63 1.872 1.571.422 5.318.786 8.461 1.511 3.143.725 6.101 1.268 12.99 2.897 6.887 1.633 10.03 2.661 14.017 3.871 3.99 1.208 9.669 3.143 14.44 4.894 4.776 1.75 7.977 3.022 11.541 4.711 3.565 1.693 7.676 3.325 10.816 5.079 3.143 1.747 4.775 2.718 8.097 4.648 3.322 1.935 2.115 1.086 5.98 3.747 3.87 2.66 4.171 2.539 6.407 4.714 2.236 2.175 2.476 2.66 3.443 3.807.968 1.147 1.029 1.33 1.332 1.872.3.543.6.847-.182 1.332-.786.48-1.993.965-2.66 1.508-.665.543-1.087.607-.122 1.753.97 1.147.97 1.026 1.332 1.569.36.546.482.546 0 1.51-.486.969-.668 2.482-2.9 4.172-2.236 1.69-5.5 3.383-7.615 3.686-2.118.3-2.9.543-4.776.483-1.871-.064-2.957.36-7.187-.3a335.293 335.293 0 0 1-11.48-1.997c-3.446-.667-8.582-1.572-10.575-2.05-1.993-.486-3.744-.972-7.372-1.154-3.626-.182-6.705-.24-7.855 0-1.147.243-1.326.546-3.625-.546-2.294-1.086-3.083-1.99-6.644-3.561-3.565-1.572-5.558-2.78-8.28-4.108-2.718-1.329-7.25-3.626-9.183-4.411-1.932-.786-2.175-.904-5.982-2.294a89.5 89.5 0 0 0-9.244-2.843c-2.415-.603-4.411-1.265-4.955-1.389-.543-.122-.664-.3-2.114 0-1.45.3-2.115.422-3.986.786-1.875.364-2.179.607-5.683-.06-3.504-.668-5.436-.966-10.03-1.994-4.593-1.029-7.008-1.69-10.754-2.357-3.747-.665-6.162-1.208-8.823-1.39-2.657-.182-6.465-.485-7.793-.485-1.33 0-1.812.182-4.35-.725-2.537-.907-4.29-1.387-6.463-2.112-2.178-.725-5.018-1.574-9.004-2.54-3.99-.967-6.95-1.689-9.487-1.99-2.539-.302-5.982-.91-7.55-.849-1.572.06-4.112.304-7.012-.303-2.9-.6-6.647-1.329-9.547-1.75-2.898-.425-7.551-1.211-9.548-1.448-1.993-.246-6.404-.97-8.758-1.089-2.357-.124-5.318-.182-7.676-.246-2.354-.057-8.637-.24-11.055-.24-2.418 0-6.708 0-9.726-.303-3.025-.3-8.037-.482-10.758-.604-2.718-.121-8.64-.418-11.176-.36-2.54.057-9.97-.422-13.895-.125-3.929.303-10.455.246-14.444.485-3.986.243-7.312.122-9.605.243-2.297.121-5.076.364-7.858.425-2.779.06-5.98.06-8.094.182-2.114.118-4.833 0-8.036 0-3.204 0-6.044-.122-7.615-.182-1.572-.064-3.261-.182-4.894-.243-1.632-.06-3.322 0-5.254 0-1.936 0-1.453.122-2.782.06-1.329-.06-2.297-.06-2.175-.846.121-.785.603-1.21.603-1.21z" style="fill:#254aa5;fill-opacity:1;fill-rule:nonzero;stroke:none;stroke-width:3.1066" transform="translate(223.767 -213.933) scale(1.79743)"/><path d="M-46.72 350.886s7.372-1.33 10.454-1.997c3.083-.664 8.155-1.571 11.056-1.932 2.9-.364 7.857-1.21 10.879-1.572 3.018-.364 9.001-1.207 12.083-1.571 3.083-.364 7.312-1.029 10.151-1.268 2.84-.243 5.376-.789 7.187-.85 1.815-.054 3.083 0 4.172-1.325 1.086-1.332 2.172-2.54 3.804-4.415 1.636-1.868 3.325-4.107 3.808-5.254.485-1.147 1.814-2.354 2.539-3.2.725-.847 2.154-1.776 2.436-1.933.282-.164.161.158-.443.964-.604.807-1.007 1.411-.36.844.642-.561 2.092-1.73 2.9-2.573.803-.85.725-.607 1.45-1.374.725-.762 1.529-1.526 1.69-1.647.16-.122.403-.125-.483.885a66.456 66.456 0 0 1-2.497 2.697c-.606.604-1.329 1.49-1.532 1.975-.2.486-.604 1.772.161 1.047.765-.725.968-.767 1.371-1.047.4-.285 1.005-.603 1.411-1.21.4-.604.482-.883.965-1.368.485-.486.764-.725.807-.364.04.364.118 1.089.643.443.525-.644 1.247-.804 1.45-1.086.203-.28.564-.4.886-.807.322-.4.768-.443 1.047-.923.282-.485.606-.685 1.089-1.45.482-.77.886-1.25 1.046-1.614.161-.36.443-.968-.36-.485-.808.485-1.13.685-1.572.807-.443.121-.686-.08-.122-.844.565-.764 1.45-.889 2.054-1.571.604-.686 1.53-1.09 1.772-2.418.243-1.326.382-2.297.746-3.686.361-1.39.786-2.054 2.537-3.022 1.753-.968 3.079-2.175 3.021-3.443-.06-1.268.06-1.45.665-1.811.603-.364.907-.364 1.39-1.153.482-.783.785-1.147 1.51-1.387.725-.242 1.086-.242 1.693-1.331.604-1.087.965-1.33 2.172-2.837 1.21-1.514 1.632-2.175 2.479-3.204.846-1.028 2.96-2.536 4.353-1.993 1.387.543 1.99.965 2.776 1.814.789.844 1.09 1.326 1.936 1.99.846.668 1.629.486 1.69 1.572.06 1.09 0 1.574.846 2.54.846.967 1.089 1.328 1.632 2.114.543.786 1.51 2.236 2.78 1.086 1.267-1.147 2.053-1.63 3.564-4.29 1.51-2.658 2.597-4.108 3.385-5.194.783-1.089.965-1.875 1.751-2.66.786-.786 1.09-1.147 1.147-.058.06 1.086-.119 1.811.725.418.846-1.386 1.332-1.868 2.236-2.897.907-1.028 1.45-2.175 2.236-2.96.785-.787 1.15-1.148 1.571-1.572.422-.422.904-.483.543.124-.364.6-1.025 1.808-1.571 2.536-.543.722-.965 1.329-1.69 2.297-.725.965-.907 1.144-1.15 1.69-.243.543-.843 1.993.546.543 1.387-1.45 2.172-2.176 3.383-3.808 1.207-1.629 3.14-3.804 4.047-5.194.907-1.39 2.236-2.84 3.022-3.865.785-1.031.843-1.092 1.389-1.814.543-.725.965-2.114-.482-.907-1.45 1.21-2.24 2.054-3.265 3.082-1.028 1.029-1.39 1.029-1.872 1.569-.485.546-1.207.789-.06-.904s2.597-3.204 3.443-4.29c0 0 1.004-1.104 1.814-2.133.813-1.028 1.138-1.947 1.897-2.436.758-.485.888-.719 1.119-.719.234 0-.058.058-.115-.403-.058-.468-.346.057 1.101-1.972 1.45-2.033 3.947-4.933 4.642-5.57.697-.637.87-.868 1.043-1.796.173-.932.525-1.511 1.915-2.616 1.392-1.098 1.972-1.565 2.785-2.087.813-.519 2.148-1.39 3.713-.403 1.562.986 2.667 2.03 3.364 3.134.695 1.1.695.983 1.332 2.436.637 1.45.522 1.332 1.45 2.2.929.873 1.335.521 2.148 2.266.81 1.738 1.332 2.666 1.623 3.595.292.928.292 1.972.753 2.551.464.58 2.381 3.134 3.537 4.93 1.162 1.796 2.67 3.77 3.307 4.757.64.989.928 1.565 1.162 1.044.234-.522.464-1.099.928-.462.465.637 1.284 2.315 1.893 3.404.613 1.086.295.722.407 1.45.115.722.434 1.472.84 2.04.41.563.953 1.11.25.679-.702-.431-1.248-.77-1.587-.886-.34-.11-1.02-.619-.598.77.425 1.393.846 2.843 1.753 4.111.908 1.268 1.572 1.933 1.933 2.294.364.36.604.185 1.028.246.422.057.543.24.725.964.183.722.365 1.268 1.208 2.051.846.789 2.36 2.664 1.935 1.09-.421-1.57-.967-2.473-1.874-3.744-.904-1.269-1.633-2.115-1.812-2.782-.182-.662-.424-1.569.483-.365.907 1.214 2.964 3.75 3.99 5.622 1.025 1.872 1.81 2.843 2.535 4.348.726 1.516.665 1.695 2.057 3.51 1.387 1.81 3.38 4.286 4.348 5.676.968 1.392 2.657 2.9 3.264 4.047.604 1.153.907 1.153 1.75 2.3.847 1.146 1.272 1.692 1.933 2.84.668 1.146 1.393 1.813 2.118 2.717.725.908 3.14 3.265 1.932.547-1.207-2.719-1.571-3.932-1.693-4.35-.121-.426.122-.426.486-.183.36.24 1.028.364.422-.904-.604-1.271-1.936-3.69-2.597-5.018-.668-1.329-1.936-3.325-2.9-4.954-.968-1.632-1.812-3.204-2.237-4.414-.424-1.205-.664-2.233-1.632-2.233-.964 0-.722.121-1.147-1.029-.424-1.15-.967-2.418-1.328-3.382-.364-.968-1.09-1.693-2.176-2.961-1.089-1.268-2.539-2.84-3.504-4.23-.967-1.389-2.296-2.232-1.27-3.385 1.028-1.147 1.631-2.05 2.417-3.019.786-.968 1.09-1.332 2.297-2.054 1.207-.728 1.51-.785 1.693-2.178.179-1.386.24-3.38 1.025-3.744.786-.36 1.329-.24 2.115-1.086.785-.846 1.268-1.45 2.597-2.718 1.331-1.268 3.868-2.782 5.74-1.753 1.874 1.028 2.417 1.328 3.868 3.203 1.45 1.872 2.84 3.444 4.471 5.68 1.63 2.232 1.693 2.293 2.537 3.318.846 1.029 2.782 1.093 2.9 2.24.121 1.146-.361 1.51.604 2.475.967.968 3.325 3.443 4.229 5.015.907 1.571 2.539 3.99 3.689 5.8 1.147 1.812 1.147 1.63 1.508 2.597.364.968.664 1.572-.361.786-1.029-.786-2.418-2.415-3.022-3.022-.604-.6-1.029-.964-.543.122.482 1.089 1.872 3.926 3.504 6.586s2.054 3.808 3.868 6.286c1.811 2.476 2.054 3.019 2.9 3.747.844.722 2.719 1.69 1.447-.303-1.268-1.994-2.414-4.108-3.382-5.74-.965-1.633-1.754-3.019-.543-2.236 1.207.785 1.392 1.025 2.236 2.236.846 1.21 1.629 1.993 2.718 3.683 1.086 1.695 2.66 3.931 2.175 2.239-.482-1.693-.422-2.054.18-1.45.606.603 1.813 1.389 3.807 4.29 1.993 2.9 3.264 4.592 4.896 7.068 1.63 2.475 1.872 2.9 4.23 5.98 2.356 3.082 2.293 3.26 3.018 3.746.728.486 1.632 1.086.485-.843-1.147-1.936-1.089-1.996-2.175-3.507-1.086-1.508-1.514-1.993-1.993-2.78-.486-.785-.422-1.328.421-.424.847.91 1.45 1.875 2.297 2.54.846.664 1.933 1.57.664-.18-1.268-1.753-1.692-2.238-2.418-3.628-.725-1.386-1.086-2.658-.3-2.111.786.543 1.872 1.571 3.322 3.804 1.45 2.236 3.99 5.497 5.379 7.915 1.386 2.418 2.597 4.05 3.261 5.619.665 1.571.786 2.175 1.994 2.357 1.21.182 4.835.425 7.432.846 2.6.422 7.13 1.029 8.583 1.21 1.447.18 4.833.723 7.005 1.026 2.175.303 3.868.422 9.183 1.268 5.318.847 7.375 1.208 10.394 1.754 3.022.543 3.986.722 8.097 1.51 4.111.786 4.651.908 8.52 1.694 3.867.782 5.135 1.328 6.95 1.629 1.81.3 2.957.907 3.925-.543.968-1.45 2.418-3.868 3.686-7.312 1.268-3.446 3.562-9.429 4.35-12.748.786-3.325 2.112-6.765 2.294-9.55.182-2.776.182-3.076.246-3.926.058-.843-.124-.482.783-1.207.907-.725 2.96-1.754 1.51-2.118-1.45-.36-2.117-.722-2.175-1.869-.06-1.146.607-1.146 1.33-2.597.724-1.45 1.207-2.779 1.389-3.446.182-.664.424-.607-.483-1.693s-1.453-2.054-.786-4.469c.665-2.42 1.39-5.075.786-6.525-.607-1.45-1.268-1.693-.907-4.958.364-3.26.182-6.4.06-9.062-.12-2.657-.363-10.633-1.267-14.258-.908-3.623-2.782-11.058-4.472-15.288-1.693-4.229-3.99-8.761-5.376-11.66-1.39-2.9-1.39-4.288-3.325-5.135-1.933-.848-2.718-.967-3.261-2.355-.547-1.391-.422-2.358-1.754-2.661-1.329-.302-2.658 0-1.811-1.39.846-1.389 1.872-3.443.846-5.677-1.028-2.236-1.996-4.052-1.996-5.2 0-1.147-.06-1.208-1.268-2.476-1.208-1.27-1.632-2.477-3.261-5.62-1.633-3.141-3.926-6.947-4.955-9.063-1.028-2.115-5.257-8.759-7.675-11.598-2.418-2.842-6.708-7.916-8.037-9.426-1.328-1.513-9.062-8.762-12.808-11.784-3.744-3.021-9.97-7.37-12.87-9.063-2.9-1.693-8.218-4.531-9.969-5.438-1.753-.906-4.41-2.597-6.586-4.23-2.175-1.63-11.298-7.068-14.56-8.822-3.264-1.75-11.543-5.86-14.018-6.827-2.479-.968-11.905-4.713-15.109-5.62-3.2-.906-11.358-3.08-13.894-3.624-2.54-.543-9.67-1.933-12.87-2.417-3.2-.483-9.85-1.087-11.18-1.268-1.328-.182-10.15-.485-13.715-.485-3.565 0-8.701-.241-9.666-.12-.967.12-1.45-.062-3.082.725-1.632.786-4.168 1.569-6.283.907-2.115-.666-4.593-1.693-5.56-2.055-.966-.363-1.57-.423-2.598.24-1.028.665-1.993 1.633-3.986 1.815-1.997.18-5.076-.121-6.526.12-1.45.241-3.565.664-3.443 1.63.118.968.36 1.21-.847 1.452-1.21.24-2.236.665-2.96.543-.726-.121-.786.12-2.055 1.147-1.268 1.029-2.539 2.295-3.807 2.9-1.268.606-2.175.545-3.322 1.21-1.15.664-1.75.846-2.961 1.45-1.207.603-2.054 1.089-3.504 1.027-1.45-.061-1.993-.181-2.6.364-.604.543-.604.966-2.54.725-1.932-.245-3.743-.182-4.65-.364-.907-.18-1.39-.18-2.718.544-1.33.725-2.597 1.45-4.411 2.356-1.815.907-2.78 1.21-3.083 1.935-.303.722.122.847-1.45 1.69-1.571.847-1.39 1.391-2.718 1.45-1.329.061-2.115.061-2.476-.421-.364-.483-.846-.243-1.693.421-.846.665-1.21 1.39-2.357 1.573-1.147.18-1.63.302-3.322 1.51-1.693 1.209-1.15 1.209-1.932 1.693-.786.482-1.693.845-2.118 1.63-.422.785-.722 1.572-1.75 2.297-1.029.725-1.933 1.45-2.358 1.993-.421.543-.846.966-1.75.786-.907-.182-1.514-.363-3.447.845-1.932 1.207-4.35 2.478-8.158 4.895-3.804 2.416-7.187 4.713-9.362 6.706-2.178 1.993-4.168 4.108-5.015 5.135-.846 1.028-.725 1.51-2.175 1.632-1.45.121-1.875.182-3.325 1.934-1.45 1.752-1.75 2.96-3.14 4.108-1.39 1.15-1.814 1.268-2.66 1.331-.844.058-.665.24-.544 1.087.122.846.908 2.537-.664 4.048-1.568 1.51-1.45 1.51-3.625 2.597-2.176 1.088-3.383 1.995-3.808 2.902-.425.905.182.784-1.51 2.477-1.69 1.69-2.598 2.054-4.955 5.377-2.354 3.322-5.618 8.396-6.708 10.393-1.086 1.993-3.079 5.497-4.65 9.062-1.572 3.566-3.383 8.279-4.23 10.574-.846 2.296-1.692 5.8-2.778 7.19-1.09 1.39-2.236 2.84-4.833 8.28-2.6 5.436-2.479 5.193-4.35 10.33-1.876 5.135-2.419 7.129-3.326 9.908-.907 2.782-.785 3.807-1.932 5.196-1.15 1.39-4.411 6.705-4.172 12.566.243 5.865.361 9.73.425 11.483.06 1.75.422 5.437-.604 8.759-1.028 3.325-1.571 4.11-1.571 7.19 0 3.082-.122 4.411.36 8.64.486 4.23.969 6.526 2.058 10.333 1.086 3.805 1.69 5.922 3.14 9.244 1.45 3.325 2.418 5.318 3.928 8.4 1.511 3.083 2.115 4.048 2.9 5.195.787 1.15 1.269 1.632 2.78 1.268 1.51-.361 4.171-.783 4.532-.904.361-.122 1.69-.3 1.69-.3z" style="fill:url(#a);fill-opacity:1;fill-rule:nonzero;stroke:none;stroke-width:3.1066" transform="translate(223.767 -213.933) scale(1.79743)"/></svg>