<svg xmlns="http://www.w3.org/2000/svg" width="758" height="480" overflow="hidden"><defs><clipPath id="a"><path d="M-1 138h758v480H-1z"/></clipPath></defs><g fill-rule="evenodd" clip-path="url(#a)" transform="translate(1 -138)"><path fill="#E60012" d="M58.308 409.968s-14.97-8.847-19.682-9.599c-4.713-.847-6.284-6.4-8.594-8.094C27.629 390.675 0 373.076 0 368.182c0-4.8 13.399-3.953 20.514-6.4 7.115-2.447 13.399-5.647 21.253-5.647 3.881 0 6.284-1.505 11.089-2.446 4.897-.941 12.197-1.224 13.399-2.447 2.402-2.447-1.571 14.399-3.881 18.446-2.495 4.141-3.235 15.434-3.235 20.234 0 4.8 3.05 20.893-.831 20.046M71.873 340.835s-11.604-13.118-15.875-15.366c-4.27-2.249-4.084-8.059-5.756-10.307-1.763-2.249-22.652-27.736-21.166-32.233 1.485-4.592 14.018.468 21.538.375 7.52 0 14.482-1.125 22.002 1.405 3.714 1.218 6.406.562 11.234 1.218 4.92.75 12.068 2.717 13.554 1.968 2.971-1.593-5.942 13.118-9.47 16.21-3.528 2.998-7.705 13.399-9.19 17.99-1.393 4.498-3.343 20.708-6.87 18.74M104.657 279.542s-6.118-16.415-9.27-20.074c-3.151-3.658-.834-9.004-1.668-11.725-.834-2.814-11.215-34.143-8.157-37.895 3.06-3.658 12.884 5.534 19.929 8.255 6.951 2.72 13.903 4.314 20.021 9.38 3.059 2.532 5.747 2.814 10.103 5.252 4.357 2.439 10.196 6.942 11.864 6.754 3.337-.281-10.288 10.13-14.645 11.631-4.356 1.595-11.957 9.755-14.923 13.414-3.151 3.845-10.752 18.197-13.254 15.008M161.754 230.201s-.46-17.451-2.3-21.93c-1.749-4.479 2.116-8.772 2.208-11.665.092-2.893.46-35.741 4.417-38.261 4.05-2.519 10.308 9.425 16.013 14.278 5.706 4.852 11.687 8.585 15.737 15.398 2.116 3.359 4.509 4.572 7.73 8.212 3.313 3.733 7.362 9.892 9.019 10.265 3.22.746-12.884 6.159-17.393 6.159-4.602 0-14.357 5.226-18.314 7.652-4.049 2.707-15.736 13.718-17.117 9.892M230 205.706s5.161-16.732 4.885-21.593c-.276-4.861 4.793-7.572 5.806-10.283 1.014-2.711 11.798-33.746 16.406-34.774 4.609-1.028 6.729 12.339 10.6 18.789 3.871 6.45 8.295 12.059 10.046 19.818.83 3.832 2.857 5.795 4.701 10.376 1.935 4.58 3.871 11.778 5.253 12.713 2.765 1.776-14.194 1.589-18.526.187-4.331-1.402-15.207.187-19.908 1.309-4.516.934-19.171 7.478-19.263 3.458M304.085 202.055s10.721-13.685 12.2-18.247c1.479-4.561 7.117-5.306 9.058-7.447 1.849-2.141 23.108-27.09 27.73-26.345 4.714.745 1.941 13.964 3.235 21.318 1.294 7.448 3.512 14.15 2.403 21.97-.554 3.91.555 6.423.74 11.357.184 4.934-.647 12.381.369 13.684 2.034 2.7-13.772-3.63-17.377-6.609-3.512-2.886-14.326-5.306-19.041-6.051-4.621-.651-20.704.093-19.317-3.63"/><path fill="#004EA2" d="M558.478 545.01c-28.821 22.156-40.722 31.372-94.738 33.327-45.835 1.676-71.867-18.432-91.856-37.981 11.807 2.42 24.73 3.631 39.141 3.072 63.5-2.327 82.652-14.988 116.773-41.24l-23.429-30.534c-28.729 22.156-40.722 31.372-94.739 33.327-52.901 1.955-79.398-25.135-100.688-46.918l-5.207-5.307C281.515 430.507 247.58 405 181.942 405 121.418 405 79.766 440.654 78 442.237l25.195 29.044c.279-.279 33.005-27.834 78.747-27.834 51.135 0 75.68 17.595 94.553 36.492l2.696 2.7c-12.644-2.7-26.962-4.189-43.139-4.189-60.617 0-102.176 35.654-103.942 37.236l25.381 29.138c.279-.279 33.005-27.834 78.747-27.834 51.041 0 75.586 17.501 94.459 36.492l5.021 5.027c23.8 24.204 59.688 60.882 129.509 58.368 63.5-2.327 82.652-14.987 116.773-41.239l-23.522-30.628Z"/><path fill="#094" d="M232 405h524S638.545 270 487.413 270C336.28 270 232 405 232 405"/></g></svg>