<svg xmlns="http://www.w3.org/2000/svg" xml:space="preserve" width="329.19818" height="251.44443" viewBox="0 0 329.19818 251.44443"><path d="M972.9 819.148c.228.527-.493 1.549-.967 1.796-.702-.278-1.897.992-2.579-.586.72-1.022 1.915-2.292 3.546-1.21zM1000.169 820.369c.929.804.682 1.578-.265 2.073-.228-.526-.703-.278-.703-.278-.455-1.052.266-2.074.968-1.795zM994.46 824.643c.228.526-.018 1.3-.72 1.022-.474.248-.72 1.022-1.422.744.02-1.3 1.46-3.343 2.143-1.766zM1019.454 820.603c-.72 1.022-1.688 2.818-3.337 3.036l-.702-.278c.019-1.3 1.194-1.27 1.441-2.045.948-.494 1.897-.99 2.598-.713z" style="fill:#cbcacb;fill-opacity:1;fill-rule:nonzero;stroke:none;stroke-width:1.33333" transform="translate(-690.256 -658.16)"/><path d="M744.7 804.97c3.753.616 8.228.21 10.296 3.645 5.366 2.999 11.947 3.428 15.398 8.718 6.75 4.855 13.046 8.658 20.745 13.017 3.546-1.21 5.84 2.75 8.647 3.864 6.58.428 13.597 3.21 19.21 5.434 7.983.985 16.422 3.023 23.665 6.33 1.67-1.518 3.774-.684 5.652-.376 5.195-1.427 10.562 1.572 15.985.67 12.952-.967 25.203-2.214 37.699-4.234 4.722-1.18 9.898-1.306 14.412-4.312 2.825-.188 6.144-1.923 9.652-.533 1.896-.991 4.039-2.757 6.144-1.922.701.278.455 1.052 1.631 1.082.55-5.448 6.182-4.524 9.728-5.733 2.105.834 4.892 3.247 6.58.429.493-1.548 1.441-2.044.284-3.374l-1.403-.556c1.195-1.27 4.532-4.305 6.865-2.945.682 1.578 1.137 2.63 2.787 2.412 1.195-1.27 3.793-1.983 5.424-.9-6.902 5.545-14.924 7.16-21.599 13.23-2.143 1.766-3.717-3.217-5.632-.925-.55 5.448-5.499 6.101-8.818 7.836-2.124.467-5.215 2.728-6.827.346-1.479 4.643-5.973 6.35-9.52 7.559-1.838-2.908-4.683-1.42-6.352.097-4.076 5.357-9.899 1.306-14.412 4.312-3.546 1.21-8.021 1.614-10.884 4.402l-.475.248c3.262 2.165 6.58.429 10.127-.78 10.392-2.855 21.22-3.357 31.403-8.038 9.216-2.885 19.133-5.491 28.369-9.676 5.935-3.749 12.78-5.394 18.488-9.67 4.002-.157 7.339-3.193 11.094-2.576 2.844-1.487 4.741-2.48 7.339-3.193.682 1.579-.039 2.6-1.46 3.345-2.143 1.764-5.67 1.674-7.13 5.018-3.32 1.735-7.112 3.72-8.591 8.363-.702-.278-1.176-.03-1.65.218l.455 1.051c4.665 2.722 6.922-6.844 10.62-2.328 2.844-1.487 5.935-3.749 8.096-6.815 1.65-.217 2.599-.713 4.001-.157 6.202-5.822 14.698-7.686 21.6-13.23.702.277 1.65-.219 2.105.833.227.526-.494 1.548-.968 1.797-10.922 7.002-18.583 16.169-29.26 22.397-1.251 5.17-6.352.097-7.603 5.267-.967 1.795-4.04 2.757-1.954 4.891.455 1.053-.266 2.075-.74 2.323-4.93-.647-5.043 7.153-10.202 5.98-3.602 5.11-10.448 6.755-15.683 10.782-8.551 5.762-18.488 9.67-27.97 14.628-4.494 1.705-9.727 5.733-14.658 5.086-2.883 4.088-7.51-1.233-9.918 2.606-2.18 4.366-6.637 3.472-10.391 2.855-2.106-.834-4.665-2.72-6.58-.429-.74 2.322-2.864 2.787-4.514 3.005-2.598.714-4.874-4.547-7.984-.985-.056 3.9-4.057 4.058-6.883 4.245-4.418-3.494-8.932-.49-13.406-.084-5.405-.399-10.108-.52-15.493-2.218-6.884 4.245-13.142-2.158-19.514-.76-6.087-1.978-11.984-.828-17.825-3.58-3.792 1.984-7.244-3.306-11.036-1.323-6.068-3.277-13.616-1.91-18.49-6.456-11.49-2.376-21.75-8.622-32.274-12.793-1.346-4.456-7.263-2.007-8.61-6.464-1.156-1.33-2.787-2.412-4.19-2.968-.74 2.321-1.877-.309-3.053-.338.019-1.3-2.58-.587-1.84-2.91-.91-2.103-2.787-2.411-3.944-3.742-.208-1.826-2.806-1.112-1.84-2.908-3.033-1.638-3.204-6.064-5.764-7.951-1.118-3.93-4.816-8.447-2.162-13.06-.17-4.426-2.692-8.913.645-11.948 3.584-3.81 8.78-5.236 12.364-9.046 2.599-.714 5.651-.375 6.865-2.945.531-4.148 2.256-9.566 6.75-11.271.02-1.3 1.442-2.044 2.618-2.014 5.176-.127 10.392-2.854 15.758.144m206.033 50.284c-.474.248-1.195 1.27-.968 1.796.228.526 1.176.03 1.404.556 1.65-.218 3.546-1.21 4.039-2.757-1.137-2.63-2.826.187-4.475.405z" style="fill:#cbcacb;fill-opacity:1;fill-rule:nonzero;stroke:none;stroke-width:1.33333" transform="translate(-690.256 -658.16)"/><path d="M980.182 854.653c1.208-1.08 3.02-1.693 4.043-1.667-.74 2.323-3.243 4.6-6.058 4.137.896-.468 1.141-1.688 2.015-2.47z" style="fill:#cbcacb;fill-opacity:1;fill-rule:nonzero;stroke:none;stroke-width:1.33333" transform="translate(-690.256 -658.16)"/><path d="M964.53 805.1c.228.526-.493 1.548-.967 1.797-.702-.278-1.896.992-2.58-.587.722-1.022 1.917-2.292 3.547-1.21zM991.799 806.32c.93.804.682 1.578-.265 2.075-.228-.526-.703-.278-.703-.278-.454-1.053.266-2.075.968-1.796zM986.091 810.596c.228.526-.019 1.3-.721 1.022-.473.248-.72 1.022-1.421.743.018-1.3 1.46-3.343 2.142-1.765zM1011.085 806.555c-.721 1.022-1.689 2.818-3.338 3.036l-.702-.278c.019-1.3 1.195-1.27 1.441-2.044.948-.496 1.897-.992 2.599-.714z" style="fill:#4063b8;fill-opacity:1;fill-rule:nonzero;stroke:none;stroke-width:1.33333" transform="translate(-690.256 -658.16)"/><path d="M736.33 790.922c3.753.616 8.23.21 10.296 3.646 5.367 2.998 11.947 3.427 15.397 8.718 6.752 4.855 13.048 8.657 20.746 13.016 3.547-1.209 5.842 2.751 8.648 3.863 6.58.43 13.596 3.21 19.21 5.435 7.982.986 16.421 3.022 23.665 6.33 1.669-1.518 3.774-.684 5.65-.375 5.197-1.427 10.564 1.571 15.986.67 12.952-.968 25.203-2.215 37.699-4.235 4.723-1.179 9.899-1.306 14.412-4.312 2.826-.187 6.144-1.923 9.652-.532 1.896-.992 4.04-2.758 6.144-1.923.702.278.455 1.052 1.631 1.082.55-5.448 6.182-4.523 9.729-5.733 2.104.835 4.892 3.247 6.58.43.493-1.549 1.44-2.044.284-3.374l-1.403-.557c1.194-1.27 4.531-4.305 6.864-2.945.683 1.578 1.138 2.63 2.787 2.412 1.195-1.27 3.793-1.983 5.424-.9-6.903 5.544-14.924 7.16-21.599 13.23-2.142 1.766-3.717-3.216-5.631-.925-.55 5.448-5.5 6.102-8.819 7.838-2.123.464-5.215 2.726-6.827.345-1.478 4.643-5.973 6.348-9.519 7.558-1.84-2.909-4.684-1.42-6.352.097-4.077 5.358-9.899 1.306-14.412 4.312-3.546 1.21-8.022 1.615-10.885 4.402l-.474.248c3.262 2.165 6.58.43 10.126-.78 10.392-2.854 21.22-3.357 31.403-8.037 9.216-2.886 19.134-5.492 28.369-9.677 5.935-3.749 12.78-5.394 18.488-9.668 4.002-.158 7.34-3.194 11.094-2.577 2.845-1.488 4.74-2.48 7.339-3.193.682 1.578-.038 2.6-1.46 3.344-2.143 1.766-5.67 1.674-7.13 5.018-3.319 1.736-7.112 3.72-8.591 8.363-.702-.278-1.176-.03-1.65.218l.455 1.052c4.665 2.72 6.922-6.845 10.62-2.328 2.844-1.488 5.935-3.75 8.097-6.816 1.65-.217 2.598-.713 4.001-.157 6.201-5.823 14.696-7.686 21.599-13.23.702.277 1.65-.218 2.105.834.228.525-.493 1.547-.967 1.795-10.923 7.004-18.584 16.17-29.26 22.398-1.252 5.17-6.353.097-7.605 5.268-.966 1.795-4.038 2.757-1.952 4.89.455 1.053-.267 2.075-.74 2.323-4.93-.647-5.044 7.153-10.202 5.98-3.603 5.11-10.45 6.755-15.683 10.782-8.552 5.764-18.489 9.67-27.97 14.628-4.495 1.705-9.728 5.733-14.659 5.086-2.882 4.087-7.509-1.233-9.918 2.607-2.18 4.365-6.636 3.47-10.391 2.854-2.105-.834-4.665-2.72-6.58-.429-.74 2.322-2.864 2.788-4.514 3.006-2.597.713-4.873-4.548-7.983-.985-.057 3.9-4.058 4.057-6.883 4.244-4.419-3.494-8.932-.489-13.407-.083-5.405-.399-10.108-.52-15.493-2.22-6.883 4.246-13.142-2.157-19.514-.76-6.086-1.977-11.984-.827-17.824-3.578-3.793 1.983-7.244-3.307-11.037-1.324-6.068-3.277-13.615-1.91-18.489-6.456-11.49-2.376-21.75-8.622-32.275-12.793-1.346-4.456-7.263-2.007-8.609-6.463-1.157-1.33-2.788-2.413-4.19-2.969-.74 2.322-1.878-.308-3.053-.338.018-1.3-2.58-.586-1.84-2.909-.91-2.104-2.787-2.412-3.944-3.742-.209-1.827-2.807-1.113-1.84-2.909-3.034-1.638-3.205-6.063-5.764-7.95-1.119-3.93-4.817-8.447-2.162-13.06-.17-4.427-2.693-8.913.645-11.949 3.584-3.809 8.78-5.237 12.364-9.046 2.597-.713 5.65-.375 6.864-2.945.531-4.148 2.257-9.565 6.75-11.27.02-1.301 1.442-2.045 2.618-2.015 5.177-.127 10.392-2.854 15.758.145m206.034 50.284c-.475.248-1.196 1.27-.968 1.795.227.526 1.175.03 1.403.556 1.65-.217 3.546-1.209 4.04-2.757-1.138-2.63-2.826.188-4.475.406z" style="fill:#4063b8;fill-opacity:1;fill-rule:nonzero;stroke:none;stroke-width:1.33333" transform="translate(-690.256 -658.16)"/><path d="M971.832 840.563c1.147-1.023 3.048-1.649 4.023-1.624-.74 2.321-3.242 4.6-6.058 4.136.954-.499 1.109-1.687 2.035-2.512z" style="fill:#4063b8;fill-opacity:1;fill-rule:nonzero;stroke:none;stroke-width:1.33333" transform="translate(-690.256 -658.16)"/><path d="M837.4 658.337c-43.123-2.884-80.42 29.737-83.304 72.86-.972 14.537 2.091 28.412 8.232 40.53a6.8 6.8 0 0 0 .285.505c.606 1.24 1.27 2.199 2.21 3.532 1.861 4.322 3.625 5.402 4.739 7.71.825.756 2.894 4.53 5.907 5.954.592.958 1.573 1.677 3.494 3.598 1.696 1.427 2.402 1.345 2.786 2.497.368.375 1.72 1.818 2.118 1.757.763.35 1.634.918 2.096 1.21.648-.525.8.821 1.61.481.05-.084-.25-1.022-.285-1.156-.33-.284-.464-.906-1.046-.726-1.28-1.136-1.527-1.196-2.573-2.579-1.01-1.25-1.918-1.469-1.11-3.078 1.03-1.342 1.301-1.085 2.845-1.038 1.102.033 2.932.993 4.729 2.155.4.552 2.138 1.929 2.719 1.75.11.313.42-.613.634-.556l-.63-.858c-1.87-1.92-3.55-2.396-2.773-5.496.79-1.347.213-1.07 1.101-1.929 2.724-1.023 5.804-.694 7.8.343.697.285 1.513.578 2.203.983.348.142.959-.055 1.307.087.222.254.69.405.92.54.808.412 1.76.476 2.432 1.118 1.126 1.03 2.53 1.482 3.52 2.742.221.254.475.032.704.167.563.516 1.269.682 1.704 1.309.46.27 1.181.198 1.641.467.111.127.095.365.333.381 1.054.31 2.005.373 2.925.912.46.27.895.896 1.6 1.063-.008.118.095.364.214.372 1.53.341 2.67 1.134 4.066 1.705.348.143.8.53 1.26.8 1.395.572 2.964.319 4.382.533.595.04 1.427.095 1.55.668 1.105.703 2.31.545 3.237.965.222.254.563.516.8.532 1.87.602 3.702.009 5.438.84 1.165.437 2.703.66 4.05.152.61-.198 1.434-.023 2.029.017 3.21.214 6.507.912 9.78.176-.102-.246.262-.341.16-.586.72-.071 1.307.087 2.036-.103.483-.087 1.102-.404 1.594-.61.507-.444 5.52-.001 5.45-.722.714.441 3.178-1.597 4.042-1.408 1.941-1.397 8.706-3.841 9.093-4.266 5.052-3.557 15.925-11.022 21.928-21.347 5.104-6.942 10.197-17.334 10.878-31.65 2.883-43.122-29.738-80.42-72.86-83.303z" style="fill:#f14f30;fill-opacity:1;fill-rule:nonzero;stroke:none;stroke-width:1.33333" transform="translate(-690.256 -658.16)"/><path d="M797.359 796.056c-1.517-.515-.488-.072-2.334-.103-.35 1.274 1.869 1.21 1.79 2.434l1.329.18c.755.28 1.415.667 2.103 1.114l1.707.157-.443-1.714c-.617.004-3.687-2.578-4.152-2.068zM813.087 803.13c-.832-.345-1.493-1.214-2.54-1.077l-1.576-.776c-.57-.303-1.573-.122-2.01-.163-.35-.13-.61.178-.477.483.66.695 1.39 1.429 2.218 1.206.571.65.675.815 2.513 1.43 2.19.329.904-.228 1.516-.189 3.32.952.313-.74.356-.914zM822.552 806.872l-.774-.25c-.281-.1-.73.05-.932.06-.169-.036-.268.122-.187.252.349.276.396 1.021.76.863.306.261.365.33 1.248.488 1.026.004.736-.623 1.02-.645.567.18.093-.36.1-.443-.404-.103-.764-.457-1.235-.325zM790.12 800.531l-.197.337c1.092.685 2.358 1.383 3.317 2.103 1.13-2.506-2.234-1.287-3.12-2.44z" style="fill:#f14f30;fill-opacity:1;fill-rule:nonzero;stroke:none;stroke-width:1.33333" transform="translate(-690.256 -658.16)"/></svg>