<svg xmlns="http://www.w3.org/2000/svg" width="686" height="758" overflow="hidden"><defs><clipPath id="a"><path d="M35-1h686v758H35z"/></clipPath></defs><g clip-path="url(#a)" transform="translate(-35 1)"><path fill="#063B94" fill-rule="evenodd" d="M586.091.068c33.707.897 63.139 10.602 86.115 30.052 96.219 81.669 42.6 303.458-119.905 495.609-17.764 21.076-36.35 40.834-54.936 59.44h152.472v95.335H467.595V400.592h-68.259v267.234C275.32 755.915 151.468 783.248 83.867 725.784c-96.384-81.669-42.6-303.458 119.905-495.609 7.566-9.056 15.461-17.947 23.356-26.51H73.998v-95.334h182.078v.021h.373v66.637h-.044v200.246h68.423V112.118C417.1 38.764 511.938-1.902 586.091.068Z"/></g></svg>