<svg xmlns="http://www.w3.org/2000/svg" width="780.152" height="482.63" viewBox="0 0 206.41521 127.69586"><path fill="#00652E" d="m157.572 65.382-3.493-1.233.287-2.18c6.418.604 12.535 2.858 17.712 6.526a30.047 30.047 0 0 1 3.303 3.605c3.652 6.68 2.697 14.794-2.434 20.523-2.926 3.694-6.566 6.8-10.728 9.186a73.893 73.893 0 0 1-11.553 5.82 144.232 144.232 0 0 1-34.728 8.543 186.22 186.22 0 0 1-43.951.216c-14.992-1.372-29.619-5.311-43.167-11.666-5.743-2.82-10.9-6.603-15.226-11.192-3.426-3.546-5.37-8.177-5.498-13.017.257-4.935 2.274-9.655 5.698-13.345a43.456 43.456 0 0 1 10.726-8.632c5.868-3.356 12.116-6.035 18.597-8.067L23.993 78.21c-1.127 1.247-1.728 2.845-1.67 4.486a6.273 6.273 0 0 0 2.07 4.332c5.58 5.534 12.453 9.736 20.031 12.247a111.435 111.435 0 0 0 20.6 5.2 177.49 177.49 0 0 0 55.175.307 139.296 139.296 0 0 0 24.813-6.466 56.068 56.068 0 0 0 14.858-8.754 20.728 20.728 0 0 0 4.318-5.382c1.755-3.226 2.076-6.98.963-10.487-1.153-3.455-3.683-6.353-7.051-8.046a11.52 11.52 0 0 0-.528-.264m-13.881-12.415L106.274.874a2.546 2.546 0 0 0-2.15-.865c-.826.07-1.571.517-1.975 1.208L86.932 21.565l36.028 48.148-4.71 3.824h.509l-44.506-60.3c-.357-.688-1.063-1.154-1.847-1.24-.804-.092-1.592.195-2.11.788L46.543 46.52a115.82 115.82 0 0 0-26.06 10.502 54.805 54.805 0 0 0-10.898 7.804 34.374 34.374 0 0 0-7.757 10.107C-1.58 82.587-.151 91.435 5.496 97.73c3.027 3.85 6.757 7.152 10.982 9.768a106.33 106.33 0 0 0 16.995 8.639c16.998 6.463 34.994 10.184 53.262 11.054 22.784 1.49 45.689-.311 67.925-5.38 12.392-2.735 24.179-7.49 34.88-14.072a49.428 49.428 0 0 0 12.216-11.048c2.973-3.815 4.613-8.41 4.657-13.136a18.903 18.903 0 0 0-1.643-8.008 26.515 26.515 0 0 0-4.541-7.136c-3.337-4.008-7.423-7.402-12.035-10.012a96.24 96.24 0 0 0-28.006-11.52l-22.852-33.433c-.81-1.122-2.199-1.727-3.617-1.642-1.4.102-2.677.913-3.317 2.139l-5.585 8.17 21.217 29.086-2.343 1.769"/></svg>