<svg xmlns="http://www.w3.org/2000/svg" width="748" height="758" overflow="hidden"><defs><clipPath id="a"><path d="M4-1h748v758H4z"/></clipPath></defs><g fill-rule="evenodd" clip-path="url(#a)" transform="translate(-4 1)"><path fill="#E60012" d="M436.641 8.694c0 2.707-2.651 2.443-4.176 3.368.663-.198.995.33.597.528-.994.462-2.651-.198-3.115.925-.398.99-.796 2.047-1.591 2.509-2.85 1.453-5.236 3.434-7.754 5.283-2.585 1.915-4.64 4.755-6.297 7.727-.132.264.597.924.464 1.255-.662 1.585-3.247 1.65-3.645 2.84-.597 1.848-2.386 2.047-2.916 3.301-.266.595.265 1.585.265 1.981-.066 2.906-4.043 2.84-5.634 4.822-.662.858.862 1.188 1.193 1.915-2.386.462-3.048 2.773-4.573 4.226-.597.595.199 2.312-.398 3.038-3.711 4.887-5.898 9.576-5.699 15.717.066 1.982-2.718 3.303-4.839 4.822-1.126.792-1.126 2.31-.53 3.17 1.723 2.509 2.585 4.886 1.657 7.462-.663 1.915-2.784 2.51-4.971 3.83-.861.528-2.12 2.576-1.524 4.293.994 2.905 4.772 3.896 5.567 6.274 1.392 4.094-.729 9.377 1.06 13.076 3.911 7.99 6.496 16.377 6.429 25.292 0 .859 1.326 1.85 2.453 1.916 4.308.132 7.224 5.877 12.195 2.84-1.458-.133-.795.924-.597 1.32 1.79 3.17 3.646 6.34 6.363 8.387 4.308 3.302 9.875 5.284 12.792 9.972 3.711 5.878 12.128 7.727 18.955 10.039 5.899 2.047 13.123-.529 19.287 1.254 2.783.793 5.169 3.963 8.351 4.491 4.705.792 9.478.33 14.183-.066 4.176-.33 7.622-3.302 12.195-3.434 2.585-.066 4.838-2.708 7.556-3.434 3.711-1.057 8.417 1.453 11.068.264 6.098-2.84 11.334-10.104 14.647-16.312 2.122-3.962 8.617-4.226 11.202-8.651 1.722-2.906 1.259-6.802 2.717-9.774 1.789-3.764 6.694-5.944 7.887-9.774 2.651-8.189 5.037-15.982 7.489-24.303.796-2.707 1.922-7.198-.066-10.434-2.717-4.623.199-11.293-1.193-16.972-1.127-4.623-5.634-7.529-6.827-12.284-1.192-4.754 1.79-9.51.199-14-1.59-4.557-2.651-9.444-6.561-12.812-.862-.726-2.121-.99-3.314-.792.265-2.576-2.121-3.83-3.513-4.359-3.38-1.255-4.441-5.019-6.893-6.736-4.506-3.17-10.339-2.311-15.31-5.085-2.187-1.189-1.259-4.359-3.446-5.283-3.646-1.651-7.092-3.764-10.406-5.746-6.362-3.83-13.72-3.236-20.943-4.358-7.556-1.189-14.847.792-22.336.132-2.121-.198-3.645-2.708-6.097-2.312-4.773.859-9.147 1.915-13.057 5.085-2.453 1.982-6.098-.065-8.683 2.18.199.198.597.462.597.66.066.33-.464.528-.464.727Z"/><path fill="#004098" d="M525 229c-173.686 70.157-295.537 214.04-344 381h149.554C344.636 468.167 410.091 331.028 525 229Z"/><path fill="#004098" d="M525 229c-173.746 43.982-309.75 159.965-383.313 309H8c99.586-183.347 293.792-309 517-309ZM608 164C482.487 271.81 403 431.507 403 610h147.071C508.212 455.002 532.679 295.305 608 164Z"/><path fill="#004098" d="M607.804 164c-43.411 117.551-49.481 249.554-12.535 374H729c-81.611-110.058-122.449-241.466-121.196-374Z"/><path fill="#008842" d="M752 756c-109.694-67.439-238.984-105-377.409-105C239.012 651 112.172 690.218 4 756h748Z"/></g></svg>