<svg xmlns="http://www.w3.org/2000/svg" width="758" height="676" overflow="hidden"><defs><clipPath id="a"><path d="M-1 40h758v676H-1z"/></clipPath></defs><g fill-rule="evenodd" clip-path="url(#a)" transform="translate(1 -40)"><path fill="#004EA2" d="M756 356.776C743.869 180.565 579.281 41 378 41 176.645 41 11.981 180.677 0 357l148.152-138.182s29.017-35.601 58.745-1.494l38.713 40.083 98.169-99.443s31.226-43.035 74.395 0l89.258 94.998 40.211-38.59s34.184-37.132 71.399 0L756 356.776Z"/><path fill="#094" d="M752 429.08 597.973 265.388c-17.838-26.734-34.179-1.495-34.179-1.495L462.754 364.92c-17.837 19.293-34.178 5.945-34.178 5.945-21.539-21.537 0-38.624 0-38.624l40.124-40.119-71.348-83.192c-15.594-15.592-29.692 0-29.692 0l-144.155 144.1c-31.187 31.183-46.032 11.89-46.032 11.89-21.54-21.537 4.449-41.615 4.449-41.615l25.242-26.734-17.837-23.78c-11.892-11.89-22.287 0-22.287 0L4 428.744c22.997 136.473 137.91 246.137 286.778 277.432 5.197-76.312-14.921-132.509-28.532-160.888-15.182 2.916-33.506-3.777-46.856-18.77-18.248-20.564-20.118-48.681-4.188-62.889 15.968-14.171 43.677-9.011 61.963 11.553 14.509 16.377 18.51 37.39 11.517 52.495 15.482 30.062 40.498 93.961 33.655 183.248 13.836 1.981 27.896 3.327 42.219 3.888V511.002c-13.5-7.815-23.11-27.669-23.11-51.038 0-30.173 16.005-54.626 35.749-54.626 19.744 0 35.711 24.453 35.711 54.626 0 23.369-9.61 43.223-23.072 51.038V715a441.327 441.327 0 0 0 35.375-2.094c-7.404-90.371 17.912-155.018 33.506-185.266-6.956-15.105-2.992-36.156 11.555-52.495 18.248-20.565 45.995-25.724 61.925-11.554 15.967 14.171 14.097 42.325-4.189 62.89-13.312 14.993-31.673 21.686-46.817 18.77-13.799 28.752-34.328 86.108-28.308 164.028C605.526 682.882 728.03 570.376 752 429.08Z"/></g></svg>