<svg xmlns="http://www.w3.org/2000/svg" width="758" height="624" overflow="hidden"><defs><clipPath id="a"><path d="M-1 66h758v624H-1z"/></clipPath></defs><g fill-rule="evenodd" clip-path="url(#a)" transform="translate(1 -66)"><path fill="#0B318F" d="M25.307 581.6c74.944 129.839 293.632 143.913 488.429 31.518C708.533 500.723 805.684 304.28 730.64 174.441c-74.846-129.84-293.534-144.013-488.331-31.519C47.512 255.317-49.638 451.761 25.307 581.6ZM442.46 100.105l175.763 259.678H489.647v36.871h186.767v.099h.099a5.119 5.119 0 0 1 5.155 5.154 5.113 5.113 0 0 1-3.767 4.955l-.099.099s-89.815 24.581-188.254 86.13v.496l-.397-.198c-61.859 38.654-126.989 91.878-175.664 162.943L137.823 396.654H284.54c5.849-11.795 12.59-24.184 20.422-36.871H79.731v-.099h-.1a5.12 5.12 0 0 1-5.154-5.154 5.114 5.114 0 0 1 3.767-4.955l.099-.1c-.198 0 237.92-65.018 364.117-249.37Z"/><path fill="#FFF" d="m678.138 407.261.099-.099a5.092 5.092 0 0 0 3.763-4.933c0-2.861-2.277-5.13-5.149-5.13h-.099V397H490v96c98.426-61.27 188.138-85.739 188.138-85.739ZM272.459 494.471s2.08-9.688 7.228-25.307c-8.515 3.065-17.228 6.525-26.139 10.578 0 0 7.921-36.181 30.892-82.742H138l175.55 259C362.066 585.22 427.216 532.135 489 493.483c-6.436-3.559-96.042-51.207-216.541.988Z"/><path fill="#00A73C" d="M77.768 349.779A5.12 5.12 0 0 0 74 354.741c0 2.877 2.28 5.16 5.156 5.16h.1V360H304.65c32.922-53.191 84.684-110.847 164.112-142.603v27.886c6.644-3.077 13.486-6.153 20.626-8.833V360H618L442.286 100C316.053 284.58 77.867 349.68 77.867 349.68l-.099.099Z"/><path fill="#0B318F" d="M469.305 244.821v219.048s-79.201-35.187-190.042 4.757C274.09 484.386 272 494 272 494c120.99-52.432 211.035-4.559 217.602-.991.299.099.398.198.398.198V236c-7.064 2.775-13.929 5.749-20.695 8.821Z"/><path fill="#FFF" d="M280.022 469.365C390.243 429.308 469 464.594 469 464.594V217c-79.252 31.807-130.9 89.555-163.748 142.831-7.817 12.723-14.643 25.147-20.382 36.975C261.915 443.621 254 480 254 480c8.707-3.976 17.414-7.554 26.022-10.635Z"/></g></svg>