<svg xmlns="http://www.w3.org/2000/svg" width="758" height="552" overflow="hidden"><defs><clipPath id="a"><path d="M-1 102h758v552H-1z"/></clipPath></defs><g fill-rule="evenodd" clip-path="url(#a)" transform="translate(1 -102)"><path fill="#F69320" d="M446.591 442.565c-22.839 0-36.755 18.357-36.755 55.072v114.404c0 23.192 2.456 31.47 12.852 41.959H336c10.805-10.489 14.898-21.471 14.898-41.959V444.286c0-19.668-3.274-31.469-12.442-43.27h71.298v34.501C429.646 409.702 456.578 397 484 397v79.083c-4.748-21.307-21.365-33.518-37.409-33.518Z"/><path fill="#F69320" d="M618.515 570.934c-41.27 0-75.498-59.791-75.498-153.292 0-110.397 28.987-161.494 72.632-161.494 48.967 0 70.994 66.927 74.679 158.459 0 101.129-27.759 156.327-71.813 156.327ZM617.614 229C538.431 229 478 307.656 478 417.56 478 526.89 537.203 598 615.977 598 689.018 598 756 518.279 756 404.847 756 299.044 702.939 229 617.614 229Z"/><path fill="#EB2127" d="M261 400.248c-10.177 12.761-13.871 25.44-13.871 49.899v85.156c0 18.324 1.642 23.314 4.515 34.684 0 0-51.544 26.013-108.012 26.013C57.699 596 0 521.56 0 425.198 0 326.872 46.619 231 141.58 231c35.621 0 58.849 10.552 76.084 11.207 11.327.409 23.31-3.6 23.31-3.6v91.21s-2.134-3.681-4.35-10.553c-6.402-19.387-26.264-60.37-77.726-60.37-49.902 0-90.119 51.536-90.119 150.925 0 106.015 35.621 155.996 81.009 155.996 21.668 0 33.569-10.225 33.569-10.225V450.065c0-26.994-3.694-38.692-14.774-49.899H261Z"/><path fill="#EB2127" d="M458 355.336h-72.292v-30.62C364.538 350.574 333.356 361 300.123 361c-49.89 0-70.24-28.486-70.24-87.099V145.755c0-24.135-4.103-32.426-12.883-43.755h71.882v162.46c0 47.285 13.211 64.114 43.9 64.114 26.422 0 53.337-14.859 53.337-66.495V145.755c0-19.702-3.283-31.113-12.883-43.755h71.881v211.305c0 22.821 3.365 31.523 12.883 42.031Z"/></g></svg>