<svg xmlns="http://www.w3.org/2000/svg" width="761" height="531" overflow="hidden"><defs><linearGradient id="b" x1="288.642" x2="68.3585" y1="396.708" y2="332.292" gradientUnits="userSpaceOnUse" spreadMethod="reflect"><stop offset="0" stop-color="#F48120"/><stop offset="0.4" stop-color="#FCB813"/><stop offset="1" stop-color="#FCB813"/></linearGradient><linearGradient id="c" x1="470.429" x2="690.571" y1="397.314" y2="331.687" gradientUnits="userSpaceOnUse" spreadMethod="reflect"><stop offset="0" stop-color="#F48120"/><stop offset="0.4" stop-color="#FCB813"/><stop offset="1" stop-color="#FCB813"/></linearGradient><linearGradient id="d" x1="338.861" x2="185.139" y1="354.275" y2="171.725" gradientUnits="userSpaceOnUse" spreadMethod="reflect"><stop offset="0" stop-color="#F48120"/><stop offset="0.4" stop-color="#FCB813"/><stop offset="1" stop-color="#FCB813"/></linearGradient><linearGradient id="e" x1="382.157" x2="376.843" y1="327.218" y2="109.782" gradientUnits="userSpaceOnUse" spreadMethod="reflect"><stop offset="0" stop-color="#F48120"/><stop offset="0.4" stop-color="#FCB813"/><stop offset="1" stop-color="#FCB813"/></linearGradient><linearGradient id="f" x1="426.469" x2="567.532" y1="359.017" y2="166.983" gradientUnits="userSpaceOnUse" spreadMethod="reflect"><stop offset="0" stop-color="#F48120"/><stop offset="0.4" stop-color="#FCB813"/><stop offset="1" stop-color="#FCB813"/></linearGradient><linearGradient id="g" x1="746.505" x2="287.495" y1="401.093" y2="662.907" gradientUnits="userSpaceOnUse" spreadMethod="reflect"><stop offset="0" stop-color="#10B0E6"/><stop offset="0.3" stop-color="#10B0E6"/><stop offset="1" stop-color="#006EB6"/></linearGradient><linearGradient id="h" x1="12.8123" x2="359.188" y1="400.802" y2="584.198" gradientUnits="userSpaceOnUse" spreadMethod="reflect"><stop offset="0" stop-color="#98C93C"/><stop offset="0.3" stop-color="#98C93C"/><stop offset="1" stop-color="#0DB04B"/></linearGradient><clipPath id="a"><path d="M-1 110h761v531H-1z"/></clipPath></defs><g fill-rule="evenodd" clip-path="url(#a)" transform="translate(1 -110)"><path fill="url(#b)" d="M153.318 364.73c-.764-.069-1.251-.758-1.181-1.448.069-.758.764-1.24 1.529-1.172l128.639 16.13c-8.618-21.575-36.208-51.56-48.092-60.452 0 0-6.95-5.239-19.598-4.757-30.093 1.241-100.146 1.379-125.234 3.998-7.298.896-13.483 3.102-15.15 8.617-1.808 5.928 7.575 16.957 8.825 18.404l14.456 16.475c73.945 84.165 145.666 50.389 179.372 39.842 2.85-.896 5.143-2.274 6.116-4.204L153.318 364.73Z"/><path fill="url(#c)" d="M684.773 325.637c-1.598-5.51-7.851-7.715-15.145-8.61-25.012-2.618-95.112-2.756-125.195-3.996-12.644-.482-19.592 4.753-19.592 4.753-11.95 8.887-39.462 38.852-48.077 60.413l128.599-16.119c.764-.069 1.389.413 1.528 1.171.07.757-.417 1.377-1.181 1.515h-.069L476 396.176c.973 1.929 3.265 3.306 6.114 4.202 33.765 10.539 105.463 44.293 179.385-39.816l14.59-16.601c1.667-2.067 10.421-12.537 8.684-18.324Z"/><path fill="url(#d)" d="M315.268 236.91c-22.659-16.784-48.713-36.551-92.505-58.884-13.858-7.005-26.955-9.017-32.082-4.924-5.059 4.092-7.068 8.669-.624 30.239 30.004 101.054 39.704 103.828 45.317 108.613 9.562 8.185 61.185 46.955 85.922 42.724l-54.741-82.881c-.485-.625-.346-1.457.208-1.873.624-.485 1.455-.347 1.871.208l65.62 73.172c11.294-27.535-5.267-96.268-18.986-106.394Z"/><path fill="url(#e)" d="M431.634 232.026c-6.831-26.147-14.697-56.454-33.326-98.968-4.554-10.334-10.211-18.102-15.11-21.014-2.898-1.665-5.382-.971-6.417-.417-5.313 2.566-11.384 10.611-16.076 21.431-18.698 42.514-26.564 72.821-33.326 98.968-3.794 14.633 21.596 80.381 44.02 93.974l6.693-121.508c0-.832.69-1.387 1.38-1.387s1.38.555 1.38 1.387L387.614 326c22.355-13.593 47.745-79.341 44.02-93.974Z"/><path fill="url(#f)" d="M568.319 173.131c-5.127-4.159-18.224-2.079-32.082 4.922-43.723 22.321-69.847 42.077-92.436 58.852-13.789 10.121-30.35 78.817-19.055 106.475l65.55-73.201c.485-.624 1.317-.694 1.94-.208.555.485.693 1.247.208 1.871l-54.81 82.837c24.737 4.229 76.429-34.59 85.992-42.701 5.612-4.783 15.244-7.556 45.317-108.554 6.444-21.628 4.435-26.203-.624-30.293Z"/><path fill="url(#g)" d="M757.332 533.6c-17.617-21.168-55.901-75.79-108.542-103.344-16.576-8.675-37.105-8.259-57.842-5.483-3.953.555-12.068 2.082-12.207 2.082-132.677 30.053-263.898 145.195-300.101 201.83 0 0-5.687 8.883-2.844 11.868 2.22 2.429 14.495-5.83 14.495-5.83 207.928-137.699 418.145-101.748 462.047-95.571 0 0 5.132.903 6.311-.694 1.041-1.457-.485-3.956-1.317-4.858Z"/><path fill="url(#h)" d="M369.673 508.234c-17.411-16.929-91.01-64.122-202.762-81.326-27.608-4.215-55.078-2.004-75.056 12.299-40.441 29.02-82.617 77.249-91.08 93.556 0 0-1.595 2.833-.208 4.491 1.665 2.004 5.133 1.313 5.133 1.313 141.094-44.36 287.738 4.353 313.543 20.521.832.484 3.885 2.419 7.422-1.451 8.325-8.637 34.337-32.613 43.563-40.697 4.162-3.593-.277-8.361-.555-8.706Z"/></g></svg>