<svg xmlns="http://www.w3.org/2000/svg" width="758" height="644" overflow="hidden"><defs><clipPath id="a"><path d="M-1 56h758v644H-1z"/></clipPath></defs><g fill-rule="evenodd" clip-path="url(#a)" transform="translate(1 -56)"><path fill="#5AB651" stroke="#094" stroke-miterlimit="8" stroke-width="2.19906" d="M1 400.074c-.074 58.08 51.603 148.483 193.713 139.258C200.25 609.441 237.162 698 375.581 698c128.674 0 175.257-88.559 175.331-166.048 0 0 201.169 7.38 203.088-131.952l-753 .074Z"/><path fill="#3D62AD" stroke="#584C9D" stroke-miterlimit="8" stroke-width="2.19906" d="M754.828 400c3.695-103.479-51.733-180.128-206.933-167.193C547.895 162.588 497.492 58 376.066 58 250.946 58 195 149.653 194.926 227.263 194.926 227.263 1 218.911 1 400h753.828Z"/><path fill="#FFF" stroke="#FFF" stroke-miterlimit="8" stroke-width="2.19906" d="M272.144 293.727s41.826 12.345 39.318 56.697c0 0-118.028 49.304-120.462 167.576 0 0 20.876-27.128 67.645-41.913 0 0 70.079-19.736 120.462-91.143 0 0 28.253 19.737 23.384 81.312 0 0 72.513-16.04 106.963-87.447 0 0-71.333 2.439-78.71-24.615 0 0 28.253-14.784 55.325-66.528 0 0 26.409-43.096 87.931-57.88 0 0-114.929-25.872-205.958 80.056 0-.148-56.58-56.771-95.898-16.115Z"/><path fill="#FFF" d="M9 438h739l-2.573 7.482-.266.518H11.34ZM39 488h673l-5.12 4.08-4.963 2.92H45.536l-.572-.454ZM199 566h349l-1.779 8H201.004ZM.078 397h755.847l.001 2.418H756l-.307 5.582H.621l-.547-5.501H0Z"/><path fill="#FFF" d="M117.754 404.898 16.053 445.749l-2.751-6.849 101.701-40.851ZM245.472 399.68l4.406 4.287-126.826 130.335-8.166-2.191L243.751 399.68ZM346.175 399.67l4.418 1.818-104.492 254.007-5.632-5.709L343.36 399.67ZM406.205 399.664l108.631 240.294-3.039 3.892-2.255 2.315L399.464 402.67l6.65-3.006ZM510.062 399.654l149.27 115.732-7.211 2.56-1.138.306-147.509-114.367 3.281-4.231ZM632.585 397.576l115.455 41.323-2.487 6.949-115.455-41.323Z"/></g></svg>