<svg xmlns="http://www.w3.org/2000/svg" width="758" height="562" overflow="hidden"><defs><clipPath id="a"><path d="M-1 97h758v562H-1z"/></clipPath></defs><g fill-rule="evenodd" clip-path="url(#a)" transform="translate(1 -97)"><path fill="#083F8F" d="m276.823 319.788 14.393 24.61 59.971-101.933s9.006-16.786 27.608-16.786c0 0 16.791 0 26.976 15.65l44.357 94.066-96.542 175.049h22.179l101.34-183.463s6.565-15.565 21-14.387c0 0 15.613 0 19.78 14.976L640.309 586C711.643 534.424 756 462.528 756 382.176 756 225.679 586.862 98 378.248 98 170.139 98 1 225.679 1 382.176c0 79.132 43.137 151.659 113.292 202.604 0 0 112.114-247.029 123.519-263.772 0 0 6.607-10.812 18.601-10.812.042 0 12.626-1.178 20.411 9.592Z"/><path fill="#108852" d="M0 658h747s-136.728-88.423-368.073-89.598c0-.041-206.27-11.404-378.927 89.598Z"/></g></svg>