<svg xmlns="http://www.w3.org/2000/svg" xmlns:xlink="http://www.w3.org/1999/xlink" xml:space="preserve" x="0px" y="0px" style="enable-background:new 0 0 1061.4 1007.7" viewBox="0 0 1061.4 1007.7"><defs><path id="a" d="M254.8 174.7C133.7 276.3 52.9 403.4 19.4 528l113 97.1 370.1-.4v-38.2c0-18.6 15.2-33.9 33.7-33.9 18.8 0 34 15.2 34 33.9v38.2l282.9.4c-29.5 45.5-67.5 88.9-113.4 127.3C553.1 909 308.3 924.1 192.4 786.2c-31-36.9-49.4-80.9-56.5-128.8L13.3 553C5.8 587.3 1.9 621.2 1.9 654.3v1.2C2 740 27.1 818.5 79.4 881c152.1 181.3 477.2 158.6 726.2-50.3 86.7-72.8 152.8-158.8 195.8-247.4l-91.1-79-190-.4-26.4-23.5h-26.6v-7.6c44.2-6.7 81.1-28.2 100.3-57.4l.7-1.3c.2-.2.4-.5.4-.7 0-.9-.9-1.6-2-1.6h-.7l-.2.2c-13.6 2.5-29.9 4.2-47.3 4.2h-7.8c-23-.5-41.7-8.1-45.3-18.1l.5-.2c28.1-4 52-12.3 68.8-23.2l.5-.2c.7-.5 1.5-1.5 1.5-2.5 0-1.6-1.3-2.7-2.9-2.7h-.5c-50.3-.4-94-22.1-116.8-54.1l-.9-1.6c-25 5.4-53.4 8.5-83.5 8.5-27.7 0-54-2.5-77.5-7.2l-.5.4c-22.8 32.1-66.5 53.8-116.8 54.1h-.5c-1.6 0-2.9 1.1-2.9 2.7 0 1.1.7 2 1.5 2.5l.5.2c16.8 10.9 40.7 19.2 68.8 23.2l.5.2c-3.6 10-22.3 17.6-45.3 18.1h-7.8c-17.4 0-33.7-1.6-47.3-4.2l-.2-.2h-.5c-1.1 0-2 .7-2 1.6 0 .2.2.5.4.7l.7 1.3c19.2 29.2 56.1 50.7 100.3 57.4v7.6h-26.6L350.5 504l-201.5.4c26.8-89.3 85.5-179.1 171.5-251.4C507.1 96.3 752.1 81.3 868 219.3c58.1 69.2 72.6 163.9 48.9 260.9l94.5 80.9c69.4-159 64.1-324-30.6-436.8C911.8 42.3 807.4 2 690.5 2 549.7 2 390.9 60.5 254.8 174.7"/></defs><linearGradient id="b" x1="1.8836" x2="1058.3773" y1="502.6998" y2="502.6998" gradientUnits="userSpaceOnUse"><stop offset="0" style="stop-color:#ae2274"/><stop offset="0.1486" style="stop-color:#ae2274"/><stop offset="0.3662" style="stop-color:#b02474"/><stop offset="1" style="stop-color:#b02474"/></linearGradient><use xlink:href="#a" style="overflow:visible;fill:url(#b)"/><clipPath id="c"><use xlink:href="#a" style="overflow:visible"/></clipPath></svg>