<svg xmlns="http://www.w3.org/2000/svg" xml:space="preserve" width="493.59903" height="500" viewBox="0 0 493.59902 500"><path d="m370.28 299.085-4.205-47.72v.01-.01l-4.204 47.72c0 2.288 1.884 4.14 4.204 4.14s4.205-1.852 4.205-4.14m16.776-4.035-12.838-46.144 4.567 47.677c.415 2.246 2.608 3.726 4.886 3.3 2.288-.415 3.8-2.587 3.385-4.833m-21.96-93.598c-98.804 0-185.983 50.732-237.961 128.076 0 0 2.352-2.437 11.55-9.782 10.495-8.388 17.414-4.79 23.482-9.665 7.142-5.738 4.64-9.23 8.941-14.967 17.84-23.801 47.06-35.936 79.537-33.946 47.198 2.896 85.072 41.94 86.626 89.181 1.714 51.957-39.481 94.684-90.863 95.557 14.913 4.205 30.625 6.685 46.869 6.685 96.312 0 174.401-79.303 174.401-176.871 0-20.598-3.523-40.354-9.92-58.737-29.082-10.07-60.25-15.531-92.662-15.531m-71.82 261.773c-102.23 0-185.1-83.944-185.1-187.505 0-31.093 7.516-60.409 20.747-86.233H457.62c13.231 25.824 20.757 55.14 20.757 86.233 0 103.561-82.879 187.505-185.1 187.505m109.534-175.19-21.034-43.046 13.189 46.059c.82 2.129 3.236 3.183 5.407 2.352 2.161-.83 3.258-3.236 2.438-5.364m49.976-63.517c.66-2.225-.585-4.545-2.778-5.195l-46.953-9.527 44.569 17.585c2.193.65 4.503-.628 5.162-2.863m-6.79 11.57-44.442-17.914 40.62 25.398c2.033 1.043 4.545.202 5.599-1.863 1.054-2.065.255-4.588-1.778-5.62m-7.015 15.754-40.428-25.707 35.308 32.38c1.82 1.385 4.428 1.023 5.844-.819 1.416-1.841 1.086-4.46-.724-5.854m-9.76 14.221-35.064-32.647 28.815 38.267c1.522 1.704 4.162 1.82 5.886.266 1.725-1.554 1.884-4.194.362-5.886m-12.199 12.199-28.527-38.491 21.364 42.876c1.192 1.948 3.768 2.544 5.748 1.33 1.98-1.213 2.608-3.767 1.415-5.715m-132.493-50.882 44.569-17.585-46.954 9.527c-2.193.65-3.438 2.97-2.778 5.195.66 2.235 2.97 3.513 5.163 2.863M134.65 179.056h317.242c-2.512-4.226-5.216-8.314-8.036-12.316H142.697c-2.831 4.002-5.524 8.09-8.047 12.316m155.327 64.517 40.62-25.398-44.431 17.915c-2.044 1.032-2.842 3.555-1.788 5.62 1.064 2.065 3.566 2.906 5.599 1.863m63.389 53.01 4.566-47.677-12.827 46.144c-.425 2.246 1.097 4.418 3.375 4.833 2.278.426 4.47-1.054 4.886-3.3M152.49 154.063h281.572c-33.957-40.28-84.412-65.838-140.786-65.838-56.385 0-106.84 25.558-140.786 65.837m184.705 136.986 13.178-46.06-21.033 43.048c-.82 2.128.276 4.534 2.448 5.364 2.16.83 4.588-.223 5.407-2.352m-28.006-19.363 28.815-38.267-35.063 32.647c-1.533 1.692-1.373 4.332.351 5.886 1.725 1.555 4.364 1.438 5.897-.266m-10.9-13.167 35.308-32.381-40.428 25.707c-1.81 1.394-2.14 4.013-.724 5.854 1.416 1.842 4.035 2.204 5.844.82m24.014 24.131 21.354-42.876-28.528 38.49c-1.192 1.949-.554 4.503 1.426 5.717 1.98 1.213 4.546.617 5.748-1.33" style="fill:#ed6d00;fill-opacity:1;fill-rule:nonzero;stroke:none;stroke-width:10.6446" transform="matrix(1.33333 0 0 -1.33333 -144.236 617.633)"/></svg>