<svg xmlns="http://www.w3.org/2000/svg" width="758" height="238" overflow="hidden"><defs><clipPath id="a"><path d="M-1 259h758v238H-1z"/></clipPath></defs><g clip-path="url(#a)" transform="translate(1 -259)"><path fill="#00A3E0" fill-rule="evenodd" d="M445.71 439.175c50.822 0 92.179-40.183 92.179-89.598 0-49.414-41.357-89.577-92.179-89.577-23.611 0-46.036 8.744-63.147 24.601-5.759 5.336-6.098 14.313-.762 20.071 5.336 5.738 14.315 6.076 20.054.762 11.837-10.988 27.401-17.022 43.834-17.022 35.152 0 63.76 27.46 63.76 61.186 0 33.748-28.608 61.208-63.76 61.208h-1.123v-68.575c0-7.834-6.352-14.185-14.187-14.185-7.835 0-14.209 6.351-14.209 14.185v126.797h-16.242l-62.533-132.852a14.21 14.21 0 0 0-12.853-8.152 14.158 14.158 0 0 0-12.833 8.152l-62.554 132.852h-16.199V342.209a14.202 14.202 0 0 0-10.207-13.634c-6.056-1.757-12.557.677-15.945 5.992l-60.267 94.467-60.267-94.467c-3.367-5.315-9.889-7.749-15.945-5.992-6.056 1.778-10.228 7.325-10.228 13.634v126.84H0V496h75.428c7.433 0 13.468-6.034 13.468-13.465l.022-90.996 45.655 71.539a14.188 14.188 0 0 0 11.964 6.563c4.871 0 9.381-2.477 11.986-6.563l45.655-71.56v91.017c0 7.452 6.035 13.465 13.468 13.465h41.208a14.23 14.23 0 0 0 12.854-8.13l52.876-112.294L377.46 487.87a14.192 14.192 0 0 0 12.854 8.13h210.594c6.734 0 12.536-3.303 13.891-9.866 1.377-6.584-2.054-13.232-8.216-15.9-22.785-9.95-37.524-32.414-37.502-57.269 0-34.425 27.994-62.435 62.447-62.435 34.432 0 62.448 28.01 62.448 62.435 0 24.834-14.738 47.319-37.524 57.269a14.175 14.175 0 0 0-8.216 15.9c1.376 6.585 7.179 9.866 13.913 9.866H756v-26.972h-53.003c12.303-15.689 19.376-35.315 19.376-56.084 0-50.092-40.764-90.826-90.845-90.826-50.102 0-90.844 40.755-90.844 90.826a90.675 90.675 0 0 0 19.376 56.084H444.63v-29.853h1.08Z"/></g></svg>