<svg xmlns="http://www.w3.org/2000/svg" width="758" height="693" overflow="hidden"><defs><clipPath id="a"><path d="M-1 31h758v693H-1z"/></clipPath></defs><g fill="#008B4F" fill-rule="evenodd" clip-path="url(#a)" transform="translate(1 -31)"><path d="M317 207h16v42h-16ZM343 207h16v42h-16ZM290 207h17v42h-17ZM469.776 401.997c0-51.833-41.351-93.997-92.215-93.997-50.847 0-92.214 42.164-92.214 93.997v204.202h-95.914V480.864c-72.428 74.264-105.315 149.227-77.732 196.963 43.463 75.264 220.682 54.325 395.837-46.768A849.586 849.586 0 0 0 548 606.183h-78.224V401.997Zm-19.31 204.218h-15.753V401.997c0-32.132-25.63-58.262-57.152-58.262-31.505 0-57.135 26.13-57.135 58.262v204.202h-15.753V401.997c0-40.974 32.712-74.312 72.904-74.312 40.192 0 72.905 33.338 72.905 74.312v204.218ZM370 207h16v42h-16ZM449 207h16v42h-16ZM396 207h16v42h-16Z"/><path d="M746.303 312.349c-24.842-43.022-93.394-54.615-180.275-37.781 49.603-50.772 80.703-101.893 86.691-144.454l-71.348 9.751a69.478 69.478 0 0 0-.905-5.193l73.269-16.024c.461-14.023-2.128-26.918-7.989-38.384l-71.411 37.638a72.383 72.383 0 0 0-2.653-4.558l67.917-42.974c-7.592-10.164-17.996-18.248-30.734-24.346L560.198 99.67a63.25 63.25 0 0 0-4.05-3.383l42.202-54.662c-10.658-3.843-22.618-6.527-35.706-8.068l-21.966 53.805a65.68 65.68 0 0 0-4.956-1.81L552.59 32.62c-10.26-.73-21.14-.81-32.528-.27l-1.938 50.137c-.842-.016-1.7-.064-2.557-.064-.906 0-1.795.048-2.716.08l-2.018-49.565c-10.07.778-20.505 2.001-31.29 3.7L495.252 85.6a65.3 65.3 0 0 0-4.94 1.81l-20.203-49.168c-11.198 2.017-22.729 4.51-34.531 7.496l39.264 50.645a63.216 63.216 0 0 0-4.05 3.383L424.27 48.708c-14.708 4.034-29.797 8.798-45.125 14.245l80.179 50.502a65.129 65.129 0 0 0-2.637 4.558l-93.679-49.12c-23.333 8.94-47.189 19.47-71.205 31.54l158.785 34.366a70.882 70.882 0 0 0-.889 5.193l-185.596-24.981a954.555 954.555 0 0 0-15.931 8.973c-1.461.842-2.891 1.699-4.352 2.541 10.737 1.795 18.933 11.101 18.933 22.345 0 12.53-10.165 22.694-22.681 22.694-12.532 0-22.698-10.164-22.698-22.694 0-2.414.382-4.733 1.08-6.924C61.131 241.456-31.262 372.491 9.701 443.415c24.81 42.974 93.219 54.6 179.941 37.845V274.632H565.98V595c139.804-96.652 218.744-216.109 180.323-282.651ZM515.551 126.192c12.532 0 22.697 10.163 22.697 22.694 0 12.53-10.15 22.694-22.697 22.694-12.532 0-22.697-10.164-22.697-22.694 0-12.546 10.165-22.694 22.697-22.694Zm50.429 69.574v64.89H189.642v-85.344h100.859v20.454h174.636v-20.454h100.859v20.454Z"/><path d="M422 207h17v42h-17ZM190 481.19v.81l1-1c-.333.095-.667.095-1 .19Z"/></g></svg>