<svg xmlns="http://www.w3.org/2000/svg" width="758" height="432" overflow="hidden"><defs><clipPath id="a"><path d="M-1 162h758v432H-1z"/></clipPath></defs><g fill-rule="evenodd" clip-path="url(#a)" transform="translate(1 -162)"><path fill="#009D85" d="M486.924 228.877c54.412 39.621 47.494 244.898 43.518 313.456 12.544.755 25.029 3.734 37.454 4.667 3.499-335.342-82.623-384-82.623-384C442.869 239.621 441 349.27 441 349.27l3.539 41.27c14.135-138.049 42.385-161.663 42.385-161.663Z"/><path fill="#E8421F" d="M456.4 453.678s11.315 39.472 5.099 83.131c10.24.338 20.479.735 30.699 1.191 2.031-33.34 2.271-99.682-25.419-120.499 0 0-22.391-20.56-60.779-25.501l8.805 32.903c0-.02 39.184 6.569 41.595 28.775Z"/><path fill="#152A8C" d="M351.949 382.04s12.778 37.937 16.779 83.936c1.812 20.88 2.249 49.562 2.289 69.865 2.628 0 5.275-.02 7.902-.02 9.694 0 19.388.06 29.081.179-1.194-38.833-6.529-120.083-29.698-168.789-22.551-47.353-39.152-50.319-48.746-54.439C314.369 307.816 287 307 287 307l4.2 30.513c0-.019 48.746-11.564 60.749 44.527Z"/><path fill="#152A8C" d="M232.269 542.639c-1.225-32.981-1.185-97.051 12.05-163.632C264.072 298.217 281.494 270.177 305 236c0 0-53.669 22.22-84.464 112.915 0 0-23.23 63.093-35.536 199.085 15.684-1.216 31.447-4.444 47.269-5.361ZM0 593s169.297-40 378-40c0 0 225.862.469 378 40H0Z"/></g></svg>