<svg xmlns="http://www.w3.org/2000/svg" width="757" height="442" overflow="hidden"><defs><clipPath id="a"><path d="M-1 157h757v442H-1z"/></clipPath></defs><g fill-rule="evenodd" clip-path="url(#a)" transform="translate(1 -157)"><path fill="#EE9116" d="M728.832 563.924c-4.311-175.678-111.778-326.854-266.689-367.349-12.244-1.679-24.711-2.575-37.328-2.575C231.102 194 92 370.779 92 573.479c0 8.435.093 16.366.541 24.521h.019c-.43-7.315-.448-14.929-.448-22.319 0-132.589 72.752-249.558 180.555-294.476 41.994-29.747 92.928-49.005 152.167-48.24 168.218 2.165 297.858 149.272 297.858 339.786 0 8.435-.075 16.945-.542 25.249h6.402c.56-10.973.523-23.831.28-34.076Z"/><path fill="#EE9116" d="M140 470c.414-.576.846-1.134 1.278-1.674A302.862 302.862 0 0 1 145 457a318.642 318.642 0 0 0-5 13Z"/><path fill="#FFE600" d="M370.728 262c-34.963 0-67.985 6.916-98.245 19.537C164.742 326.408 92 443.254 92 575.704c0 7.383.019 14.989.448 22.296h5.56c.373-46.549 15.764-91.289 42.014-127.901a312.086 312.086 0 0 1 4.962-13.46c38.358-97.105 122.368-163.041 224.997-163.041 47.761 0 95.036 16.517 135.763 45.299 75.354 32.661 128.674 108.03 142.256 196.97C630.276 379.089 509.252 262 370.728 262Z"/><path fill="#009742" d="M650.937 580.849c0-15.235-1.016-30.209-2.937-44.849 1.323 13.468 1.969 27.233 1.921 41.222-.017 5.283.193 13.523.193 20.778h.759c.242-5.785.064-11.161.064-17.151Z"/><path fill="#009742" d="M649.758 577.12a359.743 359.743 0 0 0-2.221-41.385c-13.582-89.103-66.903-164.609-142.257-197.329C479.496 327.219 451.119 321 420.858 321c-68.321 0-123.619 33.822-150.858 63.685a201.367 201.367 0 0 1 37.855-3.567c3.022 0 6.026.074 9.029.224 21.008-16.155 57.985-34.121 104.72-33.841 104.814.616 204.553 99.71 204.553 231.114 0 5.976-.224 13.259-.597 19.385H650c-.019-7.302-.261-15.576-.242-20.88Z"/><path fill="#22298C" d="M532 598a97.452 97.452 0 0 0-2-9c.737 3 1.421 5.982 2 9Z"/><path fill="#22298C" d="M530.6 588.453c-9.523-52.721-44.217-99.692-92.037-125.224C414.551 450.407 387.233 443 358.141 443 265.507 443 195.075 510.646 186 598h.317c8.833-29.98 29.129-57.95 54.841-78.123 28.364-33.423 70.526-53.41 116.983-53.41 77.043 0 131.939 52.367 152.255 131.533H532c-.392-3.201-.878-6.364-1.4-9.547Z"/><path fill="#912589" d="M323.762 488c-29.081 0-58.424 12.185-82.87 31.426C215.137 539.715 194.84 567.847 186 598h23.96c24.577-53.999 59.976-84.339 114.811-84.339 57.472 0 96.627 29.554 119.503 84.339H473c-23.773-61.186-79.132-110-149.238-110Z"/><path fill="#BD2228" d="M755.959 563.844c0-218.349-165.967-407.309-377.616-405.835C163.073 159.482 0 344.749 0 563.098c0 11.58 1.027 22.601 1.998 33.883h47.25C42.453 366.735 153.626 271.09 205.844 236.237c52.348-32.131 108.709-48.988 172.5-48.988 28.937 0 56.754 3.692 83.208 10.61 154.167 40.28 261.14 190.582 265.415 365.258.261 10.2.299 22.974-.299 33.883H755.66c.504-10.741.299-22.974.299-33.156Z"/><path fill="#0082CA" d="M317.245 381.224a181.897 181.897 0 0 0-9.025-.224 201.21 201.21 0 0 0-37.834 3.569c-53.142 10.165-98.341 41.277-129.126 83.489-.429.579-.839 1.14-1.268 1.738C113.775 506.495 98.372 551.341 98 598H119.984c15.402-110.845 86.128-189.625 188.553-189.625 51.874 0 95.469 20.181 129.555 54.301 47.735 25.637 82.398 72.801 91.908 125.738-18.74-111.835-109.51-202.182-212.755-207.19Z"/></g></svg>