<svg xmlns="http://www.w3.org/2000/svg" xml:space="preserve" width="410.82385" height="500" viewBox="0 0 410.82387 499.99999"><path d="M362.12 152.14c-9.752 14.996-20.596 27.513-31.623 39.46-24.382 6.606-50.732 16.048-75.307 30.5l-8.278 5.195-8.279-5.194c-24.354-14.32-50.514-23.715-74.782-30.317-11.068-11.973-21.953-24.528-31.747-39.569 33.167 5.716 75.242 16.81 114.808 38.348 39.727-21.627 81.978-32.727 115.208-38.424" style="fill:#007147;fill-opacity:1;fill-rule:nonzero;stroke:none;stroke-width:3.16325" transform="matrix(1.33333 0 0 -1.33333 -124.038 303.06)"/><path d="M393.5 82.588c-3.24 12.064-7.428 23.54-12.315 34.432-33.85 4.688-82.678 15.614-125.996 41.084l-8.278 4.868-8.278-4.868c-43.033-25.3-91.712-36.25-125.597-40.99-4.906-10.906-9.104-22.402-12.353-34.488 34.426 3.438 92.627 13.456 146.228 42.634C300.702 95.98 359.125 85.991 393.5 82.588" style="fill:#007147;fill-opacity:1;fill-rule:nonzero;stroke:none;stroke-width:3.16325" transform="matrix(1.33333 0 0 -1.33333 -124.038 303.06)"/><path d="M399.638 49.903c-32.42 3.018-92.409 12.628-144.45 43.226l-8.276 4.869-8.28-4.869C186.946 62.737 127.106 53.051 94.544 49.967c-1.297-11.616-1.746-22.614-1.408-33 32.94 2.69 96.037 11.888 153.775 43.318 57.954-31.55 121.29-40.698 154.124-43.352.341 10.382-.101 21.37-1.398 32.97" style="fill:#007147;fill-opacity:1;fill-rule:nonzero;stroke:none;stroke-width:3.16325" transform="matrix(1.33333 0 0 -1.33333 -124.038 303.06)"/><path d="m246.91 33.023-8.281-4.869C188.149-1.53 129.889-11.462 96.86-14.784c2.42-11.54 5.922-22.14 10.316-31.847 34.947 4.023 89.371 14.525 139.733 41.941 50.527-27.504 105.137-37.984 140.07-41.98 4.396 9.7 7.898 20.29 10.318 31.82-32.908 3.258-91.295 13.127-142.11 43.004z" style="fill:#007147;fill-opacity:1;fill-rule:nonzero;stroke:none;stroke-width:3.16325" transform="matrix(1.33333 0 0 -1.33333 -124.038 303.06)"/><path d="M369.025-76.042c-32.778 5.508-75.466 16.658-113.833 39.215l-8.279 4.875h-.003l-8.278-4.875c-38.37-22.557-81.055-33.707-113.833-39.215 8.658-10.843 17.715-19.061 28.54-26.631 23.733 5.355 51.155 14.393 77.236 26.631v-71.663h32.67v71.663c26.085-12.238 53.507-21.276 77.24-26.631 10.822 7.57 19.882 15.788 28.54 26.631" style="fill:#b47d4f;fill-opacity:1;fill-rule:nonzero;stroke:none;stroke-width:3.16325" transform="matrix(1.33333 0 0 -1.33333 -124.038 303.06)"/></svg>