<svg xmlns="http://www.w3.org/2000/svg" width="838.62994mm" height="500mm" viewBox="0 0 838.62994 500"><path d="m0 0-6.932-.003.004-12.078c0-3.582 4.3-3.616 4.3-3.616l31.618.003.023 5.634-29.019-.005z" style="fill:#231f20;fill-opacity:1;fill-rule:nonzero;stroke:none" transform="matrix(.35278 0 0 -.35278 -227.325 -40.264)"/><path d="M0 0h-6.922v-31.707H0v19.136h5.082v5.569H0Z" style="fill:#231f20;fill-opacity:1;fill-rule:nonzero;stroke:none" transform="matrix(.35278 0 0 -.35278 -217.08 -49.679)"/><path d="M0 0c-4.035 0-7.313 2.298-7.313 5.138 0 2.837 3.278 5.139 7.313 5.139s7.306-2.302 7.306-5.139C7.306 2.298 4.035 0 0 0m0 16.412c-7.817 0-14.156-5.047-14.156-11.274C-14.156-1.086-7.817-6.134 0-6.134c7.814 0 14.159 5.048 14.159 11.272 0 6.227-6.345 11.274-14.159 11.274" style="fill:#231f20;fill-opacity:1;fill-rule:nonzero;stroke:none" transform="matrix(.35278 0 0 -.35278 -227.06 -43.59)"/><path d="M0 0c-4.537 0-8.219 2.683-8.219 5.997 0 3.307 3.682 5.99 8.219 5.99 4.544 0 8.227-2.683 8.227-5.99C8.227 2.683 4.544 0 0 0m22.806 18.589H3.644v3.551h17.1v5.377h-34.217v5.099h34.217v5.358l-41.314-.01V25.798c0-3.68 4.38-3.674 4.38-3.674l12.569.002v-3.535h-19.584l.002-5.283H-12.4c-2.086-2.016-3.34-4.553-3.34-7.311C-15.74-.57-8.688-5.896 0-5.896c8.699 0 15.751 5.326 15.751 11.893 0 2.758-1.258 5.295-3.349 7.311h10.4z" style="fill:#231f20;fill-opacity:1;fill-rule:nonzero;stroke:none" transform="matrix(.35278 0 0 -.35278 -203.162 -36.01)"/><path d="m0 0 .014.343H0v5.954h-6.533V0h.023v-.006c-.178-7.211-7.177-14.049-13.748-16.112l2.238-4.896c6.249 1.381 11.591 5.723 14.759 11.07 3.172-5.347 8.518-9.681 14.77-11.062l2.234 4.893C7.179-14.053.181-7.217 0 0" style="fill:#231f20;fill-opacity:1;fill-rule:nonzero;stroke:none" transform="matrix(.35278 0 0 -.35278 -185.224 -47.155)"/><path d="M19.09-2.015h2.451v-15.05H19.09z" style="fill:#231f20;fill-opacity:1;fill-rule:nonzero;stroke:none;stroke-width:.352778" transform="translate(-198.54 -32.654)"/><path d="M0 0s-19.138-6.061-30.491-21.924C-43.789-40.5-42.357-60.158-26.196-66.203c14.243-5.328 37.657 2.176 51.774 16.551C14.893-58.887.15-63.049-8.687-60.986c-12.627 2.945-14.031 18.216-2.19 35.638 5.188 7.627 11.9 13.868 18.879 18.674 0 0 14.326 9.701 25.346 6.621 0 0-15.652 6.11-33.348.053" style="fill:#00a650;fill-opacity:1;fill-rule:nonzero;stroke:none" transform="matrix(.35278 0 0 -.35278 -268.58 -53.672)"/><path d="M0 0s19.138 6.059 30.492 21.922C43.791 40.5 42.359 60.155 26.196 66.201c-14.243 5.328-37.654-2.176-51.774-16.549 10.685 9.233 25.43 13.395 34.263 11.332 12.628-2.944 14.034-18.218 2.192-35.638C5.689 17.718-1.023 11.48-7.999 6.672c0 0-14.328-9.701-25.349-6.622 0 0 15.654-6.108 33.348-.05" style="fill:#005bab;fill-opacity:1;fill-rule:nonzero;stroke:none" transform="matrix(.35278 0 0 -.35278 -254.595 -30.703)"/><path d="M0 0a.477.477 0 0 0-.043-.051c.016.016.028.033.043.051m22.877-.85C19.139 1.111 10.906.348 4.968-5.682c-6.029-6.12-6.534-11.173-1.621-13.592.588-.231 1.723-.891 1.244-2.415-.383-1.2-1.413-2.729-3.98-4.12-3.18-1.344-6.57-.766-8.24.731C-11.422-21.67-9.046-10.701.061.066-14.453-12.86-17.278-26.521-12.848-31.211c4.478-4.74 20.911-6.715 34.129 10.457 1.893 2.458 5.315 7.535 5.205 12.266-.099 4.273-1.687 6.629-3.609 7.638" style="fill:#ed1c24;fill-opacity:1;fill-rule:nonzero;stroke:none" transform="matrix(.35278 0 0 -.35278 -263.659 -48.164)"/><path d="M0 0s-20.735-6.563-33.037-23.751c-14.41-20.129-12.858-41.426 4.652-47.977 15.432-5.771 40.801 2.358 56.096 17.932C16.134-63.8.162-68.312-9.412-66.075c-13.683 3.191-15.204 19.74-2.374 38.613C-6.164-19.196 1.109-12.437 8.668-7.229c0 0 15.521 10.511 27.462 7.174 0 0-16.959 6.619-36.13.055" style="fill:#00a650;fill-opacity:1;fill-rule:nonzero;stroke:none" transform="matrix(6.52451 0 0 -6.52451 279.21 19.878)"/><path d="M0 0s20.736 6.564 33.037 23.752c14.409 20.129 12.859 41.425-4.652 47.974-15.434 5.774-40.8-2.356-56.096-17.929C-16.134 63.802-.161 68.312 9.41 66.075c13.684-3.191 15.206-19.739 2.375-38.612C6.164 19.195-1.108 12.439-8.667 7.229c0 0-15.522-10.51-27.462-7.174C-36.129.055-19.17-6.563 0 0" style="fill:#005bab;fill-opacity:1;fill-rule:nonzero;stroke:none" transform="matrix(6.52451 0 0 -6.52451 559.42 480.118)"/><path d="M0 0c-.014-.018-.035-.041-.045-.055L0 0m24.785-.92C20.735 1.205 11.815.377 5.383-6.154c-6.532-6.633-7.08-12.108-1.757-14.729.637-.248 1.868-.965 1.348-2.615-.413-1.301-1.531-2.957-4.313-4.463-3.445-1.459-7.119-.832-8.926.791C-12.376-23.479-9.802-11.594.064.074c-15.724-14.008-18.786-28.81-13.985-33.89 4.854-5.135 22.656-7.276 36.979 11.33 2.05 2.664 5.756 8.164 5.638 13.291-.105 4.629-1.829 7.181-3.911 8.275" style="fill:#ed1c24;fill-opacity:1;fill-rule:nonzero;stroke:none" transform="matrix(6.52451 0 0 -6.52451 377.81 130.228)"/><path d="m0 0-4.076-.001.002-7.103c0-2.105 2.528-2.125 2.528-2.125l18.593.001.014 3.314-17.065-.004z" style="fill:#231f20;fill-opacity:1;fill-rule:nonzero;stroke:none" transform="matrix(.35278 0 0 -.35278 -125.482 -42.844)"/><path d="M0 0h-4.072v-18.645H0v11.252h2.988v3.276H0Z" style="fill:#231f20;fill-opacity:1;fill-rule:nonzero;stroke:none" transform="matrix(.35278 0 0 -.35278 -119.458 -48.38)"/><path d="M0 0c-2.372 0-4.299 1.352-4.299 3.021 0 1.668 1.927 3.023 4.299 3.023 2.375 0 4.297-1.355 4.297-3.023C4.297 1.352 2.375 0 0 0m0 9.651c-4.596 0-8.324-2.967-8.324-6.63 0-3.66 3.728-6.628 8.324-6.628 4.597 0 8.326 2.968 8.326 6.628 0 3.663-3.729 6.63-8.326 6.63" style="fill:#231f20;fill-opacity:1;fill-rule:nonzero;stroke:none" transform="matrix(.35278 0 0 -.35278 -125.327 -44.8)"/><path d="M0 0c-2.668 0-4.832 1.576-4.832 3.527 0 1.944 2.164 3.522 4.832 3.522 2.672 0 4.841-1.578 4.841-3.522C4.841 1.576 2.672 0 0 0m13.411 10.931H2.143v2.087h10.056v3.163H-7.922v2.999h20.121v3.15l-24.295-.006V15.17c0-2.164 2.575-2.16 2.575-2.16l7.391.001v-2.079h-11.516l.001-3.107h6.353c-1.226-1.184-1.963-2.677-1.963-4.298 0-3.863 4.146-6.994 9.255-6.994 5.116 0 9.262 3.131 9.262 6.994 0 1.621-.738 3.114-1.969 4.298h6.117z" style="fill:#231f20;fill-opacity:1;fill-rule:nonzero;stroke:none" transform="matrix(.35278 0 0 -.35278 -111.274 -40.343)"/><path d="m0 0 .009.203H0v3.501h-3.842V0h.016v-.003c-.107-4.239-4.223-8.261-8.085-9.475l1.313-2.877c3.678.811 6.817 3.363 8.682 6.507 1.862-3.144 5.008-5.691 8.682-6.504l1.316 2.877C4.222-8.264.105-4.242 0 0" style="fill:#231f20;fill-opacity:1;fill-rule:nonzero;stroke:none" transform="matrix(.35278 0 0 -.35278 -100.725 -46.897)"/><path d="M101.21-6.901h1.44v-8.85h-1.44z" style="fill:#231f20;fill-opacity:1;fill-rule:nonzero;stroke:none;stroke-width:.352778" transform="translate(-198.54 -32.654)"/><path d="M0 0s-20.735-6.563-33.036-23.751c-14.41-20.128-12.858-41.426 4.651-47.976 15.433-5.772 40.802 2.358 56.097 17.932C16.135-63.8.162-68.311-9.411-66.074c-13.684 3.191-15.205 19.738-2.375 38.613C-6.164-19.197 1.109-12.438 8.668-7.229c0 0 15.522 10.511 27.462 7.174 0 0-16.958 6.619-36.13.055" style="fill:#00a650;fill-opacity:1;fill-rule:nonzero;stroke:none" transform="matrix(.35278 0 0 -.35278 -119.66 -79.555)"/><path d="M0 0s20.737 6.564 33.037 23.753c14.409 20.127 12.859 41.424-4.651 47.973C12.952 77.5-12.415 69.37-27.71 53.798-16.134 63.802-.161 68.312 9.411 66.075c13.684-3.191 15.205-19.739 2.375-38.613C6.165 19.196-1.108 12.438-8.667 7.229c0 0-15.521-10.509-27.461-7.174 0 0 16.959-6.618 36.128-.055" style="fill:#005bab;fill-opacity:1;fill-rule:nonzero;stroke:none" transform="matrix(.35278 0 0 -.35278 -104.508 -54.67)"/><path d="M0 0c-.015-.018-.036-.041-.046-.055L0 0m24.784-.921C20.734 1.205 11.815.376 5.383-6.154c-6.532-6.633-7.081-12.109-1.758-14.729.638-.25 1.868-.967 1.349-2.617-.414-1.3-1.532-2.957-4.313-4.463-3.446-1.457-7.119-.83-8.927.791C-12.376-23.479-9.802-11.595.063.073c-15.724-14.008-18.786-28.809-13.984-33.889 4.854-5.135 22.655-7.278 36.979 11.329 2.05 2.663 5.755 8.164 5.638 13.292-.105 4.627-1.829 7.179-3.912 8.274" style="fill:#ed1c24;fill-opacity:1;fill-rule:nonzero;stroke:none" transform="matrix(.35278 0 0 -.35278 -114.328 -73.589)"/><path d="M0 0s-20.735-6.564-33.037-23.752c-14.41-20.129-12.858-41.426 4.652-47.977 15.432-5.771 40.801 2.358 56.096 17.932C16.134-63.801.162-68.313-9.412-66.076c-13.683 3.191-15.204 19.74-2.374 38.613C-6.164-19.197 1.109-12.438 8.668-7.229c0 0 15.521 10.51 27.462 7.174 0 0-16.959 6.618-36.13.055" style="fill:#00a650;fill-opacity:1;fill-rule:nonzero;stroke:none" transform="matrix(.35278 0 0 -.35278 -119.186 34.533)"/><path d="M0 0s20.736 6.564 33.037 23.752c14.409 20.129 12.859 41.424-4.652 47.975-15.434 5.773-40.8-2.358-56.096-17.93C-16.134 63.801-.161 68.311 9.41 66.076c13.684-3.191 15.206-19.74 2.375-38.613C6.164 19.195-1.108 12.439-8.667 7.229c0 0-15.522-10.51-27.462-7.174C-36.129.055-19.17-6.563 0 0" style="fill:#005bab;fill-opacity:1;fill-rule:nonzero;stroke:none" transform="matrix(.35278 0 0 -.35278 -104.035 59.418)"/><path d="M0 0c-.014-.018-.035-.041-.045-.055L0 0m24.785-.92C20.735 1.205 11.815.377 5.383-6.154c-6.532-6.633-7.08-12.108-1.757-14.729.637-.248 1.868-.965 1.348-2.615-.413-1.301-1.531-2.957-4.313-4.463-3.446-1.459-7.119-.832-8.926.791C-12.376-23.479-9.802-11.594.064.074c-15.724-14.008-18.786-28.81-13.985-33.89 4.854-5.135 22.656-7.276 36.979 11.33 2.05 2.664 5.756 8.164 5.638 13.291-.105 4.629-1.829 7.181-3.911 8.275" style="fill:#ed1c24;fill-opacity:1;fill-rule:nonzero;stroke:none" transform="matrix(.35278 0 0 -.35278 -113.855 40.5)"/></svg>