<svg xmlns="http://www.w3.org/2000/svg" width="756" height="758" overflow="hidden"><defs><clipPath id="a"><path d="M0-1h756v758H0z"/></clipPath></defs><g fill-rule="evenodd" clip-path="url(#a)" transform="translate(0 1)"><path fill="#ED6C00" d="M13.603 376.678c0-201.04 163.185-364.086 364.397-364.086s364.397 163.046 364.397 364.086c0 29.309-3.476 57.967-10.212 85.322h13.037c6.302-27.355 9.778-56.013 9.778-85.322C755 168.691 586.382 0 378 0 169.835 0 1 168.691 1 376.678c0 29.309 3.477 57.967 9.778 85.322h13.038c-6.736-27.355-10.213-56.013-10.213-85.322Z"/><path fill="#ED6C00" d="M377.783 66C206.092 66 67 205.024 67 376.848c0 29.543 4.13 58.216 11.953 85.152h27.167c-8.476-26.936-13.04-55.609-13.04-85.152 0-157.27 127.573-284.781 284.92-284.781 157.347 0 284.92 127.511 284.92 284.781 0 29.76-4.563 58.216-13.039 85.152h27.166C684.653 434.847 689 406.391 689 376.848 688.783 205.024 549.474 66 377.783 66Z"/><path fill="#ED6C00" d="M378.108 142C248.289 142 143 247.22 143 376.956c0 29.939 5.644 58.577 15.847 85.044h57.312c-13.459-25.383-21.057-54.454-21.057-85.044 0-100.881 81.843-182.888 183.006-182.888 100.947 0 183.008 81.79 183.008 182.888 0 30.807-7.599 59.661-21.058 85.044h57.095C607.356 435.533 613 406.895 613 376.956 613.217 247.22 507.928 142 378.108 142Z"/><path fill="#ED6C00" d="M377.892 226C294.618 226 227 293.522 227 376.676c0 31.698 9.784 61.008 26.526 85.324h248.949C519.216 437.684 529 408.374 529 376.676 528.783 293.522 461.164 226 377.892 226Z"/><path fill="#004098" d="M36.9 513.785c9.777 0 18.466 4.298 23.68 10.959C67.967 533.984 80.132 540 93.602 540c13.686 0 25.635-6.016 33.022-15.256 5.213-6.661 13.903-10.959 23.679-10.959 9.776 0 18.466 4.298 23.68 10.959 7.387 9.24 19.552 15.256 33.022 15.256 13.686 0 25.635-6.016 33.021-15.256 5.431-6.661 13.904-10.959 23.68-10.959s18.466 4.298 23.68 10.959c7.386 9.24 19.552 15.256 33.021 15.256 13.687 0 25.635-6.016 33.022-15.256 5.214-6.446 13.252-10.744 22.593-10.959 9.342.215 17.598 4.513 22.594 10.959 7.387 9.24 19.552 15.256 33.022 15.256 13.686 0 25.635-6.016 33.021-15.256 5.214-6.661 13.904-10.959 23.68-10.959s18.466 4.298 23.68 10.959c7.387 9.24 19.552 15.256 33.021 15.256 13.687 0 25.636-6.016 33.022-15.256 5.431-6.661 13.904-10.959 23.68-10.959s18.466 4.298 23.68 10.959c7.386 9.24 19.552 15.256 33.021 15.256 13.687 0 25.635-6.016 33.022-15.256 5.431-6.661 13.904-10.959 23.68-10.959 4.344 0 8.472.86 12.165 2.364 3.042-7.951 6.083-16.116 8.69-24.281-5.431-2.579-11.731-3.868-18.466-3.868-13.686 0-25.635 6.017-33.021 15.256-5.214 6.661-13.904 10.959-23.68 10.959s-18.466-4.298-23.68-10.959C629.767 494.017 617.601 488 603.914 488c-13.686 0-25.635 6.017-33.021 15.256-5.214 6.661-13.904 10.959-23.68 10.959s-18.466-4.298-23.68-10.959C516.147 494.017 503.981 488 490.512 488c-13.687 0-25.853 6.017-33.239 15.256-5.214 6.661-13.904 10.959-23.68 10.959s-18.466-4.298-23.68-10.959C402.526 494.017 390.361 488 376.892 488c-13.687 0-25.636 6.017-33.022 15.256-5.214 6.446-13.252 10.744-22.594 10.959-9.341-.215-17.597-4.513-22.593-10.959C291.296 494.017 279.13 488 265.661 488c-13.686 0-25.635 6.017-33.021 15.256-5.214 6.661-13.904 10.959-23.68 10.959s-18.466-4.298-23.68-10.959C177.894 494.017 165.728 488 152.258 488c-13.686 0-25.634 6.017-33.021 15.256-5.214 6.661-13.904 10.959-23.68 10.959s-18.466-4.298-23.68-10.959C64.491 494.017 52.325 488 38.856 488c-7.604 0-14.773 1.934-20.856 5.372 2.39 7.521 4.997 15.041 8.038 22.347 3.694-1.289 7.17-1.934 10.862-1.934ZM686.058 574.341c-5.214 6.698-13.904 11.019-23.68 11.019s-18.466-4.321-23.68-11.019C631.312 565.05 619.146 559 605.459 559c-13.687 0-25.635 6.05-33.022 15.341-5.214 6.698-13.904 11.019-23.68 11.019s-18.466-4.321-23.68-11.019C517.691 565.05 505.525 559 492.055 559c-13.686 0-25.852 6.05-33.239 15.341-5.214 6.698-13.903 11.019-23.68 11.019-9.776 0-18.466-4.321-23.68-11.019C404.07 565.05 391.904 559 378.434 559c-13.686 0-25.635 6.05-33.021 15.341-5.214 6.482-13.253 10.803-22.594 11.019-9.342-.216-17.597-4.537-22.594-11.019C292.839 565.05 280.673 559 267.203 559c-13.686 0-25.635 6.05-33.021 15.341-5.214 6.698-13.904 11.019-23.68 11.019s-18.467-4.321-23.68-11.019C179.435 565.05 167.269 559 153.8 559c-13.687 0-25.636 6.05-33.022 15.341-5.214 6.698-13.904 11.019-23.68 11.019s-18.466-4.321-23.68-11.019c-6.083-7.563-14.99-12.748-25.418-14.477 15.207 27.657 33.89 53.369 55.615 76.272 9.994-1.945 18.467-7.13 24.332-14.477 5.214-6.698 13.904-11.019 23.68-11.019 9.777 0 18.467 4.321 23.681 11.019C182.694 630.95 194.86 637 208.329 637c13.687 0 25.635-6.05 33.022-15.341 5.431-6.698 13.904-11.019 23.68-11.019s18.466 4.321 23.68 11.019C296.097 630.95 308.263 637 321.733 637c13.686 0 25.635-6.05 33.021-15.341 5.215-6.482 13.253-10.803 22.594-11.019 9.342.216 17.597 4.537 22.594 11.019C407.328 630.95 419.495 637 432.964 637c13.687 0 25.635-6.05 33.022-15.341 5.214-6.698 13.903-11.019 23.679-11.019 9.777 0 18.467 4.321 23.681 11.019C520.732 630.95 532.898 637 546.368 637c13.686 0 25.635-6.05 33.021-15.341 5.431-6.698 13.904-11.019 23.68-11.019s18.467 4.321 23.68 11.019c6.083 7.563 15.425 12.964 25.853 14.693A368.183 368.183 0 0 0 708 560.513c-8.69 2.376-16.511 7.346-21.942 13.828ZM626.66 655.134C621.452 648.366 612.771 644 603.005 644c-9.766 0-18.447 4.366-23.655 11.134-7.379 9.388-19.315 15.501-32.987 15.501s-25.608-6.113-32.986-15.501C508.168 648.366 499.488 644 489.721 644c-9.765 0-18.446 4.366-23.654 11.134-7.379 9.388-19.532 15.501-32.987 15.501-13.672 0-25.608-6.113-32.987-15.501-4.991-6.549-13.238-10.916-22.569-11.134-9.332.218-17.579 4.585-22.57 11.134-7.379 9.388-19.315 15.501-32.987 15.501s-25.608-6.113-32.987-15.501C283.772 648.366 275.091 644 265.325 644c-9.765 0-18.446 4.366-23.654 11.134-7.379 9.388-19.315 15.501-32.987 15.501s-25.608-6.113-32.987-15.501C170.489 648.366 161.808 644 152.042 644c-9.766 0-18.446 4.366-23.655 11.134-.651.874-1.519 1.747-2.387 2.621C192.841 718.667 281.602 756 379.043 756c97.007 0 185.333-36.897 251.957-97.372-2.387-.873-3.472-2.183-4.34-3.494Z"/></g></svg>