<svg xmlns="http://www.w3.org/2000/svg" xml:space="preserve" width="733.40088" height="400" viewBox="0 0 733.40088 399.99999"><defs><linearGradient id="a" x1="0" x2="1" y1="0" y2="0" gradientTransform="matrix(0 -47.15553 -47.15553 0 785.396 689.823)" gradientUnits="userSpaceOnUse" spreadMethod="pad"><stop offset="0" style="stop-opacity:1;stop-color:#04a2e7"/><stop offset="0.49719087" style="stop-opacity:1;stop-color:#0f6cb1"/><stop offset="0.8" style="stop-opacity:1;stop-color:#0f6cb1"/><stop offset="1" style="stop-opacity:1;stop-color:#0f6cb1"/></linearGradient></defs><path d="M281.793 49.006c54.126 0 98.005-10.966 98.005-24.503S335.918 0 281.793 0c-54.133 0-98.02 10.966-98.02 24.503s43.887 24.503 98.02 24.503" style="fill:#04a2e7;fill-opacity:1;fill-rule:nonzero;stroke:none;stroke-width:7.65241"/><path d="M812.353 670.39c1.415-2.007 2.836-4.426 4.253-7.323 0-1.63-7.81-3.332-17.522-3.332-9.711 0-17.682 1.788-17.682 3.333 0 0 13.009 25.715 27.573 11.369 8.977 1.107 15.041 3.617 14.67 6.523-.499 3.904-12.409 7.041-26.602 7.008a104.67 104.67 0 0 1-5.369-.17c-5.097-.277-11.393-1.637-11.393-1.637-5.175-1.308-8.306-3.211-8.036-5.323.24-1.885 3.149-3.59 7.685-4.847.647-.267 1.908-.899 1.941-1.798.022-.582-.538-1.059-1.371-1.298-24.165-.763-43.023-7.106-43.023-14.818 0-8.225 21.455-14.894 47.919-14.894 26.466 0 47.92 6.669 47.92 14.894 0 5.118-8.311 9.631-20.963 12.313" style="fill:url(#a);stroke:none" transform="matrix(7.65243 0 0 -7.65243 -5643.489 5321.91)"/></svg>