<svg xmlns="http://www.w3.org/2000/svg" width="680" height="758" overflow="hidden"><defs><clipPath id="a"><path d="M38-1h680v758H38z"/></clipPath></defs><g fill-rule="evenodd" clip-path="url(#a)" transform="translate(-38 1)"><path fill="#004EA2" d="M693.772 307.881c-39.591-75.196-137.41-115.012-258.842-88.308L449.155 163c-6.533 17.125-29.072 29.134-29.072 29.134-.084.057-.169.142-.282.17 0 0-348.29 171.924-356.52 380.387-1.838 46.118 4.525 69.741 43.324 111.564 0 0-119.99-183.425 296.709-406.526 7.663-4.493 13.065-9.89 16.826-15.005-2.715 9.721-5.147 17.012-7.127 22.324-10.548 31.508-29.438 76.891-63.176 108.852 3.139-2.12 6.335-4.239 9.615-6.246 71.293-43.744 146.799-41.2 168.631 5.709 21.831 46.88-18.269 120.381-89.59 164.125-71.292 43.744-146.798 41.2-168.63-5.708-17.731-38.121 5.429-93.79 52.995-136.8a506.155 506.155 0 0 1-13.347 8.958c-75.139 49.679-171.176 123.659-178.755 215.471 0 0-5.43 51.656 43.381 86.923 15.299 10.484 29.75 15.316 45.388 19.865a311.075 311.075 0 0 0 14.338 3.279c73.697 14.863 178.84 7.318 281.268-54.115 181.893-108.993 241.563-268.003 178.641-387.48Z"/><path fill="#6FBA2C" d="M414.964 166.481c19.596-9.751 30.143-20.972 37.608-31.77 9.699-13.991 15.977-38.864 15.977-38.864L491 0c-23.102 42.398-81.493 76.626-81.493 76.626C266.794 156.702-49.113 368.52 60.771 630c0-.028-90.627-228.043 354.193-463.519Z"/><path fill="#6FBA2C" d="M388.764 308.05c-67.075 32.753-243.242 132.625-281.211 269.095-7.446 23.908-12.712 69.181 8.296 105.128C148.976 734.64 219.987 746 219.987 746c-.312-.085-.595-.17-.906-.254-15.658-4.578-30.126-9.411-45.444-19.867-48.869-35.269-43.404-86.957-43.404-86.957 7.616-91.818 103.74-165.804 178.97-215.486a468.222 468.222 0 0 0 13.364-8.958c6.568-4.55 10.9-7.772 10.9-7.772 5.72-4.069 11.071-8.562 16.111-13.338 33.778-31.963 52.691-77.349 63.252-108.859L413 284c-7.871 17.154-20.046 22.071-24.236 24.05Z"/></g></svg>