<svg xmlns="http://www.w3.org/2000/svg" xml:space="preserve" x="0px" y="0px" style="enable-background:new 0 0 390.2 379.5" viewBox="0 0 390.2 379.5"><path d="M374.9 367.3c0 6.2-70.7 11.2-157.9 11.2s-157.9-5-157.9-11.2c0-6.2 70.7-11.3 157.9-11.3 87.2.1 157.9 5.1 157.9 11.3z" style="fill:#7fbe26"/><path d="M375.1 48.1c40.1 62.5-7.9 164.7-107.2 228.4-99.3 63.6-212.2 64.5-252.3 2-40-62.5 7.9-164.8 107.2-228.4 99.3-63.7 212.2-64.6 252.3-2z" style="fill:#0b308e"/><path d="M205.1 181.1s-42.5-41-116.9-61.8c0 0 78.2-80.5 186.9-12.7 0 0 13.4-51.4 53.6-41.7 0 0 14.2 3 26.8 15.6 0 0-9.7 16.4-14.2 32 0 0-21.6 88.6-88.6 130.3 0 0-35.8 25.3-107.3 35 0 0-34.3 3.7-56.6 11.2l10.4-22.3S196 283.8 266 221.3c0 0 41.7-35 61.1-102 0 0 6-22.4 14.1-35 0 0-25.3-23.8-43.9 2.2 0 0-11.2 17.1-16.4 36.5 0 0-71.5-55.1-145.2-22.3 0 0-14.1 6-24.6 13.4.1 0 70.9 29 94 67z" style="fill:#fff"/></svg>