<svg xmlns="http://www.w3.org/2000/svg" xml:space="preserve" width="552.18298" height="453.87341" viewBox="0 0 552.18299 453.87341"><defs><clipPath id="a" clipPathUnits="userSpaceOnUse"><path d="M0 668.976h470.551V0H0Z"/></clipPath></defs><g clip-path="url(#a)" transform="matrix(1.33333 0 0 -1.33333 -28.413 661.324)"><path d="m0 0-17.034 80.499c-13.088-4.561-25.379-9.539-36.578-14.902a.366.366 0 0 0-.019-.01l43.096-67.191C-7.207-1.025-3.681-.479 0 0" style="fill:#f47216;fill-opacity:1;fill-rule:nonzero;stroke:none" transform="translate(112.325 174.345)"/><path d="m0 0-72.871-105.222c3.652.033 7.35-.042 11.063-.249L52.821 4.883C35.407 3.993 17.661 2.347 0 0" style="fill:#f47216;fill-opacity:1;fill-rule:nonzero;stroke:none" transform="translate(210.806 281.416)"/><path d="m0 0 16.316 92.391c-11.13-2.784-21.955-5.844-32.358-9.159L-7.671-.771C-5.174-.479-2.611-.218 0 0" style="fill:#f47216;fill-opacity:1;fill-rule:nonzero;stroke:none" transform="translate(122.973 175.488)"/><path d="M0 0c-3.343.881-6.79 1.693-10.314 2.452l-202.632-106.554c5.3-1.173 10.502-2.724 15.515-4.711L38.563-16.691C30.035-10.232 17.273-4.551 0 0" style="fill:#f47216;fill-opacity:1;fill-rule:nonzero;stroke:none" transform="translate(383.73 277.147)"/><path d="M0 0c5.772-2.759 11.229-6.172 16.208-10.367L152.714 4.139c63.643 22.345 96.459 50.482 90.221 73.761z" style="fill:#f47216;fill-opacity:1;fill-rule:nonzero;stroke:none" transform="translate(191.76 165.955)"/><path d="m0 0 63.179-47.624c3.753.922 8.248 1.93 13.296 2.891L25.536 17.13C15.142 11.443 6.645 5.698 0 0" style="fill:#f47216;fill-opacity:1;fill-rule:nonzero;stroke:none" transform="translate(21.31 216.743)"/><path d="m0 0-133.598-111.37c4.344-.359 8.69-.907 12.992-1.682L61.006-3.122C42.063-.751 21.447.249 0 0" style="fill:#f47216;fill-opacity:1;fill-rule:nonzero;stroke:none" transform="translate(286.719 287.032)"/><path d="m0 0 58.676 102.698a650.991 650.991 0 0 1-38.827-7.411L-8.12-.391C-5.453-.21-2.743-.076 0 0" style="fill:#f47216;fill-opacity:1;fill-rule:nonzero;stroke:none" transform="translate(134.412 176.129)"/><path d="m0 0 29.959-29.35-2 53.085 16.365-42.424 15.401 65.655-.23-58.715 35.019 77.853L73.543-8.693l55.18 88.708-40.13-85.254 75.494 91.056-67.499-97.502 95.914 86.484-87.678-93.149 86.848 48.018c4.92 5.712 9.612 11.545 14.006 17.487 61.61 83.228 38.258 135.748-38.529 114.166-60.941-17.156-130.82-76.145-164.264-130.91C-11.74 6.483-18.649-14.828-18.48-31.39l36.305-9.589z" style="fill:#1aaf6a;fill-opacity:1;fill-rule:nonzero;stroke:none" transform="translate(184.677 329.815)"/><path d="m0 0 45.535-29.543L1.393 43.79 47.269-6.95 8.691 78.896 52.826 8.339l-31.275 96.275L59.778 20.85l-20.152 84.809L69.858 22.24 56.856 99.792l23.427-81.371-3.122 67.776 13.892-75.51 5.957 58.075a217.59 217.59 0 0 1-5.744 13.352c-21.401 45.781-51.579 67.902-74.029 62.622-22.923-5.399-41.833-40.393-41.792-94.344.043-34.576 7.42-72.288 21.463-105.511l49.741-.453z" style="fill:#1c63b7;fill-opacity:1;fill-rule:nonzero;stroke:none" transform="translate(65.205 320.06)"/></g></svg>