<svg xmlns="http://www.w3.org/2000/svg" width="758" height="712" overflow="hidden"><defs><clipPath id="a"><path d="M-1 22h758v712H-1z"/></clipPath></defs><g fill-rule="evenodd" clip-path="url(#a)" transform="translate(1 -22)"><path fill="#1C7C38" d="m184.27 544-1.59-.099C80.208 538.64 0 454.073 0 351.64c0-106.205 86.569-192.658 192.917-192.658h3.379C220.647 79.676 295.09 23 380.566 23c85.476 0 159.919 56.676 184.369 136.081 42.539-.992 82.096 11.117 115.691 35.733 48.104 35.236 65.299 76.726 71.759 103.624 4.274 17.767 3.876 35.137 3.181 44.567-.298 3.97-3.976 6.65-7.852 5.856l-31.407-6.749c-112.212-24.021-206.534.595-288.431 75.038C360.39 478.689 286.045 539.137 185.959 544h-1.689Zm8.647-320.004c-70.468 0-127.816 57.271-127.816 127.644 0 67.396 52.279 122.98 119.367 127.347 77.823-4.367 138.849-54.393 199.676-109.778 79.81-72.656 170.355-106.007 274.218-99.952 2.286.099 3.677-2.482 2.186-4.169-12.225-14.392-60.329-48.437-115.789-38.909l-29.221 4.864c-2.187.397-4.174-1.191-4.473-3.375l-3.975-29.281c-8.349-62.929-62.815-110.374-126.524-110.374-63.71 0-118.175 47.445-126.623 110.374l-3.976 29.678c-.298 2.184-2.385 3.673-4.572 3.276l-29.519-5.36c-7.753-1.291-15.405-1.985-22.959-1.985Z"/><path fill="#F18D00" d="M462 298.243C441.674 276.001 412.48 262 379.898 262 318.62 262 269 311.449 269 372.515c0 21.448 6.178 41.506 16.839 58.485 31.087-19.263 60.381-44.583 89.575-71.194 27.799-25.023 56.595-45.577 86.586-61.563Z"/><path fill="#1C7C38" d="M423.392 484.742c-105.108 95.793-204.255 148.062-343.537 92.017-4.371-1.789-9.14 1.689-8.842 6.459 1.093 20.669 5.464 40.543 12.617 59.026 1.39 3.677 4.57 6.459 8.345 7.652C125.355 659.932 157.841 665 189.731 665c33.778 0 66.959-5.664 99.842-16.893 71.926-24.544 130.143-72.044 177.63-115.369 74.509-67.97 153.389-104.439 280.254-63.896 4.172 1.392 8.543-1.689 8.543-6.161v-54.157c0-2.881-1.987-5.465-4.768-6.26-157.364-44.121-253.629 14.806-327.84 82.478Z"/><path fill="#1C7C38" d="M447.79 612.69c-32.312 30.12-65.023 53.679-98.23 70.776-3.778 1.889-4.673 6.66-2.088 9.941a192.118 192.118 0 0 0 41.758 38.469 6.738 6.738 0 0 0 6.96.298c32.71-18.688 64.724-42.644 96.042-71.869 76.854-71.671 140.981-117.893 255.019-75.15 4.275 1.591 8.749-1.59 8.749-6.063v-54.673c0-2.883-1.889-5.367-4.573-6.262-137.402-43.142-222.806 19.185-303.637 94.533Z"/></g></svg>