<svg xmlns="http://www.w3.org/2000/svg" xml:space="preserve" width="255.00998" height="300" viewBox="0 0 255.00999 300"><path d="M0 0c-.075 2.377-.447 2.978-2.339 4.729-9.097 7.889-20.955 12.677-33.94 12.677-28.639 0-51.853-23.215-51.853-51.852 0-28.637 23.214-51.851 51.853-51.851 12.994 0 24.858 4.793 33.955 12.693 2.171 2.007 2.328 2.5 2.34 5.95h.003v30.922l-30.288-25.414c-5.682-4.598-14.487-4.414-19.803 1.75-5.317 6.166-4.319 15.229 1.647 20.227l6.822 5.727c-.044.039-6.766 5.678-6.822 5.724-5.966 5.001-6.964 14.062-1.647 20.227 5.316 6.167 14.121 6.352 19.803 1.754L.019-32.152V0Z" style="fill:#009fe3;fill-opacity:1;fill-rule:nonzero;stroke:none" transform="matrix(2.89288 0 0 -2.89288 254.955 50.353)"/></svg>