<svg xmlns="http://www.w3.org/2000/svg" width="406.19583mm" height="400mm" viewBox="0 0 406.19583 400"><defs><clipPath id="a" clipPathUnits="userSpaceOnUse"><path d="M0 841.89h595.28V0H0Z"/></clipPath><clipPath id="b" clipPathUnits="userSpaceOnUse"><path d="M172.845 520.553c-7.191-2.721-10.882-10.496-7.969-17.686 2.722-6.997 10.69-10.495 17.881-7.774 7.191 2.721 10.688 10.495 7.774 17.686-1.934 5.356-7.06 8.777-12.584 8.777-1.69 0-3.417-.32-5.102-1.003"/></clipPath><linearGradient id="c" x1="0" x2="1" y1="0" y2="0" gradientTransform="matrix(-22.89568 0 0 22.8957 189.43 507.863)" gradientUnits="userSpaceOnUse" spreadMethod="pad"><stop offset="0" style="stop-opacity:1;stop-color:#fff"/><stop offset="0.5" style="stop-opacity:1;stop-color:#e60013"/><stop offset="1" style="stop-opacity:1;stop-color:#e60013"/></linearGradient></defs><g clip-path="url(#a)" transform="matrix(5.3183 0 0 -5.3183 -742.5 2901.786)"><path d="M0 0c0-20.6-17.103-37.508-38.091-37.508C-59.275-37.508-76.377-20.6-76.377 0c0 20.796 17.102 37.704 38.286 37.704C-17.103 37.704 0 20.796 0 0" style="fill:#fff;fill-opacity:1;fill-rule:evenodd;stroke:none" transform="translate(215.99 507.919)"/><path d="M0 0v.194Z" style="fill:#004098;fill-opacity:1;fill-rule:evenodd;stroke:none" transform="translate(186.255 528.91)"/><path d="M0 0v.193S0 0-.194 0Z" style="fill:#004098;fill-opacity:1;fill-rule:evenodd;stroke:none" transform="translate(196.75 530.66)"/><path d="M0 0h-.194v-.193S0-.193 0 0" style="fill:#004098;fill-opacity:1;fill-rule:evenodd;stroke:none" transform="translate(197.332 530.852)"/><path d="M0 0v.193h-.389S-.194 0-.389 0h.195z" style="fill:#004098;fill-opacity:1;fill-rule:evenodd;stroke:none" transform="translate(197.72 530.66)"/><path d="M0 0v.195Z" style="fill:#004098;fill-opacity:1;fill-rule:evenodd;stroke:none" transform="translate(211.13 515.888)"/><path d="M0 0c-.193.194 0 .194-.193.194H0Z" style="fill:#004098;fill-opacity:1;fill-rule:evenodd;stroke:none" transform="translate(212.491 502.867)"/><path d="M0 0v.194Z" style="fill:#004098;fill-opacity:1;fill-rule:evenodd;stroke:none" transform="translate(212.491 502.673)"/><path d="M0 0v.389Z" style="fill:#004098;fill-opacity:1;fill-rule:evenodd;stroke:none" transform="translate(212.491 502.284)"/><path d="M0 0v.194V0c0 .194 0 0 0 0" style="fill:#004098;fill-opacity:1;fill-rule:evenodd;stroke:none" transform="translate(212.491 502.09)"/><path d="M0 0c-.193-.194 0 0-.193 0Z" style="fill:#004098;fill-opacity:1;fill-rule:evenodd;stroke:none" transform="translate(152.439 484.987)"/><path d="M0 0c-.193 0 0 0 0 .195Z" style="fill:#004098;fill-opacity:1;fill-rule:evenodd;stroke:none" transform="translate(212.491 501.894)"/><path d="M0 0h.195Z" style="fill:#004098;fill-opacity:1;fill-rule:evenodd;stroke:none" transform="translate(152.05 484.793)"/><path d="M0 0c-.194 0-.194.194-.194.194C0 .194 0 0 0 0" style="fill:#004098;fill-opacity:1;fill-rule:evenodd;stroke:none" transform="translate(153.216 484.987)"/><path d="M0 0h-.195Z" style="fill:#004098;fill-opacity:1;fill-rule:evenodd;stroke:none" transform="translate(152.634 484.793)"/><path d="M0 0s-.194.194 0 .194C0 .194.195 0 0 0" style="fill:#004098;fill-opacity:1;fill-rule:evenodd;stroke:none" transform="translate(153.41 484.793)"/><path d="M0 0h.193c0 .193 0 0-.193 0" style="fill:#004098;fill-opacity:1;fill-rule:evenodd;stroke:none" transform="translate(212.298 501.701)"/><path d="M0 0h-.194v.194h.389C.195 0 0 0 0 0" style="fill:#004098;fill-opacity:1;fill-rule:evenodd;stroke:none" transform="translate(152.828 484.599)"/><path d="M0 0v.194h.195Z" style="fill:#004098;fill-opacity:1;fill-rule:evenodd;stroke:none" transform="translate(152.828 484.404)"/><path d="M0 0v.195h.195H0C0 0 .195 0 0 0" style="fill:#004098;fill-opacity:1;fill-rule:evenodd;stroke:none" transform="translate(212.491 505.2)"/><path d="M0 0h-.194Z" style="fill:#004098;fill-opacity:1;fill-rule:evenodd;stroke:none" transform="translate(153.216 484.404)"/><path d="M0 0c-.195-.194-.195 0 0 0h-.195Z" style="fill:#004098;fill-opacity:1;fill-rule:evenodd;stroke:none" transform="translate(153.023 484.404)"/><path d="M0 0v.193C.193.193 0 0 0 0" style="fill:#004098;fill-opacity:1;fill-rule:evenodd;stroke:none" transform="translate(212.298 501.313)"/><path d="M0 0h-.195v.194L0 0s.193 0 0 0" style="fill:#004098;fill-opacity:1;fill-rule:evenodd;stroke:none" transform="translate(153.994 484.599)"/><path d="M0 0h-.195S.194.194 0 0" style="fill:#004098;fill-opacity:1;fill-rule:evenodd;stroke:none" transform="translate(154.383 484.599)"/><path d="m0 0-.195.194h-.194.194C0 .583-.778 0-.195.389V.194C0 .194 0 0 0 0" style="fill:#004098;fill-opacity:1;fill-rule:evenodd;stroke:none" transform="translate(153.606 484.21)"/><path d="M0 0c-.194-.195-.194 0 0 0 0 .194.194 0 0 0-.194-.195.194 0 0 0" style="fill:#004098;fill-opacity:1;fill-rule:evenodd;stroke:none" transform="translate(153.216 484.21)"/><path d="M0 0h-.389v.195V0v.39-.195H0Z" style="fill:#004098;fill-opacity:1;fill-rule:evenodd;stroke:none" transform="translate(153.994 484.015)"/><path d="M0 0c-.195-.194.193 0 0 0 0 0 .193 0 0 0" style="fill:#004098;fill-opacity:1;fill-rule:evenodd;stroke:none" transform="translate(155.55 484.404)"/><path d="M0 0s-.195.194 0 .194Z" style="fill:#004098;fill-opacity:1;fill-rule:evenodd;stroke:none" transform="translate(156.132 484.404)"/><path d="M0 0c-.194 0-.194.195-.194.195Z" style="fill:#004098;fill-opacity:1;fill-rule:evenodd;stroke:none" transform="translate(155.355 484.015)"/><path d="M0 0c-.194-.194.195 0 0 0 0 0 .195 0 0 0" style="fill:#004098;fill-opacity:1;fill-rule:evenodd;stroke:none" transform="translate(157.492 484.793)"/><path d="M0 0c-.195-.193.194 0 0 0 0 0 .194 0 0 0" style="fill:#004098;fill-opacity:1;fill-rule:evenodd;stroke:none" transform="translate(155.16 484.015)"/><path d="M0 0c-.193 0 .194 0 0 .195 0 0 .194 0 0-.195" style="fill:#004098;fill-opacity:1;fill-rule:evenodd;stroke:none" transform="translate(155.743 484.015)"/><path d="M0 0h-.194Z" style="fill:#004098;fill-opacity:1;fill-rule:evenodd;stroke:none" transform="translate(155.937 483.821)"/><path d="M0 0h-.388l-.195.193h-.194v.196h-.195.195c.194 0 .194-.196.194-.196h.388V0v.193V0Z" style="fill:#004098;fill-opacity:1;fill-rule:evenodd;stroke:none" transform="translate(156.91 483.821)"/><path d="M0 0c-.194 0 .195 0 0 0 0 0-.194.195 0 .195C0 .195.195 0 0 0" style="fill:#004098;fill-opacity:1;fill-rule:evenodd;stroke:none" transform="translate(157.103 483.626)"/><path d="M0 0h.193Z" style="fill:#004098;fill-opacity:1;fill-rule:evenodd;stroke:none" transform="translate(153.994 482.85)"/><path d="M0 0c-.193 0-.193 0 0 0" style="fill:#004098;fill-opacity:1;fill-rule:evenodd;stroke:none" transform="translate(155.743 483.238)"/><path d="M0 0c-.193 0 0 0-.193.194C-.193.194.195 0 0 0" style="fill:#004098;fill-opacity:1;fill-rule:evenodd;stroke:none" transform="translate(156.714 483.238)"/><path d="M0 0c0 .193 0 0 0 0v.193h-.194s-.195 0 0 0h.389C0 .193.195 0 0 0" style="fill:#004098;fill-opacity:1;fill-rule:evenodd;stroke:none" transform="translate(157.492 483.433)"/><path d="M0 0h-.194c-.195.193 0 .193 0 .193C0 .193 0 0 0 0" style="fill:#004098;fill-opacity:1;fill-rule:evenodd;stroke:none" transform="translate(157.88 483.433)"/><path d="M0 0c-.583 0 .584-.194 0 0-.194 0 0 0 0 0h-.194.389Z" style="fill:#004098;fill-opacity:1;fill-rule:evenodd;stroke:none" transform="translate(158.075 483.433)"/><path d="M0 0s-.195.195 0 .195Z" style="fill:#004098;fill-opacity:1;fill-rule:evenodd;stroke:none" transform="translate(154.383 482.266)"/><path d="M0 0c-.389 0 0 0 0 0s.194 0 0 0" style="fill:#004098;fill-opacity:1;fill-rule:evenodd;stroke:none" transform="translate(157.687 483.238)"/><path d="M0 0c-.389 0 0 .194 0 .194C0 0 .194 0 0 0" style="fill:#004098;fill-opacity:1;fill-rule:evenodd;stroke:none" transform="translate(158.27 483.238)"/><path d="M0 0h-.194s0 .193 0 0z" style="fill:#004098;fill-opacity:1;fill-rule:evenodd;stroke:none" transform="translate(154.966 482.46)"/><path d="M0 0c-.194 0 .195.195.195.195C.195 0 .195 0 0 0" style="fill:#004098;fill-opacity:1;fill-rule:evenodd;stroke:none" transform="translate(154.966 482.266)"/><path d="M0 0s-.194.193 0 .193C0 .193.195 0 0 0" style="fill:#004098;fill-opacity:1;fill-rule:evenodd;stroke:none" transform="translate(154.577 482.072)"/><path d="m0 0-.194.195c.389.195-.195-.195 0 0H0S.195 0 0 0" style="fill:#004098;fill-opacity:1;fill-rule:evenodd;stroke:none" transform="translate(157.103 482.654)"/><path d="M0 0h-.194v.193H0c0-.193 0 0 0 0z" style="fill:#004098;fill-opacity:1;fill-rule:evenodd;stroke:none" transform="translate(154.966 482.072)"/><path d="M0 0c-.195 0 .194 0 0 0 0 0 .194 0 0 0" style="fill:#004098;fill-opacity:1;fill-rule:evenodd;stroke:none" transform="translate(157.298 482.654)"/><path d="M0 0v.194c0 .195.195 0 0 0z" style="fill:#004098;fill-opacity:1;fill-rule:evenodd;stroke:none" transform="translate(158.463 482.85)"/><path d="M0 0h-.193Z" style="fill:#004098;fill-opacity:1;fill-rule:evenodd;stroke:none" transform="translate(158.852 482.85)"/><path d="M0 0c-.194 0 .195 0 0 0 0 0 .195 0 0 0" style="fill:#004098;fill-opacity:1;fill-rule:evenodd;stroke:none" transform="translate(159.63 483.044)"/><path d="M0 0s-.194.193 0 .193C0 .193.194 0 0 0" style="fill:#004098;fill-opacity:1;fill-rule:evenodd;stroke:none" transform="translate(157.88 482.46)"/><path d="M0 0c-.195 0-.195.193-.195.193h-.194v.196c-.389-.196-.194 0 0 0V.193l.194.196s.195 0 0-.196H0s0-.193 0 0z" style="fill:#004098;fill-opacity:1;fill-rule:evenodd;stroke:none" transform="translate(155.55 481.684)"/><path d="M0 0c-.195 0 0 0-.195.193C0 .193 0 .193 0 0" style="fill:#004098;fill-opacity:1;fill-rule:evenodd;stroke:none" transform="translate(156.132 481.684)"/><path d="M0 0h-.194L0 .193Z" style="fill:#004098;fill-opacity:1;fill-rule:evenodd;stroke:none" transform="translate(156.326 481.684)"/><path d="M0 0h-.194c-.194 0-.194.194 0 .194 0 0 0-.194.194-.194" style="fill:#004098;fill-opacity:1;fill-rule:evenodd;stroke:none" transform="translate(160.212 482.85)"/><path d="M0 0c-.195 0 .194 0 0 0 0 0 .194 0 0 0" style="fill:#004098;fill-opacity:1;fill-rule:evenodd;stroke:none" transform="translate(160.407 482.85)"/><path d="M0 0c-.195 0 0 .194 0 .194Z" style="fill:#004098;fill-opacity:1;fill-rule:evenodd;stroke:none" transform="translate(161.574 483.044)"/><path d="M0 0h-.194S0 0 0 .194Z" style="fill:#004098;fill-opacity:1;fill-rule:evenodd;stroke:none" transform="translate(161.768 483.044)"/><path d="M0 0c-.388 0 0 .193 0 .193Z" style="fill:#004098;fill-opacity:1;fill-rule:evenodd;stroke:none" transform="translate(156.91 481.295)"/><path d="M0 0s-.195 0-.195.193V0v.193h-.389c-.194 0-.194.196-.194.196h.389V.193l.194.196V.193h.389Z" style="fill:#004098;fill-opacity:1;fill-rule:evenodd;stroke:none" transform="translate(161.185 482.46)"/><path d="M0 0c0-.193 0 0 0 0s.389 0 0 0" style="fill:#004098;fill-opacity:1;fill-rule:evenodd;stroke:none" transform="translate(161.379 482.654)"/><path d="M0 0h-.389v.193h.194S.193 0 0 0" style="fill:#004098;fill-opacity:1;fill-rule:evenodd;stroke:none" transform="translate(161.963 482.46)"/><path d="M0 0c-.194 0 .195 0 0 0 0 0 .195 0 0 0" style="fill:#004098;fill-opacity:1;fill-rule:evenodd;stroke:none" transform="translate(161.379 482.266)"/><path d="M0 0c-.194 0 .195 0 0 0 0 0 .195.193 0 0" style="fill:#004098;fill-opacity:1;fill-rule:evenodd;stroke:none" transform="translate(162.35 482.46)"/><path d="M0 0v.195C.194.195 0 0 0 0" style="fill:#004098;fill-opacity:1;fill-rule:evenodd;stroke:none" transform="translate(160.407 481.877)"/><path d="M0 0v.195L-.194 0v.195H0S.195 0 0 0" style="fill:#004098;fill-opacity:1;fill-rule:evenodd;stroke:none" transform="translate(163.128 482.654)"/><path d="M0 0h-.194Z" style="fill:#004098;fill-opacity:1;fill-rule:evenodd;stroke:none" transform="translate(155.937 480.323)"/><path d="M0 0h-.195v.194V0c-.194 0-.194.194-.194.194L-.584 0l.195.194V0h.194z" style="fill:#004098;fill-opacity:1;fill-rule:evenodd;stroke:none" transform="translate(157.687 480.906)"/><path d="M0 0s-.195.194 0 .194Z" style="fill:#004098;fill-opacity:1;fill-rule:evenodd;stroke:none" transform="translate(156.91 480.518)"/><path d="M160.796 482.072h.193v-.195h-.193z" style="fill:#004098;fill-opacity:1;fill-rule:evenodd;stroke:none"/><path d="M0 0c0 .193.195.193.195.193Z" style="fill:#004098;fill-opacity:1;fill-rule:evenodd;stroke:none" transform="translate(161.768 482.072)"/><path d="M0 0h-.194s-.195.195 0 .195C0 0 0 .195 0 .195Z" style="fill:#004098;fill-opacity:1;fill-rule:evenodd;stroke:none" transform="translate(162.739 482.266)"/><path d="M0 0h-.195Z" style="fill:#004098;fill-opacity:1;fill-rule:evenodd;stroke:none" transform="translate(162.934 482.46)"/><path d="M0 0c-.195 0 .194 0 0 0 0 0 .194 0 0 0" style="fill:#004098;fill-opacity:1;fill-rule:evenodd;stroke:none" transform="translate(161.185 481.877)"/><path d="M0 0v.195C.194.195 0 0 0 0" style="fill:#004098;fill-opacity:1;fill-rule:evenodd;stroke:none" transform="translate(162.934 482.266)"/><path d="M0 0v.195c0-.195 0 0 0 0S.194.195 0 0" style="fill:#004098;fill-opacity:1;fill-rule:evenodd;stroke:none" transform="translate(156.132 480.128)"/><path d="M0 0s-.193 0 0 0c-.193-.195.389.193 0 0" style="fill:#004098;fill-opacity:1;fill-rule:evenodd;stroke:none" transform="translate(162.156 482.072)"/><path d="M0 0c-.195 0 .193 0 0 0 0 0 .193 0 0 0" style="fill:#004098;fill-opacity:1;fill-rule:evenodd;stroke:none" transform="translate(161.963 481.877)"/><path d="M0 0v.195C.195.389.195.195 0 0" style="fill:#004098;fill-opacity:1;fill-rule:evenodd;stroke:none" transform="translate(160.99 481.488)"/><path d="M0 0v.194c.194 0 .194 0 0-.194" style="fill:#004098;fill-opacity:1;fill-rule:evenodd;stroke:none" transform="translate(157.298 480.323)"/><path d="M0 0h-.195C0 .193 0 0 0 0" style="fill:#004098;fill-opacity:1;fill-rule:evenodd;stroke:none" transform="translate(161.963 481.684)"/><path d="M0 0v.193C-.194.193-.194 0-.194 0v.193H0Z" style="fill:#004098;fill-opacity:1;fill-rule:evenodd;stroke:none" transform="translate(163.517 482.072)"/><path d="M0 0v.194C.194.194.194 0 0 0" style="fill:#004098;fill-opacity:1;fill-rule:evenodd;stroke:none" transform="translate(157.88 480.323)"/><path d="M0 0c-.195 0 0 0 0 0v.195C0 0 .194 0 0 0" style="fill:#004098;fill-opacity:1;fill-rule:evenodd;stroke:none" transform="translate(162.934 481.877)"/><path d="M0 0v.193V0c.195.193.195 0 0 0" style="fill:#004098;fill-opacity:1;fill-rule:evenodd;stroke:none" transform="translate(163.517 482.072)"/><path d="M0 0v.194H-.584v.195c-.194 0-.194-.195 0-.195h.195V0l.194.194L0 0v.194z" style="fill:#004098;fill-opacity:1;fill-rule:evenodd;stroke:none" transform="translate(158.659 480.518)"/><path d="m0 0 .194.193C.194 0 .194 0 0 0" style="fill:#004098;fill-opacity:1;fill-rule:evenodd;stroke:none" transform="translate(163.711 482.072)"/><path d="M156.714 479.935h-.193v.193h.193z" style="fill:#004098;fill-opacity:1;fill-rule:evenodd;stroke:none"/><path d="M0 0c-.195 0-.195.195-.195.195S0 .195 0 .39V.195Z" style="fill:#004098;fill-opacity:1;fill-rule:evenodd;stroke:none" transform="translate(157.687 480.128)"/><path d="M0 0c-.194-.195-.194 0-.194 0Z" style="fill:#004098;fill-opacity:1;fill-rule:evenodd;stroke:none" transform="translate(162.35 481.684)"/><path d="M0 0h-.195c.195 0-.389 0 0 0z" style="fill:#004098;fill-opacity:1;fill-rule:evenodd;stroke:none" transform="translate(159.047 480.518)"/><path d="M0 0h-.195c-.194 0 .195 0 0 0h-.194H0s.194 0 0 0" style="fill:#004098;fill-opacity:1;fill-rule:evenodd;stroke:none" transform="translate(162.934 481.684)"/><path d="M0 0c-.194 0 .195 0 0 0 0 0 .195 0 0 0" style="fill:#004098;fill-opacity:1;fill-rule:evenodd;stroke:none" transform="translate(164.488 482.072)"/><path d="M0 0v.195c-.194-.195-.194 0 0 0z" style="fill:#004098;fill-opacity:1;fill-rule:evenodd;stroke:none" transform="translate(157.103 479.74)"/><path d="M0 0h.194Z" style="fill:#004098;fill-opacity:1;fill-rule:evenodd;stroke:none" transform="translate(162.156 481.295)"/><path d="M0 0c-.195 0-.195.195 0 .195C0 .195.194 0 0 0" style="fill:#004098;fill-opacity:1;fill-rule:evenodd;stroke:none" transform="translate(157.298 479.74)"/><path d="M0 0h-.389s-.194 0 0 0v.195s-.194-.195 0 0L-.194 0v.195V0Z" style="fill:#004098;fill-opacity:1;fill-rule:evenodd;stroke:none" transform="translate(158.463 480.128)"/><path d="M0 0v.195h-.195c-.194 0 0 0 0 0H0V0h.194H0c0-.193.194 0 0 0" style="fill:#004098;fill-opacity:1;fill-rule:evenodd;stroke:none" transform="translate(164.1 481.877)"/><path d="M0 0s-.195 0-.195.195c0-.195 0 0 .195 0 .971 0-1.167-.195 0 0C0 0 .193 0 0 0" style="fill:#004098;fill-opacity:1;fill-rule:evenodd;stroke:none" transform="translate(165.072 481.877)"/><path d="M0 0v.193c-.194-.193 0 0-.194 0H0Z" style="fill:#004098;fill-opacity:1;fill-rule:evenodd;stroke:none" transform="translate(157.492 479.546)"/><path d="M0 0v.194C.194.194 0 0 0 0" style="fill:#004098;fill-opacity:1;fill-rule:evenodd;stroke:none" transform="translate(162.545 481.1)"/><path d="m0 0-.195-.193S-.389 0-.195 0z" style="fill:#004098;fill-opacity:1;fill-rule:evenodd;stroke:none" transform="translate(163.711 481.488)"/><path d="M0 0s-.193 0 0 .195V0v.195C0 0 .195 0 0 0" style="fill:#004098;fill-opacity:1;fill-rule:evenodd;stroke:none" transform="translate(165.265 481.877)"/><path d="M0 0h-.194Z" style="fill:#004098;fill-opacity:1;fill-rule:evenodd;stroke:none" transform="translate(164.488 481.684)"/><path d="M0 0h-.194S0 0 0 .193Z" style="fill:#004098;fill-opacity:1;fill-rule:evenodd;stroke:none" transform="translate(159.241 479.935)"/><path d="M0 0c-.195 0-.195.195 0 .195Z" style="fill:#004098;fill-opacity:1;fill-rule:evenodd;stroke:none" transform="translate(164.683 481.488)"/><path d="M0 0h-.194c.194 0 0 0 0 0z" style="fill:#004098;fill-opacity:1;fill-rule:evenodd;stroke:none" transform="translate(165.654 481.877)"/><path d="M0 0s-.193.193 0 .193C0 .193.194 0 0 0" style="fill:#004098;fill-opacity:1;fill-rule:evenodd;stroke:none" transform="translate(166.432 482.072)"/><path d="M0 0v.194S.194 0 0 0" style="fill:#004098;fill-opacity:1;fill-rule:evenodd;stroke:none" transform="translate(162.934 480.906)"/><path d="M0 0c-.195 0 0 0-.195.193C0 .193 0 .193 0 0" style="fill:#004098;fill-opacity:1;fill-rule:evenodd;stroke:none" transform="translate(166.82 482.072)"/><path d="M0 0c-.193 0 0 .195 0 .195C0 0 .195 0 0 0" style="fill:#004098;fill-opacity:1;fill-rule:evenodd;stroke:none" transform="translate(164.876 481.488)"/><path d="M0 0v.194C.194.194 0 0 0 0" style="fill:#004098;fill-opacity:1;fill-rule:evenodd;stroke:none" transform="translate(161.185 480.323)"/><path d="M0 0c0 .194-.194.194 0 .194Z" style="fill:#004098;fill-opacity:1;fill-rule:evenodd;stroke:none" transform="translate(163.905 481.1)"/><path d="M0 0c-.193 0 0 0 0 0 0 .193 0 .193 0 0" style="fill:#004098;fill-opacity:1;fill-rule:evenodd;stroke:none" transform="translate(167.014 482.072)"/><path d="M0 0s-.194.194 0 .194C0 .194.195 0 0 0" style="fill:#004098;fill-opacity:1;fill-rule:evenodd;stroke:none" transform="translate(163.128 480.906)"/><path d="M0 0c-.194-.193.195 0 0 0 0 0 .195 0 0 0" style="fill:#004098;fill-opacity:1;fill-rule:evenodd;stroke:none" transform="translate(166.043 481.877)"/><path d="M0 0c-.389-.193 0 0 0 0s.193 0 0 0" style="fill:#004098;fill-opacity:1;fill-rule:evenodd;stroke:none" transform="translate(165.072 481.488)"/><path d="M0 0h-.195Z" style="fill:#004098;fill-opacity:1;fill-rule:evenodd;stroke:none" transform="translate(161.574 480.323)"/><path d="M0 0c-.195 0-.195.193-.195.193H0Z" style="fill:#004098;fill-opacity:1;fill-rule:evenodd;stroke:none" transform="translate(165.46 481.295)"/><path d="M0 0c.193 0 0 0 0 0h-.195Z" style="fill:#004098;fill-opacity:1;fill-rule:evenodd;stroke:none" transform="translate(160.796 479.935)"/><path d="M0 0v.195c-.194 0 0 0 0-.195" style="fill:#004098;fill-opacity:1;fill-rule:evenodd;stroke:none" transform="translate(160.601 479.74)"/><path d="M0 0h-.195v.195V0v.195h-.972l.195.194V.195H0C.193.195.193 0 0 0" style="fill:#004098;fill-opacity:1;fill-rule:evenodd;stroke:none" transform="translate(158.659 479.35)"/><path d="M0 0c-.194 0-.194.194-.194 0Z" style="fill:#004098;fill-opacity:1;fill-rule:evenodd;stroke:none" transform="translate(164.294 480.906)"/><path d="M0 0v.193C0 0 .195 0 .195 0Z" style="fill:#004098;fill-opacity:1;fill-rule:evenodd;stroke:none" transform="translate(165.654 481.295)"/><path d="M0 0h-.193Z" style="fill:#004098;fill-opacity:1;fill-rule:evenodd;stroke:none" transform="translate(167.014 481.684)"/><path d="M0 0c-.194-.193 0 0-.194 0Z" style="fill:#004098;fill-opacity:1;fill-rule:evenodd;stroke:none" transform="translate(167.403 481.877)"/><path d="M0 0h-.194s-.195 0 0 0z" style="fill:#004098;fill-opacity:1;fill-rule:evenodd;stroke:none" transform="translate(161.379 479.935)"/><path d="M0 0v.193Z" style="fill:#004098;fill-opacity:1;fill-rule:evenodd;stroke:none" transform="translate(165.85 481.295)"/><path d="M0 0c-.193 0-.193 0 0 0 0 .195 0 0 0 0" style="fill:#004098;fill-opacity:1;fill-rule:evenodd;stroke:none" transform="translate(162.156 480.128)"/><path d="M0 0h-.194H0c0 .193 0 0 0 0-1.165-.583 1.166.582 0 0" style="fill:#004098;fill-opacity:1;fill-rule:evenodd;stroke:none" transform="translate(167.403 481.684)"/><path d="M0 0c-.193-.194.195 0 0 0 0 0 .195 0 0 0" style="fill:#004098;fill-opacity:1;fill-rule:evenodd;stroke:none" transform="translate(164.876 480.906)"/><path d="M0 0h-.195C0 0 0 .193 0 .193V0s.194 0 0 0" style="fill:#004098;fill-opacity:1;fill-rule:evenodd;stroke:none" transform="translate(167.598 481.684)"/><path d="M0 0h.195Z" style="fill:#004098;fill-opacity:1;fill-rule:evenodd;stroke:none" transform="translate(164.488 480.712)"/><path d="M0 0h-.195v.194h-.194c0-.194 0 0 0 0C-.584.194-.584 0-.584 0v.194H-1.166l-.195.195h-.194s0 .193.194.193V.389h.195c.193-.195.193 0 .193 0h.196V.194l.193.195V.194v.195l.195-.195H0Z" style="fill:#004098;fill-opacity:1;fill-rule:evenodd;stroke:none" transform="translate(165.85 480.906)"/><path d="M0 0c-.195 0 0 .194 0 .194Z" style="fill:#004098;fill-opacity:1;fill-rule:evenodd;stroke:none" transform="translate(164.683 480.518)"/><path d="M0 0h-.389.195z" style="fill:#004098;fill-opacity:1;fill-rule:evenodd;stroke:none" transform="translate(168.18 481.684)"/><path d="M0 0c-.389 0 0 .193 0 .193Z" style="fill:#004098;fill-opacity:1;fill-rule:evenodd;stroke:none" transform="translate(162.934 479.935)"/><path d="M0 0c-.195 0-.195.194-.195.194V0c-.194 0 0 .194-.194.194C-.389 0-.195 0-.389 0v.194L-.583 0v.194L-.778 0v.194L-.972 0l.194.194.195.194V.194l.194.194V.194h.194v.194h-.194v.195-.195c-.194.195 0 .195-.194.195h-.195c.195 0 .195.193.195.193l.194-.193s0 .193 0 0c.194 0 0 0 0 0h.194L0 .388v.195L.193.388c-.388 0 0 .195-.193 0h-.195V.194H0Z" style="fill:#004098;fill-opacity:1;fill-rule:evenodd;stroke:none" transform="translate(166.82 481.1)"/><path d="M0 0c-.389 0 0 .195-.193.195V0v.195c-.196-.195 0 0-.196 0h.583H0C-.193 0 .194.195 0 0" style="fill:#004098;fill-opacity:1;fill-rule:evenodd;stroke:none" transform="translate(168.57 481.488)"/><path d="m0 0 .194.195S.194 0 0 0" style="fill:#004098;fill-opacity:1;fill-rule:evenodd;stroke:none" transform="translate(168.57 481.488)"/><path d="M0 0h-.389c0 .193 0 .193-.194.193h.389V0v.193L0 0h.195z" style="fill:#004098;fill-opacity:1;fill-rule:evenodd;stroke:none" transform="translate(163.517 479.935)"/><path d="M0 0v.194s-.195 0 0 0h.193V0Z" style="fill:#004098;fill-opacity:1;fill-rule:evenodd;stroke:none" transform="translate(165.072 480.323)"/><path d="M0 0h-.195S0 .194 0 0" style="fill:#004098;fill-opacity:1;fill-rule:evenodd;stroke:none" transform="translate(165.46 480.323)"/><path d="M0 0s-.194 0 0 0c0 0 .195 0 0 0" style="fill:#004098;fill-opacity:1;fill-rule:evenodd;stroke:none" transform="translate(167.792 481.1)"/><path d="M0 0h-.583H0s.195 0 0 0" style="fill:#004098;fill-opacity:1;fill-rule:evenodd;stroke:none" transform="translate(170.901 482.072)"/><path d="M0 0h-.194v.195C-.389.195-.194 0-.389 0h-.194v.195c-.194 0 0 0 0 0h.389c0-.195.194 0 .194 0z" style="fill:#004098;fill-opacity:1;fill-rule:evenodd;stroke:none" transform="translate(169.541 481.488)"/><path d="M0 0c-.195 0 0 0 0 0" style="fill:#004098;fill-opacity:1;fill-rule:evenodd;stroke:none" transform="translate(165.85 480.323)"/><path d="m0 0-.194.195c-.195-.195-.195 0-.195 0H.195 0Z" style="fill:#004098;fill-opacity:1;fill-rule:evenodd;stroke:none" transform="translate(169.93 481.488)"/><path d="M0 0c.193.195.193 0 0 0" style="fill:#004098;fill-opacity:1;fill-rule:evenodd;stroke:none" transform="translate(188.394 486.93)"/><path d="M0 0c-.388 0 0 .195 0 .195Z" style="fill:#004098;fill-opacity:1;fill-rule:evenodd;stroke:none" transform="translate(164.488 479.74)"/><path d="M0 0c-.389 0 0 .194 0 .194Z" style="fill:#004098;fill-opacity:1;fill-rule:evenodd;stroke:none" transform="translate(166.432 480.323)"/><path d="M0 0h-.195v.195S-.389 0-.195 0h-.194.194L0-.193Z" style="fill:#004098;fill-opacity:1;fill-rule:evenodd;stroke:none" transform="translate(160.796 478.962)"/><path d="M0 0v.193V0c.194 0 .194 0 0 0" style="fill:#004098;fill-opacity:1;fill-rule:evenodd;stroke:none" transform="translate(159.047 479.157)"/><path d="M0 0c-.195 0 .193.195.193.195C0 0 .193 0 0 0" style="fill:#004098;fill-opacity:1;fill-rule:evenodd;stroke:none" transform="translate(164.683 479.74)"/><path d="m0 0-.195.194H0s-.195 0 0 0C0 .194.194 0 0 0" style="fill:#004098;fill-opacity:1;fill-rule:evenodd;stroke:none" transform="translate(167.598 480.518)"/><path d="M0 0h-.195s0-.195.195 0" style="fill:#004098;fill-opacity:1;fill-rule:evenodd;stroke:none" transform="translate(171.096 481.684)"/><path d="M0 0c-.195-.193 0 0-.195 0Z" style="fill:#004098;fill-opacity:1;fill-rule:evenodd;stroke:none" transform="translate(173.234 482.266)"/><path d="M0 0h-.193c-.196 0 0 0 0-.195z" style="fill:#004098;fill-opacity:1;fill-rule:evenodd;stroke:none" transform="translate(171.679 481.684)"/><path d="M0 0c-.193-.193 0 0 0 0s.195 0 0 0" style="fill:#004098;fill-opacity:1;fill-rule:evenodd;stroke:none" transform="translate(165.265 479.74)"/><path d="M0 0h-.389v.195L-.584 0v.195L-.777 0v.195h-.196l.196.194V.195v.194-.194h.388C-.195.195-.195 0-.195 0S0 0 0 .195V0s.194 0 0 0" style="fill:#004098;fill-opacity:1;fill-rule:evenodd;stroke:none" transform="translate(172.651 481.877)"/><path d="M0 0v.193S.194.193 0 0" style="fill:#004098;fill-opacity:1;fill-rule:evenodd;stroke:none" transform="translate(165.46 479.546)"/><path d="M0 0c-.194 0-.194 0-.194-.195-.195 0-.195.195-.195.195 1.166.389-.971-.584.195 0v.194H0S.195 0 0 0" style="fill:#004098;fill-opacity:1;fill-rule:evenodd;stroke:none" transform="translate(167.403 480.323)"/><path d="M0 0h-.389l-.195.195h-.194c.194 0 .194 0 .389.195 0-.195 0-.195-.195-.195h.195V0v.195L-.195 0H0s.194 0 0 0" style="fill:#004098;fill-opacity:1;fill-rule:evenodd;stroke:none" transform="translate(167.21 480.128)"/><path d="M0 0c0-.194 0 0 0 0 .193 0 .193 0 0 0" style="fill:#004098;fill-opacity:1;fill-rule:evenodd;stroke:none" transform="translate(160.796 478.38)"/><path d="M0 0v.193C0 0 .195 0 0 0" style="fill:#004098;fill-opacity:1;fill-rule:evenodd;stroke:none" transform="translate(159.63 478.769)"/><path d="M0 0s-.194 0 0 0v.195c.195 0 0 0 0 0h.195V0H0s.195 0 0 0" style="fill:#004098;fill-opacity:1;fill-rule:evenodd;stroke:none" transform="translate(167.403 480.128)"/><path d="M0 0h-.195v.195S-.195 0-.389 0v.195V0v.195L-.584 0v.195V0c-.193 0 0 0 0 0h-1.554v.195h.389c.193.194 0 0 .193 0h.972c.195 0 .195.194.195.194V.195s0 .194.194.194V.195L0 .389s.194 0 .194-.194c0 .194 0 .194.195.194C.389.195.194.195 0 .195h-.195H0S.194 0 0 0" style="fill:#004098;fill-opacity:1;fill-rule:evenodd;stroke:none" transform="translate(172.263 481.488)"/><path d="M0 0c-.194-.195 0 0 0 0s.195 0 0 0" style="fill:#004098;fill-opacity:1;fill-rule:evenodd;stroke:none" transform="translate(172.457 481.684)"/><path d="M0 0s-.389-.777-.195-.777c0 0 .389.777.195.777" style="fill:#004098;fill-opacity:1;fill-rule:evenodd;stroke:none" transform="translate(161.185 479.157)"/><path d="M0 0c-.193 0-.193 0 0 0h.195Z" style="fill:#004098;fill-opacity:1;fill-rule:evenodd;stroke:none" transform="translate(165.265 479.546)"/><path d="M0 0c-.195 0 0 .195 0 .195Z" style="fill:#004098;fill-opacity:1;fill-rule:evenodd;stroke:none" transform="translate(172.651 481.488)"/><path d="M0 0c-.195-.193.193 0 0 0 0 0 .193 0 0 0" style="fill:#004098;fill-opacity:1;fill-rule:evenodd;stroke:none" transform="translate(174.79 482.266)"/><path d="M0 0c-.193 0-.193 0-.193-.195V0c-.196-.195-.196 0 0 0z" style="fill:#004098;fill-opacity:1;fill-rule:evenodd;stroke:none" transform="translate(168.57 480.323)"/><path d="M0 0v.193c-.194-.193 0 0 0 0S.195 0 0 0" style="fill:#004098;fill-opacity:1;fill-rule:evenodd;stroke:none" transform="translate(167.792 479.935)"/><path d="M0 0c-.195-.193.193 0 0 0 0 0 .193 0 0 0" style="fill:#004098;fill-opacity:1;fill-rule:evenodd;stroke:none" transform="translate(175.178 482.266)"/><path d="M0 0c-.195 0-.195 0-.195-.193V0s-.194 0-.194-.193V0h-.195c.195 0 0 .195 0 .195.195 0-.194-.195.195 0V0v.195c.194 0 0 0 0 0h.194V0H0c-.195 0 0 0 0 0" style="fill:#004098;fill-opacity:1;fill-rule:evenodd;stroke:none" transform="translate(168.376 480.128)"/><path d="M0 0v.193h.194Z" style="fill:#004098;fill-opacity:1;fill-rule:evenodd;stroke:none" transform="translate(175.372 482.072)"/><path d="M0 0s-.194.194 0 .194Z" style="fill:#004098;fill-opacity:1;fill-rule:evenodd;stroke:none" transform="translate(160.019 478.38)"/><path d="M0 0h-.195Z" style="fill:#004098;fill-opacity:1;fill-rule:evenodd;stroke:none" transform="translate(168.376 479.935)"/><path d="M0 0c-.584-.193.389 0-.195 0h-.194c-.195-.193 0 0 0 0z" style="fill:#004098;fill-opacity:1;fill-rule:evenodd;stroke:none" transform="translate(176.15 482.266)"/><path d="M0 0s-.194 0 0 0c.195 0 .195 0 0 0" style="fill:#004098;fill-opacity:1;fill-rule:evenodd;stroke:none" transform="translate(160.212 478.38)"/><path d="M0 0h-.194Z" style="fill:#004098;fill-opacity:1;fill-rule:evenodd;stroke:none" transform="translate(163.517 478.38)"/><path d="M0 0c-.388 0 .777.195 0 .195V0v.195L-.194 0s.194.195 0 .195h.389S.195 0 0 0" style="fill:#004098;fill-opacity:1;fill-rule:evenodd;stroke:none" transform="translate(168.764 479.74)"/><path d="M0 0h-.195Z" style="fill:#004098;fill-opacity:1;fill-rule:evenodd;stroke:none" transform="translate(175.178 481.684)"/><path d="M0 0c-.194 0-.194.194-.194 0Z" style="fill:#004098;fill-opacity:1;fill-rule:evenodd;stroke:none" transform="translate(160.601 478.185)"/><path d="M0 0h-.193Z" style="fill:#004098;fill-opacity:1;fill-rule:evenodd;stroke:none" transform="translate(160.99 477.99)"/><path d="M0 0c0 .194-.194.389 0 .194C0 .194.195 0 0 0" style="fill:#004098;fill-opacity:1;fill-rule:evenodd;stroke:none" transform="translate(163.128 478.38)"/><path d="M0 0c-.194 0 .195.194.195.194C.195 0 .195 0 0 0" style="fill:#004098;fill-opacity:1;fill-rule:evenodd;stroke:none" transform="translate(162.35 478.185)"/><path d="M0 0h-.193H0s.195 0 0 0" style="fill:#004098;fill-opacity:1;fill-rule:evenodd;stroke:none" transform="translate(172.067 480.323)"/><path d="M0 0v.194C0 0 .194 0 0 0" style="fill:#004098;fill-opacity:1;fill-rule:evenodd;stroke:none" transform="translate(163.323 478.38)"/><path d="M0 0h-.194Z" style="fill:#004098;fill-opacity:1;fill-rule:evenodd;stroke:none" transform="translate(161.379 477.797)"/><path d="M0 0h-.195v.195Z" style="fill:#004098;fill-opacity:1;fill-rule:evenodd;stroke:none" transform="translate(162.934 477.99)"/><path d="M0 0c0-.193 0 0 0 0l-.194-.193V0c-.195 0-.195-.193-.195-.193V0c-.194 0-.194-.193-.194-.193V0l-.195-.193H-2.138s.195 0 0 0h-.194V0l-.195-.193-.194.193h-.195.195c-.195-.193 0 0-.195 0 0 0 0-.193-.193-.193V0h-.195v-.193h-.194s0 .193.194.193h-.389l-.194-.193s-.194 0-.194.193v-.193V0c.194 0-.195 0 0 0h.194v.195H-2.916V0c0 .195 0 .195.195.195V0h.194l.195.195h.389V0v.195V0l.193.195c.195-.195.195 0 .195 0V0l.195.195V0s0 .195.193.195V0v.195V0l.196.195L-.778 0l.195.195V0h.389s.194.195 0 .195H0V0c.195 0 0 0 0 0" style="fill:#004098;fill-opacity:1;fill-rule:evenodd;stroke:none" transform="translate(172.457 480.128)"/><path d="M0 0v.195Z" style="fill:#004098;fill-opacity:1;fill-rule:evenodd;stroke:none" transform="translate(163.517 477.602)"/><path d="M0 0v.194h-.195l-.194.195-.194-.195c-.195 0-.195.195-.195.195h-.194V.194h.583c0-.194 0 0 .194 0V0Z" style="fill:#004098;fill-opacity:1;fill-rule:evenodd;stroke:none" transform="translate(166.82 478.38)"/><path d="M0 0c-.194 0 .195 0 0 0 0 0 .195 0 0 0" style="fill:#004098;fill-opacity:1;fill-rule:evenodd;stroke:none" transform="translate(163.905 477.602)"/><path d="M0 0h-.194c-.193.195-.193 0-.193.195h-.196l-.193.194h.389V.195h.193L0 0s.195 0 0 0" style="fill:#004098;fill-opacity:1;fill-rule:evenodd;stroke:none" transform="translate(162.35 477.213)"/><path d="M0 0c-.194 0 0 0 0 0s.195 0 0 0" style="fill:#004098;fill-opacity:1;fill-rule:evenodd;stroke:none" transform="translate(162.739 477.213)"/><path d="M0 0s-.194.193 0 .193V0c.194 0 .194 0 0 0" style="fill:#004098;fill-opacity:1;fill-rule:evenodd;stroke:none" transform="translate(164.294 477.408)"/><path d="M0 0s-.194.195 0 0h.195Z" style="fill:#004098;fill-opacity:1;fill-rule:evenodd;stroke:none" transform="translate(163.905 477.213)"/><path d="M0 0v.195h-.194H0V0h.195z" style="fill:#004098;fill-opacity:1;fill-rule:evenodd;stroke:none" transform="translate(165.654 477.602)"/><path d="M0 0v.195c-.195 0-.195 0 0 0z" style="fill:#004098;fill-opacity:1;fill-rule:evenodd;stroke:none" transform="translate(164.683 477.213)"/><path d="M0 0c-.194 0 0 0-.194.193C0 .193 0 .193 0 0" style="fill:#004098;fill-opacity:1;fill-rule:evenodd;stroke:none" transform="translate(165.654 477.408)"/><path d="M0 0s-.194 0 0 0h.195Z" style="fill:#004098;fill-opacity:1;fill-rule:evenodd;stroke:none" transform="translate(164.488 477.213)"/><path d="M0 0h-.194H0s.195-.195 0 0" style="fill:#004098;fill-opacity:1;fill-rule:evenodd;stroke:none" transform="translate(163.517 477.02)"/><path d="m0 0-.194.193C0 .193 0 .193 0 0" style="fill:#004098;fill-opacity:1;fill-rule:evenodd;stroke:none" transform="translate(164.294 477.02)"/><path d="M0 0v.193c-.194-.193 0 0 0 0C.195.193.195 0 0 0" style="fill:#004098;fill-opacity:1;fill-rule:evenodd;stroke:none" transform="translate(166.043 477.408)"/><path d="M0 0c-.389-.195 0 0 0 0s.194 0 0 0" style="fill:#004098;fill-opacity:1;fill-rule:evenodd;stroke:none" transform="translate(167.21 477.797)"/><path d="M0 0c-.194 0 .195 0 0 .195 0 0 .195 0 0-.195" style="fill:#004098;fill-opacity:1;fill-rule:evenodd;stroke:none" transform="translate(167.403 477.602)"/><path d="M0 0h-.193v.193h-.196c-.193 0 .196 0 0 0h-.193s.193 0 0 0v.196l.193-.196H0Z" style="fill:#004098;fill-opacity:1;fill-rule:evenodd;stroke:none" transform="translate(165.265 477.02)"/><path d="M0 0s-.195.195 0 .195C0 .195.193 0 0 0" style="fill:#004098;fill-opacity:1;fill-rule:evenodd;stroke:none" transform="translate(164.683 476.824)"/><path d="M0 0h-.389s0 .195.195.195V0h.389C0 0 .195-.193 0 0" style="fill:#004098;fill-opacity:1;fill-rule:evenodd;stroke:none" transform="translate(163.905 476.824)"/><path d="M0 0s-.195.193 0 .193Z" style="fill:#004098;fill-opacity:1;fill-rule:evenodd;stroke:none" transform="translate(165.46 477.02)"/><path d="M0 0s-.195.193 0 .193Z" style="fill:#004098;fill-opacity:1;fill-rule:evenodd;stroke:none" transform="translate(164.1 476.63)"/><path d="M0 0c-.389 0 0 .195 0 .195Z" style="fill:#004098;fill-opacity:1;fill-rule:evenodd;stroke:none" transform="translate(164.876 476.824)"/><path d="M0 0v.195c-.194 0-.194 0 0 0h.195C0 0 .195 0 0 0" style="fill:#004098;fill-opacity:1;fill-rule:evenodd;stroke:none" transform="translate(166.625 477.213)"/><path d="M0 0c-.195 0 0 .193 0 .193Z" style="fill:#004098;fill-opacity:1;fill-rule:evenodd;stroke:none" transform="translate(164.683 476.63)"/><path d="M0 0h-.193s-.196 0 0 0z" style="fill:#004098;fill-opacity:1;fill-rule:evenodd;stroke:none" transform="translate(165.265 476.824)"/><path d="M0 0h-.195v.195V0H0s.194 0 0 0" style="fill:#004098;fill-opacity:1;fill-rule:evenodd;stroke:none" transform="translate(167.21 477.213)"/><path d="M0 0v.193h-.195H0Z" style="fill:#004098;fill-opacity:1;fill-rule:evenodd;stroke:none" transform="translate(168.958 477.408)"/><path d="M0 0h-1.749c-.584-.193.776 0 0 0v-.193c.387 0-.195 0 0 0h.776V0h.195v-.193L-.584 0h.195z" style="fill:#004098;fill-opacity:1;fill-rule:evenodd;stroke:none" transform="translate(179.065 480.128)"/><path d="M0 0c-.194-.193.195 0 .195 0Z" style="fill:#004098;fill-opacity:1;fill-rule:evenodd;stroke:none" transform="translate(166.043 476.824)"/><path d="M0 0c-.193 0-.193 0 0 0 0 0 .195 0 0 0" style="fill:#004098;fill-opacity:1;fill-rule:evenodd;stroke:none" transform="translate(164.876 476.437)"/><path d="M0 0h-.778v.193h-.389v.196L-1.36.193v.196h.193l.196-.196h.387V0h.389z" style="fill:#004098;fill-opacity:1;fill-rule:evenodd;stroke:none" transform="translate(167.21 477.02)"/><path d="M0 0c-.193-.195.195 0 0 0 0 0 .195 0 0 0" style="fill:#004098;fill-opacity:1;fill-rule:evenodd;stroke:none" transform="translate(164.876 476.437)"/><path d="M0 0v.195Z" style="fill:#004098;fill-opacity:1;fill-rule:evenodd;stroke:none" transform="translate(167.403 476.824)"/><path d="M0 0h-.194l-.193.193V0v.193h.193V0L0 .193V0s.195 0 0 0" style="fill:#004098;fill-opacity:1;fill-rule:evenodd;stroke:none" transform="translate(166.625 476.63)"/><path d="M0 0v-.195C0 0-.193 0-.193 0Z" style="fill:#004098;fill-opacity:1;fill-rule:evenodd;stroke:none" transform="translate(170.318 477.408)"/><path d="M0 0s-.194 0 0 0c0 0 .195 0 0 0" style="fill:#004098;fill-opacity:1;fill-rule:evenodd;stroke:none" transform="translate(164.488 475.853)"/><path d="M0 0s-.195 0 0 0c0 0 .193 0 0 0" style="fill:#004098;fill-opacity:1;fill-rule:evenodd;stroke:none" transform="translate(171.485 477.213)"/><path d="M0 0v.193h-.194.389V0Z" style="fill:#004098;fill-opacity:1;fill-rule:evenodd;stroke:none" transform="translate(171.29 477.02)"/><path d="M0 0c-.389 0 0 .193 0 .193Z" style="fill:#004098;fill-opacity:1;fill-rule:evenodd;stroke:none" transform="translate(164.876 475.66)"/><path d="M0 0c-.195 0-.195 0-.195.193-.194-.193.195 0 0 0H0Z" style="fill:#004098;fill-opacity:1;fill-rule:evenodd;stroke:none" transform="translate(171.874 477.02)"/><path d="M0 0h-.193Z" style="fill:#004098;fill-opacity:1;fill-rule:evenodd;stroke:none" transform="translate(165.265 475.66)"/><path d="M0 0h-.195Z" style="fill:#004098;fill-opacity:1;fill-rule:evenodd;stroke:none" transform="translate(172.263 477.02)"/><path d="M0 0c.195.195-.194.195-.194.195H0Z" style="fill:#004098;fill-opacity:1;fill-rule:evenodd;stroke:none" transform="translate(172.457 476.824)"/><path d="M0 0c-.194 0 .195.195 0 .195 0 0 .195 0 0-.195" style="fill:#004098;fill-opacity:1;fill-rule:evenodd;stroke:none" transform="translate(174.206 476.824)"/><path d="M0 0h-.193Z" style="fill:#004098;fill-opacity:1;fill-rule:evenodd;stroke:none" transform="translate(174.983 477.02)"/><path d="M0 0h.194H0v-.195z" style="fill:#004098;fill-opacity:1;fill-rule:evenodd;stroke:none" transform="translate(168.958 475.66)"/><path d="M0 0s-.194 0 0 0v.195S.195.195 0 0" style="fill:#004098;fill-opacity:1;fill-rule:evenodd;stroke:none" transform="translate(195.194 477.99)"/><path d="M0 0h.194v.195H.971v.194-.194c.195 0 .195.194.195.194V.195c0 .194.194.194.194.194V.195c.194 0 .194.194.194.194.196 0 .389 0 .584.195.194 0 0-.195 0 0h.194s.193 0 .193.193h.196l.194.196s0-.196 0 0h.388s.196 0 .389.193H4.276h-.195.195c.194.195-.195 0 0 0h.194c0 .195-.194.195 0 .195s-.194-.195 0-.195v.195h.194c.194.194.194 0 .194 0l.194.194h.389v.195h.195c0 .194.194 0 .194.194.195.194.195 0 .389 0v.194h.195l.193.195h.194v.193h.389v.196h.389v-.196.196h.389v.193h.195c.193.195.193.195.388.195v.194s.194 0 .194.195c.194 0 .389 0 .582.194h.196c0 .195.194.195.194.195h.194v.387c.194.196.194 0 .389.196h.194v.193c.195 0 0 0 0 0h.195l.194.195h.388l.194.194v.195h.195v.193h.583v.196h.195l-.195.194h.195s-.195 0 0 0h.193-.193c.193.194.193 0 .193.194h.39v.195h.194c0 .194 0 .194.194.194h-.194.194v.194h.389l-.194.194c.583.388-.389-.388.194 0v.195h.194l.195.193h.193v.196h.196v.388h.194v.194c.194 0 .194-.194.194 0h.195v.195h.195c0 .194 0 .194.193.194v.195h.389v.387l.194.196.195.193h.194v.195c.195.195 0 .195.195.195l.194.194.195.194v.195c.193.194.193 0 .193 0v.194h.196s0 .195.193.195v.194l.195.193c.194 0 .194.195.194.195v.195h.194v.194h.195v.194h.193v.196h.195v.193h.194v.195h.195v.194h.194v.194h.195v.194l.194.195.195.194h-.195.195c0 .194 0 .194.193.389h.194v.389c.195 0 .195 0 .195.194h.194v.195l.195.194.194.195.195.193v.195c.193.194 0 .194.193.194v.194l.196.195c.193 0 0 0 0 0l.193.194s.195 0 .195.195V16.908h.194v.196h.194v.388h.195v.388h.194v.389h.195V18.853h.193V19.435h.196v.195h.193v.583h.195-.195.195v.389l.194.193h.195l-.195.195h.195v.389c.194 0 0 0 .194.193v.196h.194c0 .193-.194.193 0 .193v.583h.194v.195l.194.194v.389h.196v1.166h.193c0 .194 0 .194-.193.194h.193v.388l.196.196h-.196.196V26.043h.193v1.165h.195v1.556l.194-.196h-.194.194c0 .196 0 0 0 0v.196h-.194V29.346c0 .195.194.778.194.584h-.194v.194h.194-.194c0 .195.194.195.194.195h-.194.194c0 .194-.194.194-.194.194h.194c0 .195-.194.195-.194.195h.194-.194v.776h.194c-.194 0 0 .195 0 .195v.388c.195.195 0 .195 0 .389h-.194c.194 0 0 .194 0 .194h.194v.196c0 .193-.194.386-.194.582h.194c-.194.193-.194.388-.194.388v.389c0 .194 0 .39-.195.583h.195c0 .195-.195.389-.195.582v.195h.195c0 .195-.195.195-.195.389h.195l-.195.194.195.196-.195.193h.195c0 .195-.195.389-.195.777v.195c0 .194 0 .388-.193.583v.583c-.196 0-.196.195-.196.195v.389h-.193v.387c0 .196 0 .196-.196.389v.194c-.194 0-.194.195-.194.195v.194h-.194v.778h-.194v.389c-.194 0-.194 0-.194.194v-.194.388h-.195v.389h-.194V43.146c-.195 0-.195.193-.195.193v.778h-.193.193l-.193.194V44.895c-.196 0-.196.193-.196.193-.193.195-.193.195-.193.389h-.195v.195c-.194 0-.194.194-.194.194v.195h-.195v.194c.195 0 0 0 .195-.194 0 0 .194.194 0 .194h-.195v.193h-.194v.196h-.194v.388c0 .194 0 0 0 0v.194s.194 0 0 0v.388h-.195v.196-.196.196l-.193.194v.194h-.196c0 .195-.193 0-.193.195 0 0 0 .193-.195.193 0 .195-.194 0-.194 0v.389h-.195v.195H20.6s.194 0 0 0H19.823v.193h.195-.195s.195 0 0 0v1.749h-.194v.389h-.195c-.194.195 0 .195 0 .195h-.194v.389h-.195v.194h-.194l-.195.195-.193.194h-.195v.193h-.388s.194 0 0 .196h-.388l-.196.193h.196-.196v.195H16.325h.194l-.194.194h-.195v.195l-.194-.195v.195h-.389v.194H14.576v.195-.195.195h-.196v.194h-.388v.194-.194.194h-.388v.195h-.389V55h-.194v.194h-.194v.195h-.196v-.195s0 .195-.193 0v.195s.193 0 0 .194v.194h-.195v.196l-.194-.196v.196h-.389c0 .193-.195 0-.195 0v.388h.195-.195v.194-.194c-.194-.195.195.194-.194 0 0 0 .194-.195 0-.195v.195c0-.195-.194-.195-.388-.195h-.778v-.193h-.194v.193l-.194.195h-.778v.194h-.776c-.389 0-.973 0-1.362-.194-1.165-.195-2.331-.584-3.302-.778-.39-.194-.778-.389-1.361-.389 0 0-.195 0-.388-.194l-.196-.194H1.36v-.195H.971v-.194H.776s0 .194 0 0v.194s0-.194-.193-.194v.194c0-.194-.196-.194-.196-.194H.194c-.194 0 0 0 0 0h-.389c0-.194-.194-.194-.194-.194-.195 0-.195 0-.195-.195h-.194c0-.194-.195-.194-.195-.194h-.193l.193-.195h-.193v-.194h-.195v-.195s0-.193-.194-.193c0 0 0 .193-.195 0v-.196h-.388l-.195-.193v-.389h-.389v-.194c-.193 0-.193-.195-.193-.195h-.195v-.194h-.194v-.388c-.195-.196-.195 0-.195-.196h-.194v-.193h-.195v-.195l-.194-.194h-.193v-.194l-.195-.194v-.39l-.194-.193v-.778l.194.194v-.194h-.194l.194-.195h-.194l.194-.193h-.194c0-.195.194-.389.194-.583.195-.389.195-.778.195-1.166-.195 0-.389-.196-.389-.196h-.778v-.193c-.195 0 0 0 0 0h-.195v-.194c0-.195-.193 0-.193-.195v-.194s-.195 0-.195-.195h-.194v-.389h-.194V44.506h-.195v-1.167h-.194V42.173h.194v-.388h.195v-.195c0-.194 0-.389.194-.389v-.193h.194v-.39h.195v-.194.194-.194h.193v-.195h.195v-.194h.194v-.193h.195v-.196h.389v-.194l.194-.193v-.196s.195.196.195 0h.193v-.193h.194v-.195h.195v-.195h.389v-.194h.389v-.194.194l.193-.194h.389l.195-.195h.194s0-.194.194-.194v-.194c.195 0 .195-.195.195-.195v-.193h.194v-.195h.195c0-.194 0 0 0 0v-.389l.777-.193c.194 0 .194-.196.194-.196H0v-.194h.194v-.194h.193c.196-.195.196-.195.196-.39h.193c.195-.193 0-.193.195-.193v-.194h.195s.194 0 .194-.195h.194v-.193h.389v-.196H2.525v-.194h.196v-.194h.194l.194-.195h.194c4.86-2.332 5.053-7.385 5.053-7.385v-.388h.195v-.194c.194 0 0 0 0 0s0-.195.194-.195v-.388l.194-.196c-.194 0 0-.388 0-.388v-2.138c0-.193.195-.193.195-.193h-.195.195l-.195-.196s.195 0 .195-.194h-.195l.195-.193h-.195v-.778h-.194.194-.194.194l-.194-.195V20.213c-.194-.195 0-.195-.194-.39v-.193h-.195l.195-.195h-.195v-.194s0-.195-.193-.195c.193 0 .193-.193.193-.193h-.193.193-.193V18.269h-.195v-.389l-.194-.194v-.389h-.195v-.389h-.194s.194-.193.194 0c0 0 0-.193 0 0V16.326c-.194-.195-.194-.195-.389-.195v-.194h-.389v-.389h-.194l-.193-.194-.195-.195c0-.193 0 0-.194-.193v-.195H5.83v-.194h-.194c-.195-.195-.195 0-.195-.195h-.193v-.194h-.196v-.195h-.194s-.194 0-.194-.194H4.47v-.195h-.194v-.194h-.389v-.194h-.195c0-.195 0-.195-.193-.195 0-.194-.196-.194-.39-.194v-.194h-.388c0-.194 0-.194-.196-.194h-.193v-.195c.193.195.193.195.389.195 0 0 .194 0 .194.194h.194v.194h.39l.193.194v-.194h-.193v-.194h-.196v-.194h-.388v-.195h.194v.195h.194v.194h.389c.195 0 0 0 0 0v-.194h.195-.195v-.195h-.193l-.196-.193c-.194 0-.194 0-.194-.196h-.194c0-.194 0-.194-.194-.194v-.194h-.389.193-.193v-.195h-.194l-.195-.195H1.75v-.193h-.196l-.194-.194h-.194v-.195h-.39c0-.194 0 0-.193-.194-.196-.195-.196-.195-.389-.195-.194 0-.194 0-.389-.194h-.194c0-.194-.195-.194-.389-.194h-.195v-.195h-.388s0-.195-.194-.195h.194-.389v-.193h-.388v-.196c-.195 0 0 .196-.195.196v-.196c-.193 0-.193 0-.389-.193-.193 0-.388 0-.582-.194H-3.888c-.387-.195-.776-.195-.971-.389-.389-.195-.971-.389-1.36-.584v.195c-.389-.195-.389-.195-.583-.195h-.778l-.194-.193v.193s0-.193-.194-.193h-.196c-.193 0-.193 0-.388-.196h-.194v.196c-.193 0-.193-.196-.389-.196h-3.886v-.193l.193.193v-.193h.196c.193 0 0 .193.193.193v-.193h.195c.194 0 .194.193.389.193l.194-.193s0 .193.195.193v-.193.193-.193s.194 0 .194.193v-.193h-.972s0-.195-.195-.195v.195-.195.195c-.193 0-.193-.195-.389-.195H-14.381s.193 0 0 0H-14.965l-.194-.194v.194l-.195-.194v.194h-.194s0-.194-.194-.194v.194-.194.194c-.195 0-.195-.194-.195-.194l-.193.194s0-.194-.196-.194v.194c-.194 0-.194-.194-.194-.194h-.194v.194h-.778s-.194 0-.194-.194v.194c-.193 0-.193 0-.389-.194h-.388l.194.194v-.194c.194 0 .194.194.194.194H-19.241c-.194 0 0-.194.195-.194-.195 0-.195 0-.195-.194h.195v.194-.194h.389v.194h.194c-.389-.194.388.194 0 0v-.194s.194.194 0 .194h.194v-.194s0-.194-.194-.194v.194s0-.194-.194 0l-.195-.194v.194h-.389s0-.194-.194-.194v.194H-20.406h.194V6.22c.195 0 .195.194.388.194V6.22c.194 0 .194.194.194 0h.195-.195.195c0-.195.194 0 .194 0h.195v-.195l.194.195v-.195.195h.389l.194-.195h.583c0-.194 0 0 0 0 .194 0 0-.194.194 0 0 0-.194 0 0 0v-.194l.195.194.194-.194v.194c.195 0 .195-.194.195-.194l.194.194.194-.194s0 .194.194.194v-.194.194-.194c.196 0 0 .194.196.194h.193v-.194c.195 0 .195.194.389.194v-.194s0 .194.194.194v-.194.194-.194l.195.194v-.194c.194 0 .194.194.194.194v-.194h.195c.193.194 0 0 .193 0 .196 0 .196.194.196.194v-.194h.193s0 .194.195.194v-.194H-11.272v-.194h-2.332c-.195-.196 0-.196 0-.196h.194c-.194 0 0 0 0 0v-.193s0-.195.194-.195H-12.05v-.194h-.194c4.47.194 9.134.194.194.194-.194 0-.194-.194-.194-.194v.194l-.195-.194v.194s0-.194-.193-.194v.194-.194h-.196v.194c-.193 0-.193-.194-.193-.194v.194c-.195 0-.195-.194-.389-.194v.194-.194.194c-.194 0-.194-.194-.389-.194v.194l-.194-.194v.194-.194.194c-.195 0-.195-.194-.195-.194v.194-.194c-.193 0-.193.194-.193.194v-.194.194c-.196 0-.196-.194-.196-.194v.194l-.193-.194v.194l-.195-.194v.194c-.194 0-.194-.194-.194-.194v.194c-.195 0-.195-.194-.195-.194v.194c-.194 0-.194-.194-.388-.194l-.195.194v-.194.194l-.193-.194v.194l-.196-.194v.194-.194.194c-.194 0-.194-.194-.194-.194h-.194v.194l-.194-.194v.194s0-.194-.195-.194v.194-.194.194h-.194l-.195-.194v.194l-.194-.194v.194s0-.194-.193-.194v.194s0-.194-.196-.194v.194h-2.137v.195-.195h.388s0-.194.194-.194v.194l.195-.194h.194s.195 0 0 0h-.194v-.195l-.195.195-.194-.195H-20.406s0-.193-.195-.193v.193h-1.167v.195h-1.359l.194.194h-.388c0 .195 0 0-.196 0v.195h-.193v-.195h-.972v.195h.194-.194l-.194.193h-.583s.193 0 0 0c0-.193 0 0-.195-.193v.193h-.194v.196l-.195-.196-.194.196h-.388v.194c-.194-.194-.194 0-.194-.194v.194h-.389v.194h-.389v.195h-.389s-.195 0 0 0c0 0-.195 0-.195.194V6.22h-.194c-.193 0 0 .194 0 .194l-.193-.194v.194h-.195v.194h-.195c-.194 0 0-.194-.194-.194v.194h.194-.776v.194h.193c.195 0 0 0 0 0-.193 0 0 .195-.193.195-.196 0 0-.195 0-.195h-.196c0 .195 0 0-.194 0v.195h-.194v.193l-.195-.193v.193h-.193v-.193h.193v-.195h.389l.194-.194c.196 0 .196-.194.196-.194h.388c.194-.194 0 0 .194 0V6.22h.194l.195-.195h.195v.195c0-.195 0 0 0 0l.193-.195v-.194h.583v-.194h.389c0-.196 0 0 .195 0v-.196c.583 0-.584.196 0 0 .194 0 0 0 0 0 .194.196 0 0 .194 0 0 0 0 .196 0 0h.583v-.193h.194v-.195h.778v-.194H-24.292l.193-.195s0 .195.194.195v-.195l.195.195v-.195h.389c0-.193.194 0 .194 0v-.193h.972v-.196h.776c.195 0 0-.193.195-.193h.778c0-.194 0 0 0 0v-.194l.194.194v-.194.194l.195-.194H-19.435c.194 0 .194-.195.194-.195h.389l.195.195v-.195h1.36c.194 0 0 0 .194-.194l.195.389c0-.195-.195-.195-.195-.195h-.389.195-.389v.195c-.193 0-.193-.195-.193-.195v.195-.195.195h-.196c-.194-.195 0 0 0 0H-19.241v.194l-.194-.194-.195-.389v.583s-.194-.583-.194-.389c-.193-.194 0 .389 0 .389s-.388-.583-.388-.389v-.194.194c-.194 0-.194-.194-.194 0H-20.99v.195l-.194-.195v.195H-21.961v.194l-.194-.194h.387v-.195l.196.195v-.195h.388l.389.389s-.195-.583 0-.583c0 .194-.195.194 0 .194 0-.194.389.389.389.389l-.195-.194v.194c-.194 0-.194-.194-.194 0H-21.572c0 .193-.196-.583-.196-.583v.194c-.193 0-.193-.194-.193-.194v.194c-.194 0-.194-.194-.194-.194l-.195.194h-.389l-.194.195v-.195.195H-23.905v.194s0-.194-.194 0h-.389l-.194.193s0-.193-.194-.193v.193h-.39s0 .196-.193.196l-.195.193v-.193s0 .193-.194.193h-.389l-.194.195h.388v-.195c.195 0 .195.195.195.195v-.195l.194.195v-.195h.388v-.193c.196 0 .196.193.196.193v-.193H-24.488l.196-.196v.196l.193-.196h.389v-.193l.193.193v-.193H-22.933c0-.194 0 0 0 0h.194l.195-.194c.194 0 0 0 .194.194H-23.127v.193h-.778v.196l-.194-.196v.196h-.389l-.194.193v-.193l-.194.193h-.583v.195h-.972v.194h-.388v.195h-.195v-.195l-.194.195h-.195l-.194.193h-.195v-.193h.195v-.195c0 .195.194.195.194.195v-.195c.195 0-.194.195 0 0h.389v-.194h.583v-.195h.194v-.193h.194v-.196h-.194v.196H-26.819v.193s-.195-.193-.195 0v-.193h.389c0-.196 0 0 0 0h.194v-.196h.194s0-.193.194-.193l.195.193v-.193H-25.266l.196-.194H-24.488v-.195.195l.196-.195H-23.71v-.194l.193.194.196.582H-22.739v-.193h.389v-.194l.195.194s-.195 0 0 0h.387l-.193-.194s-.194 0 0 .194l-.194-.194h.194c.193 0 0 0 0 0H-21.184s0-.195.194-.195c0 0 0 .195.195.195v-.195h.389v-.194.194-.194H-19.435v-.195l.194.195v-.195h.972V3.11c.194 0 .194.194.194.194h.196V3.11s0 .194.193.194V3.11h.583v-.195l.195.195v-.195l.194.195v-.195l.194.195v-.195c.194 0 0 0 0 0h1.361l.194-.193v.193-.193H-13.993v-.196H-13.216v-.193.193-.193l.195.193v-.193.193-.193l.193.193v-.193.193-.193h.196s.193 0 .193.193l.195-.193h.194s0 .193.195.193c0 0-.195-.193 0-.193.389-.389 0 0 .194 0 0 0 .195 0 0 0h.195-.195H-10.106v-.195s0 .195.194.195v-.195s0 .195.195.195v-.195h.194H-13.021c-.195 0-.195-.194-.195-.194v.194c-.194 0-.194-.194-.194-.194v.194l-.194-.194v.194H-14.965v.195l-.194-.195v.195s-.195-.195-.195 0h-1.166v.193l-.194-.193v.193h-.778v.196-.196l-.194.196H-18.463v.193-.193.193h-.778v.195h-.194c.194 0 .194 0 0 0h-.389c-.193.194-.193 0-.193 0v.194h-.389v.195-.195.195h-.389l-.195.194v-.194l-.194.194h-.195v.195l-.193-.195v.195h-.196v-.195.195-.195h.389v-.194c0 .194 0 0 0 0H-20.795v-.195h.389V3.11h.389s-.195 0-.195-.195l.195.195v-.195H-19.435v-.193h.583v-.196l.195.196v-.196s0 .196.194 0h-.194v-.193c0 .193 0 0 0 0h.194l-.194-.195H-18.075v-.194h.389V1.75h.583c-.194 0-.194-.195-.194-.195v.195H-18.657c-.195.194-.195 0-.195 0l-.194.194V1.75h-.195v.194h-.194c-.195 0 0 0 0 0V1.75v.194-.194.194c-.195 0-.195-.194-.195-.194v.194c-.194 0-.194-.194-.194-.194l-.193.194h-.389c0 .194 0 0-.195 0v.194s0-.194-.194-.194v.194h-.195v-.194h.389l.195-.194v-.195l.194.195v-.195s0 .195.195 0h.387v-.194h.389s0-.195 0 0v-.195h-.583l-.193.195h-.389v.194s0-.194-.195-.194v.194h-.389v.195l-.194-.195v.195-.195h.194v-.194c.195 0 0 .194.195.194v-.194.194-.194h.389v-.195s.194.195.194 0H-19.046l.194-.193H-18.075l.196-.196H-17.297V.584c.194 0 .194.193.389.193V.584c.194 0 .194.193.194 0H-15.742V.389H-14.965V.195h-.389v.194s0-.194-.194-.194v.194-.194.194s0-.194-.194-.194v.194H-16.326c-.194 0 .196 0 0 0h-.388l-.194.195s0-.195-.195-.195v.195h-.583l-.193.193V.584v.193H-18.852v.196h-.778v.193H-20.601v.195h-.583c0 .194 0 0 0 0v.194h-.388v.195l-.196-.195v.195c.196 0 .196.194.196 0-.196.194 0 .194-.196.194h-.193.193V1.75h-.193c.193 0 0 0 0 0 0 .194 0 0 0 0h-.194v.194h-.195l-.194.194v-.194l-.195.194h-.194s0 .195-.194.195v-.195.195h-.39v.193s0-.193-.193-.193v.193s-.195-.193 0-.193h.193v-.195h.196l.194-.194v.194l.194-.194h.194V1.75h.195l.194-.195v.195-.195h.195l.194-.194v.194l.193-.194.196-.195v.195c.193 0 0-.195.193-.195h.389V.973s.195 0 .195.193V.973s0 .193.194.193c-.194-.193 0-.193 0-.193l-.194-.196h.389V.584H-19.824c0-.195 0 0 .194 0V.389h.389c.195 0 .195-.194.195-.194v.194l.194-.194h.389-.194V0h.194v.195h.388l.196-.195v.195V0h.193s0 .195.194.195V0H-16.908v-.194c.194 0 .194.194.194.194v-.194H-15.937c0-.194.195 0 .195 0v-.194l.194.194v-.194.194-.194h.583c.195-.195.195 0 .388 0v-.195h.389v.195h.389v-.195.195-.195c.195 0 .195 0 .195.195v-.195h.194c.194 0 0 0 0 0H-12.828l.196-.193v.193-.193H-10.884l.194-.196.195.196h.194v-.196l.195.196v-.196H-9.135c.196 0 0 0 0 0H-6.802v.196h1.943l.195.193h.389l.193-.193v.193c.194 0-.193-.193 0-.193 0 .193.194.193.194.193H-3.304c0 .195.194 0 .389.195H-2.333c.389.194.195 0 .195 0v.194h.194v-.194l.194.194v-.194h.389l.195.194H-.584L-.389 0h.194z" style="fill:#1d2088;fill-opacity:1;fill-rule:evenodd;stroke:none" transform="translate(186.255 474.687)"/></g><g clip-path="url(#b)" transform="matrix(5.3183 0 0 -5.3183 -742.5 2901.786)"><path d="M172.845 520.553c-7.191-2.721-10.882-10.496-7.969-17.686 2.722-6.997 10.69-10.495 17.881-7.774 7.191 2.721 10.688 10.495 7.774 17.686-1.934 5.356-7.06 8.777-12.584 8.777-1.69 0-3.417-.32-5.102-1.003" style="fill:url(#c);stroke:none"/></g><path d="M0 0c-7.58 9.134-21.767 11.077-31.873 3.887-10.106-7.192-12.244-20.795-4.665-30.124 3.694-4.859 2.721-11.465-2.331-15.159-5.248-3.498-12.244-2.526-16.131 2.138-11.272 13.993-8.162 34.011 7.191 44.894C-32.651 16.52-11.273 13.993 0 0" style="fill:#094;fill-opacity:1;fill-rule:evenodd;stroke:none" transform="matrix(5.3183 0 0 -5.3183 346.253 83.72)"/><path d="M0 0c-1.54-1.382-2.311-3.099-2.311-5.152 0-2.013.771-3.709 2.311-5.092 1.501-1.342 3.278-2.013 5.332-2.013 1.975 0 3.712.671 5.214 2.013 1.579 1.383 2.369 3.079 2.369 5.092 0 2.053-.79 3.77-2.369 5.152-1.502 1.302-3.239 1.953-5.214 1.953C3.278 1.953 1.501 1.302 0 0m16.333 5.186c3.35-2.756 5.025-6.202 5.025-10.338 0-4.096-1.675-7.522-5.025-10.278-3.115-2.56-6.721-3.84-10.82-3.84-4.258 0-7.963 1.28-11.116 3.84-3.311 2.717-4.966 6.144-4.966 10.278 0 4.174 1.655 7.621 4.966 10.338 3.153 2.52 6.858 3.781 11.116 3.781 4.099 0 7.705-1.261 10.82-3.781m-4.511 22.282c1.064-.867 3.152-1.498 6.265-1.892 2.364-.314 5.988-.531 10.875-.649v-6.501c-5.911.118-10.324.353-13.239.708-5.046.63-8.437 1.794-10.173 3.488-1.737-1.694-5.168-2.858-10.291-3.488-2.956-.355-7.329-.571-13.12-.65v-.058 6.442c4.924.117 8.53.315 10.815.59 3.072.394 5.141 1.064 6.205 2.01h-17.02v6.045H.873v4.669h9.412v-4.669h18.677v-6.045ZM1.196 7.69v2.246h-20.804v6.505h50.249V9.936H9.777V7.69Z" style="fill:#231916;fill-opacity:1;fill-rule:nonzero;stroke:none" transform="matrix(5.3183 0 0 -5.3183 641.452 250.292)"/><path d="M0 0c.118-2.285 1.91-4.098 5.378-5.437 3.23-1.261 7.506-1.971 12.825-2.128v-7.446c-4.965.157-9.318.688-13.061 1.595-5.162 1.222-8.61 3.014-10.343 5.378-1.773-2.364-5.279-4.156-10.521-5.378-3.781-.868-8.076-1.399-12.883-1.595v7.387c5.358.157 9.633.847 12.825 2.068 3.467 1.34 5.24 3.192 5.318 5.556h-18.143v7.382h46.808V0Zm-9.394-43.329v16.016h-20.921v7.381h50.254v-7.381H-1.042v-16.016z" style="fill:#231916;fill-opacity:1;fill-rule:nonzero;stroke:none" transform="matrix(5.3183 0 0 -5.3183 1127.547 105.435)"/><path d="M594.126 111.579h17.64v107.74h-17.64zm-40.64 0c0 23.552 2.203 40.614 6.616 51.186 3.912 9.322 10.277 14.772 19.102 16.354v17.478c-8.24-1-15.316-3.703-21.225-8.116-5.984-4.577-10.513-10.652-13.584-18.225-3.156 7.49-8.015 13.565-14.586 18.225-5.993 4.328-12.731 7.034-20.224 8.116v-17.353c8.739-1.665 15.106-7.2 19.102-16.605 4.578-10.569 6.867-27.59 6.867-51.06z" style="fill:#231916;fill-opacity:1;fill-rule:nonzero;stroke:none;stroke-width:2.11236" transform="translate(113.368 -214.63) scale(2.51771)"/></svg>