<svg xmlns="http://www.w3.org/2000/svg" width="744.72314pt" height="525pt" fill-rule="evenodd" viewBox="0 0 744.72314 524.99999"><path d="m148.762 1278.96 2.182-3.15h76.489c5.698 0 7.032 1.09 7.032 2.78 0 1.46-1.334 2.67-3.395 3.64-1.939.97-20.243 8.85-22.183 9.7-1.94.85-2.668 1.7-2.668 2.91 0 1.09 1.213 1.94 4.364 1.94h77.34l7.514 11.15H195.431c-5.575 0-11.758-1.94-12.365-5.94-.483-3.39 1.699-6.06 6.79-8.36 5.212-2.19 23.032-9.58 25.455-10.55 2.303-.97 2.788-1.82 2.788-2.66 0-.61-.605-1.46-4.242-1.46h-65.095z" style="fill:#0067ab;stroke:none" transform="matrix(5.07737 0 0 5.07737 -755.32 -6115.844)"/><path d="M189.128 1271.44h-36.366s23.517-41.57 27.154-47.64c1.697-2.78 4.605-6.18 9.698-6.18 5.091 0 6.909 3.4 6.909 3.4s4.847-8.25 6.788-11.28c2.062-3.03 6.061-5.21 10.425-5.21 4.363 0 8.849 2.18 10.909 5.94 2.181 3.76 12.487 21.82 12.487 21.82s3.149-3.39 7.636-3.39c4.363 0 7.151 2.42 8.97 5.33 1.817 3.03 20.608 37.21 20.608 37.21h-70.914l-3.515-10.06h8.363l-1.818-5.69c3.638 1.57 7.759 1.45 10.061 1.45 2.303 0 10.79-1.7 10.79-4.85 0-1.94-5.457-4.24-11.758-4.24-6.425 0-11.638 2.79-11.638 2.79l-3.758-9.22h6.546l-2.424-7.51s2.181-.12 3.878-.12c1.577 0 5.213-.85 5.213-2.79s-4.607-2.43-6.061-2.43c-1.455 0-4.728.98-4.728.98s-.727-1.7-1.213-3.04c-.968-2.54-4.242-1.45-3.635 1.22a529.02 529.02 0 0 0 2.667 9.33H189.37l1.333 4.12c-3.392-1.57-5.818-1.57-7.999-1.57-2.182 0-8.728 1.09-8.728 3.63 0 2.18 4.242 3.76 9.213 3.76 4 0 8.849-2.3 8.849-2.3l3.272 8.12h-11.394z" style="fill:#00843e;stroke:none" transform="matrix(5.07737 0 0 5.07737 -755.32 -6115.844)"/></svg>